{
.appVersion = "3343";
.formatVersion = 3;
DisplayStrings = (
anowxyz01234789,
abcdefghijklmnopqrstuvwxyz0123456789,
j
);
axes = (
{
name = Distortion;
tag = DIST;
}
);
date = "2023-03-29 00:12:14 +0000";
familyName = Lava;
fontMaster = (
{
axesValues = (
500
);
id = m01;
metricValues = (
{
over = 16;
pos = 800;
},
{
over = 16;
pos = 700;
},
{
over = 16;
pos = 500;
},
{
over = -16;
},
{
over = -16;
pos = -300;
}
);
name = REGULAR;
},
{
axesValues = (
300
);
id = m002;
metricValues = (
{
over = 16;
pos = 800;
},
{
over = 16;
pos = 700;
},
{
over = 16;
pos = 500;
},
{
over = -16;
},
{
over = -16;
pos = -300;
}
);
name = DISINTEGRATE;
},
{
axesValues = (
100
);
id = m003;
metricValues = (
{
over = 16;
pos = 800;
},
{
over = 16;
pos = 700;
},
{
over = 16;
pos = 500;
},
{
over = -16;
},
{
over = -16;
pos = -300;
}
);
name = ABSTRACT;
}
);
glyphs = (
{
glyphname = A;
lastChange = "2025-10-03 14:00:33 +0000";
layers = (
{
layerId = m01;
shapes = (
{
attr = {
fill = "1";
};
closed = 1;
nodes = (
(538,-7,o),
(544,-5,o),
(557,6,c),
(590,38,o),
(574,123,o),
(543,181,c),
(507,252,o),
(470,245,o),
(449,313,c),
(435,358,o),
(445,375,o),
(427,421,c),
(416,445,o),
(394,477,o),
(356,494,c),
(322,510,o),
(285,510,o),
(269,504,c),
(263,503,o),
(209,489,o),
(181,427,c),
(170,405,o),
(167,393,o),
(157,367,c),
(139,326,o),
(116,311,o),
(91,284,c),
(70,260,o),
(17,198,o),
(24,129,c),
(31,75,o),
(71,43,o),
(78,38,c),
(148,-18,o),
(244,24,o),
(257,30,c),
(346,69,o),
(388,155,o),
(393,190,c),
(401,236,o),
(402,237,o),
(411,253,c),
(420,266,o),
(427,271,o),
(435,270,c),
(446,266,o),
(449,230,o),
(440,201,c),
(435,190,o),
(431,181,o),
(424,167,c),
(406,121,o),
(430,69,o),
(431,66,c),
(445,34,o),
(481,-11,o),
(525,-8,c)
);
},
{
attr = {
fill = "1";
};
closed = 1;
nodes = (
(136,181,o),
(159,258,o),
(201,298,c),
(231,327,o),
(268,334,o),
(285,337,c),
(299,339,o),
(325,342,o),
(352,330,c),
(362,327,o),
(390,316,o),
(391,297,c),
(391,283,o),
(381,272,o),
(361,246,c),
(325,193,o),
(329,186,o),
(301,154,c),
(266,124,o),
(199,116,o),
(169,145,c)
);
}
);
width = 600;
},
{
layerId = m002;
shapes = (
{
attr = {
fill = "1";
};
closed = 1;
nodes = (
(508,18,o),
(514,21,o),
(526,33,c),
(558,68,o),
(553,114,o),
(523,180,c),
(489,260,o),
(465,305,o),
(433,327,c),
(393,352,o),
(317,242,o),
(292,321,c),
(282,363,o),
(362,414,o),
(333,474,c),
(316,510,o),
(276,510,o),
(259,508,c),
(245,507,o),
(213,498,o),
(185,430,c),
(177,413,o),
(175,401,o),
(174,386,c),
(170,327,o),
(211,283,o),
(187,252,c),
(168,226,o),
(91,195,o),
(90,116,c),
(90,75,o),
(109,42,o),
(123,30,c),
(186,-41,o),
(256,-8,o),
(269,16,c),
(311,85,o),
(312,125,o),
(319,167,c),
(323,193,o),
(329,232,o),
(388,279,c),
(406,293,o),
(417,300,o),
(435,295,c),
(458,288,o),
(455,262,o),
(442,220,c),
(434,194,o),
(423,186,o),
(413,164,c),
(406,147,o),
(397,119,o),
(409,85,c),
(422,49,o),
(442,12,o),
(496,17,c)
);
},
{
attr = {
fill = "1";
};
closed = 1;
nodes = (
(140,160,o),
(168,194,o),
(213,226,c),
(234,250,o),
(226,262,o),
(238,277,c),
(249,290,o),
(272,290,o),
(292,281,c),
(298,278,o),
(308,267,o),
(308,250,c),
(308,240,o),
(311,232,o),
(297,213,c),
(272,170,o),
(275,164,o),
(255,139,c),
(231,114,o),
(184,107,o),
(163,131,c)
);
}
);
width = 599;
},
{
layerId = m003;
shapes = (
{
attr = {
fill = "1";
};
closed = 1;
nodes = (
(518,12,o),
(529,17,o),
(537,50,c),
(543,84,o),
(505,90,o),
(482,145,c),
(448,225,o),
(447,252,o),
(401,278,c),
(342,311,o),
(252,193,o),
(227,272,c),
(217,314,o),
(218,372,o),
(250,413,c),
(295,474,o),
(272,505,o),
(255,503,c),
(233,500,o),
(211,479,o),
(188,430,c),
(180,413,o),
(178,401,o),
(177,386,c),
(173,327,o),
(214,283,o),
(190,252,c),
(171,226,o),
(51,186,o),
(50,107,c),
(50,66,o),
(69,33,o),
(83,21,c),
(150,-40,o),
(241,5,o),
(253,12,c),
(338,56,o),
(315,125,o),
(322,167,c),
(326,193,o),
(336,204,o),
(349,213,c),
(360,221,o),
(373,221,o),
(384,218,c),
(398,214,o),
(401,196,o),
(399,189,c),
(394,173,o),
(392,170,o),
(381,157,c),
(373,147,o),
(312,84,o),
(324,50,c),
(331,-6,o),
(431,-30,o),
(488,-4,c)
);
},
{
attr = {
fill = "1";
};
closed = 1;
nodes = (
(136,147,o),
(171,194,o),
(216,226,c),
(237,250,o),
(229,262,o),
(241,277,c),
(252,290,o),
(275,290,o),
(295,281,c),
(301,278,o),
(311,267,o),
(311,250,c),
(311,195,o),
(236,214,o),
(223,167,c),
(195,57,o),
(410,89,o),
(346,9,c),
(281,-59,o),
(161,56,o),
(150,95,c)
);
}
);
width = 573;
}
);
unicode = 65;
},
{
glyphname = B;
lastChange = "2025-10-03 14:00:33 +0000";
layers = (
{
layerId = m01;
shapes = (
{
attr = {
fill = "1";
};
closed = 1;
nodes = (
(125,780,o),
(104,766,o),
(91,713,c),
(89,702,o),
(88,694,o),
(87,679,c),
(81,608,o),
(87,570,o),
(98,523,c),
(114,465,o),
(114,473,o),
(127,429,c),
(149,353,o),
(132,284,o),
(126,249,c),
(112,184,o),
(108,186,o),
(108,137,c),
(108,123,o),
(114,67,o),
(150,32,c),
(213,-29,o),
(350,-13,o),
(425,65,c),
(473,114,o),
(496,191,o),
(479,261,c),
(458,341,o),
(392,384,o),
(374,395,c),
(354,406,o),
(354,406,o),
(311,425,c),
(253,449,o),
(166,462,o),
(146,489,c),
(119,523,o),
(116,550,o),
(141,601,c),
(170,652,o),
(213,642,o),
(247,687,c),
(260,709,o),
(268,739,o),
(249,770,c),
(233,796,o),
(212,802,o),
(195,803,c),
(180,805,o),
(161,798,o),
(149,792,c)
);
},
{
attr = {
fill = "1";
};
closed = 1;
nodes = (
(287,316,o),
(314,316,o),
(339,309,c),
(389,295,o),
(406,238,o),
(410,225,c),
(425,174,o),
(409,118,o),
(377,84,c),
(367,71,o),
(325,26,o),
(279,39,c),
(256,45,o),
(232,66,o),
(229,92,c),
(224,127,o),
(264,135,o),
(271,190,c),
(275,223,o),
(272,246,o),
(272,246,c),
(271,270,o),
(264,288,o),
(275,301,c)
);
}
);
width = 555;
},
{
layerId = m002;
shapes = (
{
attr = {
fill = "1";
};
closed = 1;
nodes = (
(164,796,o),
(140,778,o),
(111,729,c),
(106,715,o),
(100,706,o),
(95,690,c),
(76,642,o),
(66,581,o),
(78,525,c),
(91,476,o),
(118,445,o),
(144,421,c),
(189,374,o),
(221,327,o),
(206,282,c),
(186,216,o),
(106,231,o),
(81,173,c),
(66,123,o),
(66,89,o),
(109,42,c),
(184,-42,o),
(327,-21,o),
(416,87,c),
(457,134,o),
(460,224,o),
(441,314,c),
(415,413,o),
(376,427,o),
(342,434,c),
(304,443,o),
(271,416,o),
(239,416,c),
(204,416,o),
(155,445,o),
(121,486,c),
(94,540,o),
(96,578,o),
(128,602,c),
(183,644,o),
(222,614,o),
(269,655,c),
(287,678,o),
(304,711,o),
(291,753,c),
(280,786,o),
(259,801,o),
(242,805,c),
(227,811,o),
(206,808,o),
(192,805,c)
);
},
{
attr = {
fill = "1";
};
closed = 1;
nodes = (
(308,390,o),
(335,389,o),
(358,380,c),
(387,366,o),
(394,346,o),
(394,316,c),
(391,272,o),
(364,235,o),
(326,209,c),
(293,180,o),
(323,131,o),
(287,107,c),
(264,98,o),
(244,132,o),
(243,159,c),
(239,200,o),
(278,206,o),
(288,266,c),
(293,297,o),
(291,322,o),
(291,322,c),
(292,345,o),
(286,363,o),
(296,375,c)
);
}
);
width = 524;
},
{
layerId = m003;
shapes = (
{
attr = {
fill = "1";
};
closed = 1;
nodes = (
(172,796,o),
(160,783,o),
(131,734,c),
(122,720,o),
(108,690,o),
(103,674,c),
(84,626,o),
(74,581,o),
(86,525,c),
(99,476,o),
(126,445,o),
(152,421,c),
(197,374,o),
(225,335,o),
(235,282,c),
(243,216,o),
(250,212,o),
(237,170,c),
(222,120,o),
(179,122,o),
(172,42,c),
(164,-42,o),
(331,-26,o),
(392,87,c),
(422,159,o),
(405,201,o),
(386,291,c),
(372,377,o),
(389,421,o),
(350,434,c),
(312,443,o),
(290,388,o),
(253,377,c),
(210,364,o),
(108,349,o),
(46,438,c),
(19,492,o),
(90,623,o),
(122,647,c),
(177,689,o),
(221,661,o),
(280,688,c),
(294,694,o),
(309,722,o),
(299,753,c),
(288,786,o),
(267,801,o),
(250,805,c),
(235,811,o),
(214,808,o),
(200,805,c)
);
},
{
attr = {
fill = "1";
};
closed = 1;
nodes = (
(372,409,o),
(362,548,o),
(445,500,c),
(535,433,o),
(402,403,o),
(402,316,c),
(399,247,o),
(372,235,o),
(334,209,c),
(301,180,o),
(331,131,o),
(295,107,c),
(272,98,o),
(252,132,o),
(251,159,c),
(247,200,o),
(278,220,o),
(277,270,c),
(276,303,o),
(299,322,o),
(299,322,c),
(317,341,o),
(348,318,o),
(360,369,c)
);
}
);
width = 536;
}
);
unicode = 66;
},
{
glyphname = C;
lastChange = "2025-10-03 14:00:33 +0000";
layers = (
{
layerId = m01;
shapes = (
{
attr = {
fill = "1";
};
closed = 1;
nodes = (
(147,333,o),
(180,348,o),
(209,338,c),
(252,322,o),
(261,297,o),
(299,283,c),
(322,271,o),
(366,273,o),
(388,283,c),
(450,307,o),
(470,378,o),
(437,437,c),
(402,506,o),
(324,508,o),
(265,504,c),
(169,497,o),
(109,438,o),
(79,357,c),
(47,276,o),
(63,183,o),
(71,161,c),
(84,107,o),
(114,58,o),
(183,19,c),
(261,-16,o),
(362,-12,o),
(432,40,c),
(466,70,o),
(483,85,o),
(486,141,c),
(487,178,o),
(475,218,o),
(424,246,c),
(372,263,o),
(318,229,o),
(287,199,c),
(256,167,o),
(256,152,o),
(226,125,c),
(205,107,o),
(172,104,o),
(153,117,c),
(105,144,o),
(93,213,o),
(95,235,c),
(99,278,o),
(104,298,o),
(138,323,c)
);
}
);
width = 546;
},
{
layerId = m002;
shapes = (
{
attr = {
fill = "1";
};
closed = 1;
nodes = (
(122,378,o),
(151,395,o),
(183,383,c),
(231,367,o),
(240,341,o),
(281,325,c),
(307,313,o),
(363,310,o),
(387,323,c),
(455,346,o),
(471,400,o),
(459,434,c),
(421,508,o),
(336,510,o),
(271,505,c),
(167,498,o),
(78,437,o),
(59,341,c),
(41,227,o),
(81,153,o),
(105,117,c),
(135,65,o),
(181,10,o),
(232,-2,c),
(312,-23,o),
(361,21,o),
(400,97,c),
(430,155,o),
(488,140,o),
(486,191,c),
(483,233,o),
(464,252,o),
(425,256,c),
(372,265,o),
(327,223,o),
(302,188,c),
(278,153,o),
(281,138,o),
(257,108,c),
(237,86,o),
(208,79,o),
(188,87,c),
(138,106,o),
(101,184,o),
(91,227,c),
(81,280,o),
(77,341,o),
(112,368,c)
);
}
);
width = 527;
},
{
layerId = m003;
shapes = (
{
attr = {
fill = "1";
};
closed = 1;
nodes = (
(77,357,o),
(115,341,o),
(148,383,c),
(196,453,o),
(216,409,o),
(257,393,c),
(283,381,o),
(309,357,o),
(368,357,c),
(406,357,o),
(436,400,o),
(424,434,c),
(386,508,o),
(257,520,o),
(236,505,c),
(169,456,o),
(192,384,o),
(173,288,c),
(155,174,o),
(79,148,o),
(82,106,c),
(89,45,o),
(146,10,o),
(197,-2,c),
(277,-23,o),
(262,83,o),
(301,159,c),
(331,217,o),
(413,139,o),
(451,191,c),
(471,238,o),
(429,252,o),
(390,256,c),
(337,265,o),
(292,223,o),
(267,188,c),
(243,153,o),
(246,138,o),
(222,108,c),
(202,86,o),
(173,79,o),
(153,87,c),
(103,106,o),
(66,184,o),
(56,227,c),
(46,280,o),
(48,306,o),
(64,333,c)
);
}
);
width = 496;
}
);
unicode = 67;
},
{
glyphname = D;
lastChange = "2025-10-03 14:00:33 +0000";
layers = (
{
layerId = m01;
shapes = (
{
attr = {
fill = "1";
};
closed = 1;
nodes = (
(394,798,o),
(375,805,o),
(360,803,c),
(343,802,o),
(322,796,o),
(306,770,c),
(287,739,o),
(295,709,o),
(308,687,c),
(342,642,o),
(388,649,o),
(417,598,c),
(442,547,o),
(439,520,o),
(412,486,c),
(388,454,o),
(302,449,o),
(244,425,c),
(201,406,o),
(201,406,o),
(181,395,c),
(163,384,o),
(97,341,o),
(76,261,c),
(59,191,o),
(82,114,o),
(130,65,c),
(205,-13,o),
(342,-29,o),
(405,32,c),
(441,67,o),
(447,123,o),
(447,137,c),
(447,186,o),
(443,184,o),
(429,249,c),
(423,284,o),
(406,353,o),
(428,429,c),
(441,473,o),
(441,465,o),
(457,523,c),
(468,570,o),
(474,608,o),
(468,679,c),
(467,694,o),
(466,702,o),
(464,713,c),
(451,766,o),
(430,780,o),
(406,792,c)
);
},
{
attr = {
fill = "1";
};
closed = 1;
nodes = (
(367,376,o),
(360,358,o),
(359,334,c),
(359,334,o),
(356,311,o),
(360,278,c),
(367,223,o),
(407,215,o),
(402,180,c),
(399,154,o),
(375,133,o),
(352,127,c),
(306,114,o),
(264,159,o),
(254,172,c),
(222,206,o),
(206,262,o),
(221,313,c),
(225,326,o),
(242,383,o),
(292,397,c),
(317,404,o),
(344,404,o),
(356,389,c)
);
}
);
width = 520;
},
{
layerId = m002;
shapes = (
{
attr = {
fill = "1";
};
closed = 1;
nodes = (
(412,802,o),
(397,809,o),
(385,808,c),
(371,807,o),
(356,800,o),
(343,774,c),
(328,742,o),
(334,713,o),
(345,691,c),
(371,648,o),
(407,652,o),
(430,602,c),
(449,552,o),
(447,524,o),
(408,488,c),
(383,452,o),
(292,446,o),
(230,420,c),
(185,399,o),
(185,399,o),
(163,387,c),
(118,364,o),
(54,282,o),
(87,205,c),
(144,99,o),
(216,259,o),
(267,197,c),
(347,99,o),
(299,-8,o),
(387,-10,c),
(430,-10,o),
(445,35,o),
(445,65,c),
(445,127,o),
(442,124,o),
(427,206,c),
(420,250,o),
(402,337,o),
(426,424,c),
(440,473,o),
(440,464,o),
(461,528,c),
(470,577,o),
(475,613,o),
(470,684,c),
(469,697,o),
(469,706,o),
(467,717,c),
(456,769,o),
(441,783,o),
(421,794,c)
);
},
{
attr = {
fill = "1";
};
closed = 1;
nodes = (
(373,365,o),
(370,352,o),
(370,336,c),
(370,336,o),
(367,320,o),
(370,298,c),
(391,211,o),
(395,205,o),
(384,181,c),
(377,165,o),
(369,156,o),
(358,158,c),
(330,165,o),
(337,197,o),
(329,227,c),
(315,273,o),
(255,277,o),
(263,313,c),
(271,343,o),
(301,368,o),
(330,376,c),
(345,381,o),
(361,381,o),
(367,372,c)
);
}
);
width = 525;
},
{
layerId = m003;
shapes = (
{
attr = {
fill = "1";
};
closed = 1;
nodes = (
(350,802,o),
(335,809,o),
(323,808,c),
(309,807,o),
(282,802,o),
(281,774,c),
(279,726,o),
(345,739,o),
(356,717,c),
(382,674,o),
(345,652,o),
(368,602,c),
(387,552,o),
(444,460,o),
(405,424,c),
(380,388,o),
(210,428,o),
(168,420,c),
(129,413,o),
(117,408,o),
(101,387,c),
(59,330,o),
(61,281,o),
(101,260,c),
(168,230,o),
(234,332,o),
(285,270,c),
(365,172,o),
(237,-8,o),
(325,-10,c),
(368,-10,o),
(383,35,o),
(383,65,c),
(383,127,o),
(380,124,o),
(365,206,c),
(358,250,o),
(301,373,o),
(325,460,c),
(339,509,o),
(381,466,o),
(399,528,c),
(416,592,o),
(413,613,o),
(408,684,c),
(407,697,o),
(407,706,o),
(405,717,c),
(394,769,o),
(376,778,o),
(359,794,c)
);
},
{
attr = {
fill = "1";
};
closed = 1;
nodes = (
(311,365,o),
(308,352,o),
(308,336,c),
(308,336,o),
(305,320,o),
(308,298,c),
(329,211,o),
(333,205,o),
(322,181,c),
(315,165,o),
(307,156,o),
(296,158,c),
(268,165,o),
(275,197,o),
(267,227,c),
(253,273,o),
(193,277,o),
(201,313,c),
(209,343,o),
(239,368,o),
(268,376,c),
(283,381,o),
(299,381,o),
(305,372,c)
);
}
);
width = 469;
}
);
unicode = 68;
},
{
glyphname = E;
lastChange = "2025-10-03 14:00:33 +0000";
layers = (
{
layerId = m01;
shapes = (
{
attr = {
fill = "1";
};
closed = 1;
nodes = (
(496,340,o),
(492,361,o),
(483,389,c),
(461,451,o),
(399,478,o),
(355,490,c),
(260,517,o),
(134,457,o),
(84,355,c),
(41,266,o),
(69,179,o),
(73,170,c),
(110,67,o),
(176,33,o),
(236,18,c),
(258,12,o),
(351,-4,o),
(427,29,c),
(447,37,o),
(490,57,o),
(509,120,c),
(522,159,o),
(510,200,o),
(483,212,c),
(458,224,o),
(411,210,o),
(386,173,c),
(349,129,o),
(355,112,o),
(341,88,c),
(322,51,o),
(293,40,o),
(239,51,c),
(179,63,o),
(140,110,o),
(154,168,c),
(165,204,o),
(203,224,o),
(251,227,c),
(286,230,o),
(312,218,o),
(361,215,c),
(397,212,o),
(432,217,o),
(452,236,c),
(476,257,o),
(482,276,o),
(489,306,c)
);
},
{
attr = {
fill = "1";
};
closed = 1;
nodes = (
(276,402,o),
(289,416,o),
(321,433,c),
(352,448,o),
(400,456,o),
(438,416,c),
(461,396,o),
(477,347,o),
(454,322,c),
(430,289,o),
(365,307,o),
(342,316,c),
(327,322,o),
(312,326,o),
(289,326,c),
(272,326,o),
(249,322,o),
(240,332,c),
(231,346,o),
(250,376,o),
(267,394,c)
);
}
);
width = 564;
},
{
layerId = m002;
shapes = (
{
attr = {
fill = "1";
};
closed = 1;
nodes = (
(501,370,o),
(496,393,o),
(485,427,c),
(463,497,o),
(413,509,o),
(349,509,c),
(269,509,o),
(254,450,o),
(221,362,c),
(192,272,o),
(46,329,o),
(46,173,c),
(46,61,o),
(156,15,o),
(221,-2,c),
(244,-9,o),
(334,-15,o),
(416,24,c),
(443,39,o),
(494,43,o),
(516,115,c),
(529,161,o),
(518,229,o),
(490,243,c),
(463,256,o),
(413,246,o),
(387,231,c),
(361,215,o),
(350,173,o),
(335,155,c),
(312,132,o),
(286,126,o),
(259,133,c),
(229,140,o),
(200,173,o),
(208,206,c),
(217,235,o),
(239,268,o),
(280,269,c),
(312,268,o),
(324,229,o),
(355,226,c),
(396,218,o),
(431,228,o),
(453,249,c),
(478,273,o),
(484,296,o),
(493,332,c)
);
},
{
attr = {
fill = "1";
};
closed = 1;
nodes = (
(274,366,o),
(279,374,o),
(301,387,c),
(321,399,o),
(358,401,o),
(388,376,c),
(403,362,o),
(415,336,o),
(403,302,c),
(394,257,o),
(350,239,o),
(328,278,c),
(312,301,o),
(300,311,o),
(284,311,c),
(273,311,o),
(257,308,o),
(251,314,c),
(243,326,o),
(257,345,o),
(269,360,c)
);
}
);
width = 566;
},
{
layerId = m003;
shapes = (
{
attr = {
fill = "1";
};
closed = 1;
nodes = (
(441,370,o),
(436,393,o),
(425,427,c),
(403,497,o),
(353,509,o),
(289,509,c),
(209,509,o),
(194,450,o),
(161,362,c),
(132,272,o),
(116,298,o),
(86,215,c),
(37,74,o),
(109,14,o),
(161,-2,c),
(184,-9,o),
(321,-28,o),
(356,24,c),
(382,74,o),
(346,105,o),
(362,144,c),
(375,190,o),
(442,179,o),
(430,243,c),
(426,265,o),
(353,246,o),
(327,231,c),
(301,215,o),
(314,158,o),
(275,111,c),
(214,50,o),
(128,41,o),
(116,66,c),
(103,106,o),
(151,132,o),
(214,208,c),
(256,262,o),
(194,432,o),
(275,433,c),
(344,435,o),
(232,305,o),
(295,226,c),
(343,180,o),
(371,228,o),
(393,249,c),
(418,273,o),
(424,296,o),
(433,332,c)
);
},
{
attr = {
fill = "1";
};
closed = 1;
nodes = (
(214,366,o),
(219,374,o),
(241,387,c),
(261,399,o),
(298,401,o),
(328,376,c),
(343,362,o),
(408,356,o),
(396,298,c),
(387,253,o),
(290,239,o),
(268,278,c),
(252,301,o),
(240,311,o),
(224,311,c),
(213,311,o),
(197,308,o),
(191,314,c),
(183,326,o),
(197,345,o),
(209,360,c)
);
}
);
width = 507;
}
);
unicode = 69;
},
{
glyphname = F;
lastChange = "2025-10-03 14:00:33 +0000";
layers = (
{
layerId = m01;
shapes = (
{
attr = {
fill = "1";
};
closed = 1;
nodes = (
(317,33,o),
(331,61,o),
(332,90,c),
(334,142,o),
(321,207,o),
(307,278,c),
(300,316,o),
(296,330,o),
(283,371,c),
(266,427,o),
(264,435,o),
(279,440,c),
(300,445,o),
(369,391,o),
(408,383,c),
(425,379,o),
(448,373,o),
(469,385,c),
(482,391,o),
(501,407,o),
(500,424,c),
(497,448,o),
(461,458,o),
(455,460,c),
(419,471,o),
(399,455,o),
(365,455,c),
(354,455,o),
(292,463,o),
(254,500,c),
(214,558,o),
(207,622,o),
(225,683,c),
(249,740,o),
(277,745,o),
(304,740,c),
(317,737,o),
(339,726,o),
(344,701,c),
(347,689,o),
(344,682,o),
(341,661,c),
(338,645,o),
(335,628,o),
(343,613,c),
(353,596,o),
(375,585,o),
(395,586,c),
(432,588,o),
(451,630,o),
(452,633,c),
(470,677,o),
(441,732,o),
(410,760,c),
(406,764,o),
(344,819,o),
(269,794,c),
(217,775,o),
(179,727,o),
(179,681,c),
(177,577,o),
(214,502,o),
(201,481,c),
(190,462,o),
(151,465,o),
(147,465,c),
(118,468,o),
(111,485,o),
(90,481,c),
(69,478,o),
(49,459,o),
(50,446,c),
(52,425,o),
(107,415,o),
(134,412,c),
(179,408,o),
(195,420,o),
(214,408,c),
(221,404,o),
(230,399,o),
(237,355,c),
(245,309,o),
(236,234,o),
(217,206,c),
(214,200,o),
(201,183,o),
(198,176,c),
(177,140,o),
(165,128,o),
(164,89,c),
(163,81,o),
(164,40,o),
(195,15,c),
(225,-6,o),
(257,-5,o),
(276,3,c),
(289,9,o),
(296,13,o),
(307,23,c)
);
}
);
width = 540;
},
{
layerId = m002;
shapes = (
{
attr = {
fill = "1";
};
closed = 1;
nodes = (
(340,42,o),
(349,54,o),
(349,74,c),
(349,129,o),
(337,197,o),
(320,271,c),
(314,311,o),
(309,326,o),
(294,368,c),
(275,428,o),
(264,454,o),
(280,458,c),
(304,463,o),
(390,390,o),
(434,381,c),
(453,377,o),
(478,370,o),
(503,383,c),
(516,390,o),
(538,407,o),
(537,424,c),
(533,449,o),
(493,460,o),
(487,462,c),
(446,473,o),
(427,454,o),
(386,456,c),
(373,456,o),
(271,466,o),
(241,510,c),
(203,553,o),
(192,649,o),
(206,710,c),
(219,758,o),
(241,768,o),
(255,763,c),
(262,761,o),
(272,752,o),
(282,730,c),
(285,721,o),
(284,685,o),
(280,672,c),
(272,648,o),
(258,623,o),
(262,573,c),
(268,510,o),
(337,481,o),
(378,472,c),
(418,461,o),
(475,470,o),
(487,545,c),
(496,618,o),
(418,645,o),
(390,672,c),
(345,716,o),
(363,800,o),
(278,808,c),
(198,814,o),
(177,752,o),
(177,714,c),
(175,604,o),
(217,511,o),
(203,484,c),
(190,463,o),
(146,466,o),
(142,466,c),
(110,470,o),
(102,488,o),
(78,484,c),
(55,480,o),
(32,461,o),
(33,448,c),
(35,425,o),
(97,415,o),
(127,411,c),
(177,407,o),
(209,402,o),
(230,390,c),
(268,369,o),
(284,319,o),
(292,272,c),
(301,225,o),
(290,185,o),
(278,149,c),
(275,140,o),
(264,124,o),
(251,110,c),
(220,79,o),
(205,79,o),
(198,44,c),
(193,16,o),
(213,-11,o),
(240,-11,c),
(255,-11,o),
(274,-10,o),
(292,-2,c),
(302,2,o),
(319,14,o),
(329,27,c)
);
}
);
width = 570;
},
{
layerId = m003;
shapes = (
{
attr = {
fill = "1";
};
closed = 1;
nodes = (
(357,42,o),
(366,54,o),
(366,74,c),
(366,129,o),
(387,197,o),
(370,271,c),
(364,311,o),
(326,326,o),
(311,368,c),
(292,428,o),
(254,465,o),
(270,469,c),
(294,474,o),
(375,424,o),
(419,390,c),
(460,364,o),
(513,424,o),
(518,429,c),
(520,432,o),
(525,439,o),
(525,446,c),
(524,457,o),
(519,461,o),
(514,462,c),
(463,473,o),
(444,454,o),
(403,456,c),
(390,456,o),
(288,466,o),
(258,510,c),
(220,553,o),
(209,649,o),
(223,710,c),
(236,758,o),
(258,768,o),
(272,763,c),
(279,761,o),
(294,761,o),
(299,730,c),
(302,700,o),
(301,685,o),
(297,672,c),
(289,648,o),
(275,623,o),
(279,573,c),
(285,510,o),
(354,481,o),
(395,472,c),
(435,461,o),
(520,480,o),
(504,545,c),
(479,618,o),
(426,500,o),
(337,578,c),
(292,622,o),
(380,800,o),
(295,808,c),
(215,814,o),
(194,752,o),
(194,714,c),
(192,604,o),
(302,320,o),
(238,340,c),
(188,360,o),
(163,396,o),
(149,429,c),
(136,466,o),
(119,488,o),
(95,484,c),
(72,480,o),
(49,461,o),
(50,448,c),
(52,425,o),
(114,415,o),
(144,411,c),
(194,407,o),
(226,402,o),
(247,390,c),
(285,369,o),
(413,319,o),
(421,272,c),
(430,225,o),
(381,209,o),
(346,173,c),
(330,164,o),
(281,124,o),
(268,110,c),
(237,79,o),
(222,79,o),
(215,44,c),
(210,16,o),
(230,-11,o),
(257,-11,c),
(272,-11,o),
(291,-10,o),
(309,-2,c),
(319,2,o),
(336,14,o),
(346,27,c)
);
}
);
width = 565;
}
);
unicode = 70;
},
{
glyphname = G;
lastChange = "2025-10-03 14:00:33 +0000";
layers = (
{
layerId = m01;
shapes = (
{
attr = {
fill = "1";
};
closed = 1;
nodes = (
(202,-305,o),
(270,-302,o),
(322,-261,c),
(379,-207,o),
(399,-169,o),
(414,-86,c),
(425,27,o),
(432,104,o),
(432,104,c),
(435,143,o),
(460,331,o),
(392,435,c),
(377,457,o),
(361,484,o),
(305,499,c),
(281,505,o),
(257,505,o),
(247,505,c),
(231,505,o),
(188,500,o),
(149,461,c),
(111,422,o),
(107,402,o),
(96,329,c),
(94,268,o),
(55,215,o),
(106,160,c),
(135,132,o),
(198,101,o),
(252,115,c),
(275,123,o),
(291,130,o),
(309,154,c),
(322,169,o),
(326,180,o),
(337,200,c),
(346,218,o),
(370,280,o),
(379,275,c),
(396,272,o),
(413,243,o),
(400,113,c),
(386,-14,o),
(386,-95,o),
(346,-151,c),
(320,-188,o),
(288,-221,o),
(241,-203,c),
(218,-198,o),
(209,-180,o),
(206,-159,c),
(204,-127,o),
(211,-110,o),
(222,-91,c),
(234,-69,o),
(237,-55,o),
(234,-33,c),
(228,-6,o),
(218,7,o),
(205,19,c),
(171,50,o),
(105,49,o),
(67,-21,c),
(38,-82,o),
(46,-144,o),
(46,-121,c),
(52,-169,o),
(67,-238,o),
(142,-281,c)
);
},
{
attr = {
fill = "1";
};
closed = 1;
nodes = (
(169,180,o),
(166,191,o),
(166,202,c),
(169,220,o),
(181,231,o),
(193,251,c),
(206,273,o),
(197,301,o),
(209,334,c),
(215,354,o),
(226,371,o),
(252,377,c),
(274,385,o),
(296,370,o),
(309,355,c),
(336,318,o),
(315,257,o),
(289,221,c),
(257,183,o),
(199,158,o),
(179,173,c)
);
}
);
width = 499;
},
{
layerId = m002;
shapes = (
{
attr = {
fill = "1";
};
closed = 1;
nodes = (
(247,-311,o),
(308,-336,o),
(360,-256,c),
(389,-215,o),
(399,-189,o),
(404,-86,c),
(413,-10,o),
(409,100,o),
(409,100,c),
(409,193,o),
(361,312,o),
(329,243,c),
(273,138,o),
(292,390,o),
(256,460,c),
(232,496,o),
(220,510,o),
(200,510,c),
(174,510,o),
(137,496,o),
(122,449,c),
(96,372,o),
(116,354,o),
(116,268,c),
(114,182,o),
(26,205,o),
(67,67,c),
(96,-11,o),
(143,-15,o),
(197,5,c),
(220,16,o),
(236,25,o),
(254,59,c),
(267,79,o),
(271,96,o),
(282,123,c),
(291,149,o),
(318,176,o),
(341,182,c),
(364,184,o),
(387,193,o),
(387,71,c),
(385,-80,o),
(410,-94,o),
(376,-159,c),
(350,-205,o),
(325,-224,o),
(301,-223,c),
(278,-209,o),
(273,-182,o),
(276,-153,c),
(283,-110,o),
(295,-92,o),
(311,-75,c),
(330,-55,o),
(342,-48,o),
(343,-29,c),
(351,14,o),
(346,29,o),
(336,53,c),
(308,111,o),
(252,87,o),
(216,36,c),
(173,-21,o),
(228,-6,o),
(193,-64,c),
(152,-111,o),
(112,-228,o),
(187,-281,c)
);
},
{
attr = {
fill = "1";
};
closed = 1;
nodes = (
(152,92,o),
(149,104,o),
(149,116,c),
(152,134,o),
(161,146,o),
(170,166,c),
(179,189,o),
(172,217,o),
(181,251,c),
(186,274,o),
(194,290,o),
(213,296,c),
(230,304,o),
(246,289,o),
(256,275,c),
(276,237,o),
(260,172,o),
(241,137,c),
(217,96,o),
(174,70,o),
(159,86,c)
);
}
);
width = 485;
},
{
layerId = m003;
shapes = (
{
attr = {
fill = "1";
};
closed = 1;
nodes = (
(262,-310,o),
(286,-336,o),
(338,-256,c),
(367,-215,o),
(377,-189,o),
(382,-86,c),
(391,-10,o),
(387,100,o),
(387,100,c),
(387,193,o),
(339,312,o),
(307,243,c),
(251,138,o),
(270,390,o),
(234,460,c),
(214,500,o),
(198,510,o),
(178,510,c),
(152,510,o),
(170,461,o),
(175,403,c),
(181,326,o),
(219,311,o),
(219,225,c),
(217,139,o),
(4,205,o),
(45,67,c),
(74,-11,o),
(121,-15,o),
(175,5,c),
(198,16,o),
(214,25,o),
(232,59,c),
(245,79,o),
(249,96,o),
(260,123,c),
(269,149,o),
(296,176,o),
(319,182,c),
(342,184,o),
(365,193,o),
(365,71,c),
(363,-80,o),
(388,-94,o),
(354,-159,c),
(328,-205,o),
(314,-244,o),
(279,-223,c),
(256,-209,o),
(251,-182,o),
(254,-153,c),
(261,-110,o),
(387,-115,o),
(412,-103,c),
(439,-90,o),
(443,-76,o),
(444,-57,c),
(452,-14,o),
(362,36,o),
(314,53,c),
(267,67,o),
(230,87,o),
(194,36,c),
(151,-21,o),
(326,-10,o),
(280,-52,c),
(167,-139,o),
(223,-235,o),
(245,-285,c)
);
},
{
attr = {
fill = "1";
};
closed = 1;
nodes = (
(130,92,o),
(127,104,o),
(127,116,c),
(130,134,o),
(139,146,o),
(148,166,c),
(157,189,o),
(150,217,o),
(159,251,c),
(164,274,o),
(172,290,o),
(191,296,c),
(208,304,o),
(224,289,o),
(234,275,c),
(254,237,o),
(238,172,o),
(219,137,c),
(195,96,o),
(152,70,o),
(137,86,c)
);
}
);
width = 495;
}
);
unicode = 71;
},
{
glyphname = H;
lastChange = "2025-10-03 14:00:33 +0000";
layers = (
{
background = {
shapes = (
{
attr = {
fill = "1";
strokeWidth = 10;
};
closed = 1;
nodes = (
(102,489,o),
(110,508,o),
(105,588,c),
(99,663,o),
(76,719,o),
(102,766,c),
(129,815,o),
(156,824,o),
(197,810,c),
(240,794,o),
(243,760,o),
(242,724,c),
(228,647,o),
(221,646,o),
(184,588,c),
(158,544,o),
(112,399,o),
(150,364,c),
(167,352,o),
(211,455,o),
(234,489,c),
(262,533,o),
(250,508,o),
(293,585,c),
(336,661,o),
(385,706,o),
(443,694,c),
(477,687,o),
(513,656,o),
(516,621,c),
(519,570,o),
(424,550,o),
(374,518,c),
(309,478,o),
(239,418,o),
(243,402,c),
(248,392,o),
(324,493,o),
(395,455,c),
(456,417,o),
(432,333,o),
(380,256,c),
(358,218,o),
(365,194,o),
(378,173,c),
(403,136,o),
(424,116,o),
(438,93,c),
(456,62,o),
(452,7,o),
(425,-7,c),
(384,-26,o),
(358,-20,o),
(328,-7,c),
(324,-4,o),
(305,10,o),
(294,32,c),
(285,54,o),
(283,82,o),
(296,135,c),
(306,174,o),
(335,229,o),
(323,263,c),
(312,293,o),
(300,316,o),
(280,320,c),
(269,323,o),
(216,311,o),
(211,265,c),
(194,139,o),
(259,169,o),
(268,87,c),
(270,11,o),
(227,-2,o),
(176,-13,c),
(124,-19,o),
(101,-8,o),
(75,27,c),
(67,36,o),
(56,84,o),
(59,117,c),
(59,173,o),
(90,222,o),
(102,291,c),
(106,321,o),
(91,361,o),
(93,400,c)
);
}
);
};
layerId = m01;
shapes = (
{
attr = {
fill = "1";
};
closed = 1;
nodes = (
(96,476,o),
(111,547,o),
(107,597,c),
(102,657,o),
(73,708,o),
(102,766,c),
(110,782,o),
(127,810,o),
(158,815,c),
(192,821,o),
(216,797,o),
(227,777,c),
(255,723,o),
(230,658,o),
(184,588,c),
(165,559,o),
(149,531,o),
(135,461,c),
(129,418,o),
(135,376,o),
(150,364,c),
(164,356,o),
(185,358,o),
(203,370,c),
(253,410,o),
(243,402,o),
(285,437,c),
(307,452,o),
(348,471,o),
(380,458,c),
(427,442,o),
(433,391,o),
(417,334,c),
(389,259,o),
(354,243,o),
(375,173,c),
(388,133,o),
(427,123,o),
(442,71,c),
(447,56,o),
(450,30,o),
(433,3,c),
(411,-30,o),
(340,-27,o),
(305,13,c),
(271,54,o),
(288,116,o),
(291,126,c),
(300,154,o),
(300,154,o),
(314,186,c),
(327,216,o),
(331,239,o),
(319,270,c),
(311,289,o),
(306,310,o),
(273,314,c),
(255,317,o),
(196,303,o),
(184,262,c),
(170,190,o),
(195,184,o),
(238,123,c),
(253,93,o),
(261,74,o),
(255,34,c),
(247,8,o),
(221,-7,o),
(207,-12,c),
(176,-18,o),
(145,-30,o),
(104,-1,c),
(73,22,o),
(68,57,o),
(63,85,c),
(61,95,o),
(56,147,o),
(70,192,c),
(87,249,o),
(88,242,o),
(98,270,c),
(111,317,o),
(85,322,o),
(90,392,c)
);
}
);
width = 516;
},
{
background = {
shapes = (
{
attr = {
fill = "1";
strokeWidth = 10;
};
closed = 1;
nodes = (
(121,489,o),
(129,508,o),
(124,588,c),
(118,663,o),
(95,719,o),
(121,766,c),
(148,815,o),
(175,824,o),
(216,810,c),
(259,794,o),
(262,760,o),
(261,724,c),
(247,647,o),
(240,646,o),
(203,588,c),
(177,544,o),
(131,399,o),
(169,364,c),
(186,352,o),
(230,455,o),
(253,489,c),
(281,533,o),
(269,508,o),
(312,585,c),
(355,661,o),
(404,706,o),
(462,694,c),
(496,687,o),
(532,656,o),
(535,621,c),
(538,570,o),
(443,550,o),
(393,518,c),
(328,478,o),
(258,418,o),
(262,402,c),
(267,392,o),
(343,493,o),
(414,455,c),
(475,417,o),
(451,333,o),
(399,256,c),
(377,218,o),
(384,194,o),
(397,173,c),
(422,136,o),
(443,116,o),
(457,93,c),
(475,62,o),
(471,7,o),
(444,-7,c),
(403,-26,o),
(377,-20,o),
(347,-7,c),
(343,-4,o),
(324,10,o),
(313,32,c),
(304,54,o),
(302,82,o),
(315,135,c),
(325,174,o),
(354,229,o),
(342,263,c),
(331,293,o),
(319,316,o),
(299,320,c),
(288,323,o),
(235,311,o),
(230,265,c),
(213,139,o),
(278,169,o),
(287,87,c),
(289,11,o),
(246,-2,o),
(195,-13,c),
(143,-19,o),
(120,-8,o),
(94,27,c),
(86,36,o),
(75,84,o),
(78,117,c),
(78,173,o),
(109,222,o),
(121,291,c),
(125,321,o),
(110,361,o),
(112,400,c)
);
}
);
};
layerId = m002;
shapes = (
{
attr = {
fill = "1";
};
closed = 1;
nodes = (
(251,607,o),
(241,570,o),
(272,633,c),
(292,698,o),
(269,768,o),
(312,796,c),
(323,806,o),
(346,819,o),
(368,807,c),
(393,795,o),
(399,764,o),
(398,743,c),
(393,688,o),
(387,632,o),
(301,587,c),
(265,568,o),
(267,563,o),
(232,476,c),
(214,423,o),
(124,370,o),
(141,354,c),
(156,343,o),
(180,346,o),
(200,362,c),
(257,416,o),
(237,409,o),
(284,446,c),
(309,468,o),
(355,491,o),
(391,468,c),
(426,446,o),
(451,398,o),
(433,336,c),
(401,257,o),
(375,271,o),
(399,196,c),
(413,153,o),
(457,142,o),
(474,87,c),
(480,71,o),
(483,44,o),
(464,14,c),
(439,-20,o),
(359,-16,o),
(320,25,c),
(282,68,o),
(282,100,o),
(304,146,c),
(320,175,o),
(347,176,o),
(363,211,c),
(377,243,o),
(382,267,o),
(368,299,c),
(359,320,o),
(323,344,o),
(284,344,c),
(250,344,o),
(204,336,o),
(190,282,c),
(179,223,o),
(144,207,o),
(171,144,c),
(181,114,o),
(190,98,o),
(182,52,c),
(177,25,o),
(160,10,o),
(151,4,c),
(132,-8,o),
(111,-16,o),
(84,16,c),
(65,39,o),
(63,76,o),
(59,105,c),
(55,131,o),
(54,169,o),
(63,215,c),
(89,293,o),
(97,272,o),
(108,320,c),
(123,416,o),
(190,427,o),
(214,495,c)
);
}
);
width = 535;
},
{
background = {
shapes = (
{
attr = {
fill = "1";
strokeWidth = 10;
};
closed = 1;
nodes = (
(121,489,o),
(129,508,o),
(124,588,c),
(118,663,o),
(95,719,o),
(121,766,c),
(148,815,o),
(175,824,o),
(216,810,c),
(259,794,o),
(262,760,o),
(261,724,c),
(247,647,o),
(240,646,o),
(203,588,c),
(177,544,o),
(131,399,o),
(169,364,c),
(186,352,o),
(230,455,o),
(253,489,c),
(281,533,o),
(269,508,o),
(312,585,c),
(355,661,o),
(404,706,o),
(462,694,c),
(496,687,o),
(532,656,o),
(535,621,c),
(538,570,o),
(443,550,o),
(393,518,c),
(328,478,o),
(258,418,o),
(262,402,c),
(267,392,o),
(343,493,o),
(414,455,c),
(475,417,o),
(451,333,o),
(399,256,c),
(377,218,o),
(384,194,o),
(397,173,c),
(422,136,o),
(443,116,o),
(457,93,c),
(475,62,o),
(471,7,o),
(444,-7,c),
(403,-26,o),
(377,-20,o),
(347,-7,c),
(343,-4,o),
(324,10,o),
(313,32,c),
(304,54,o),
(302,82,o),
(315,135,c),
(325,174,o),
(354,229,o),
(342,263,c),
(331,293,o),
(319,316,o),
(299,320,c),
(288,323,o),
(235,311,o),
(230,265,c),
(213,139,o),
(278,169,o),
(287,87,c),
(289,11,o),
(246,-2,o),
(195,-13,c),
(143,-19,o),
(120,-8,o),
(94,27,c),
(86,36,o),
(75,84,o),
(78,117,c),
(78,173,o),
(109,222,o),
(121,291,c),
(125,321,o),
(110,361,o),
(112,400,c)
);
}
);
};
layerId = m003;
shapes = (
{
attr = {
fill = "1";
};
closed = 1;
nodes = (
(429,511,o),
(360,561,o),
(344,681,c),
(344,761,o),
(307,755,o),
(320,789,c),
(331,807,o),
(346,819,o),
(368,807,c),
(393,795,o),
(399,764,o),
(398,743,c),
(393,688,o),
(347,650,o),
(301,587,c),
(265,530,o),
(250,471,o),
(232,426,c),
(214,373,o),
(74,235,o),
(157,148,c),
(179,122,o),
(196,140,o),
(216,156,c),
(273,210,o),
(237,409,o),
(284,446,c),
(309,468,o),
(355,491,o),
(391,468,c),
(426,446,o),
(451,398,o),
(433,336,c),
(401,257,o),
(375,271,o),
(399,196,c),
(413,153,o),
(457,142,o),
(474,87,c),
(480,71,o),
(483,44,o),
(464,14,c),
(439,-20,o),
(359,-16,o),
(320,25,c),
(282,68,o),
(282,100,o),
(304,146,c),
(320,175,o),
(347,176,o),
(363,211,c),
(377,243,o),
(382,267,o),
(368,299,c),
(359,320,o),
(323,344,o),
(284,344,c),
(250,344,o),
(204,336,o),
(190,282,c),
(179,223,o),
(66,230,o),
(93,167,c),
(103,137,o),
(190,98,o),
(182,52,c),
(177,25,o),
(160,10,o),
(151,4,c),
(132,-8,o),
(111,-16,o),
(84,16,c),
(65,39,o),
(63,76,o),
(59,105,c),
(55,131,o),
(54,169,o),
(63,215,c),
(80,293,o),
(97,272,o),
(108,320,c),
(123,416,o),
(368,331,o),
(392,399,c)
);
}
);
width = 535;
}
);
unicode = 72;
},
{
glyphname = I;
lastChange = "2025-10-03 14:00:33 +0000";
layers = (
{
background = {
shapes = (
{
attr = {
fill = "1";
strokeWidth = 10;
};
closed = 1;
nodes = (
(265,703,o),
(265,680,c),
(265,650,o),
(254,624,o),
(236,615,c),
(229,612,o),
(221,606,o),
(215,598,c),
(211,595,o),
(203,568,o),
(211,547,c),
(214,537,o),
(216,525,o),
(227,522,c),
(237,520,o),
(241,519,o),
(265,511,c),
(296,496,o),
(286,473,o),
(286,429,c),
(286,387,o),
(279,349,o),
(273,239,c),
(267,114,o),
(259,78,o),
(262,12,c),
(266,-58,o),
(285,-99,o),
(282,-160,c),
(277,-205,o),
(265,-228,o),
(230,-260,c),
(192,-296,o),
(130,-305,o),
(102,-305,c),
(-12,-305,o),
(-99,-257,o),
(-132,-205,c),
(-173,-149,o),
(-174,-104,o),
(-171,-40,c),
(-161,64,o),
(-87,94,o),
(-22,96,c),
(45,96,o),
(71,64,o),
(85,33,c),
(101,-2,o),
(97,-28,o),
(90,-58,c),
(76,-116,o),
(32,-137,o),
(39,-174,c),
(39,-174,o),
(42,-186,o),
(51,-191,c),
(61,-195,o),
(67,-195,o),
(78,-191,c),
(105,-182,o),
(128,-154,o),
(130,-116,c),
(134,-74,o),
(122,88,o),
(121,102,c),
(112,195,o),
(103,286,o),
(96,368,c),
(89,438,o),
(78,459,o),
(105,491,c),
(129,518,o),
(165,515,o),
(171,525,c),
(173,528,o),
(166,546,o),
(165,569,c),
(163,609,o),
(154,545,o),
(108,591,c),
(96,602,o),
(90,624,o),
(92,644,c),
(95,688,o),
(141,709,o),
(174,718,c),
(245,736,o)
);
}
);
};
layerId = m01;
shapes = (
{
attr = {
fill = "1";
};
closed = 1;
nodes = (
(107,606,o),
(105,599,o),
(89,612,c),
(87,614,o),
(65,634,o),
(65,661,c),
(64,685,o),
(77,711,o),
(105,714,c),
(117,716,o),
(126,711,o),
(154,704,c),
(167,701,o),
(172,696,o),
(179,693,c),
(194,684,o),
(207,670,o),
(207,655,c),
(208,629,o),
(197,617,o),
(181,608,c),
(166,602,o),
(165,599,o),
(161,591,c),
(156,582,o),
(154,570,o),
(156,558,cs),
(160,540,o),
(161,536,o),
(167,523,c),
(173,516,o),
(181,515,o),
(194,511,c),
(208,507,o),
(210,507,o),
(220,500,c),
(238,488,o),
(242,450,o),
(232,362,c),
(225,285,o),
(221,292,o),
(215,237,c),
(211,165,o),
(208,128,o),
(214,97,c),
(215,93,o),
(223,74,o),
(222,49,c),
(221,27,o),
(219,7,o),
(203,-5,c),
(194,-12,o),
(172,-16,o),
(147,-15,c),
(131,-15,o),
(113,-15,o),
(102,-12,c),
(81,-7,o),
(64,9,o),
(60,31,c),
(57,46,o),
(65,59,o),
(68,68,c),
(68,68,o),
(69,70,o),
(105,172,c),
(133,255,o),
(113,341,o),
(111,351,c),
(106,376,o),
(99,384,o),
(87,448,c),
(81,473,o),
(81,484,o),
(94,496,c),
(104,506,o),
(109,508,o),
(115,515,c),
(117,517,o),
(125,527,o),
(123,546,c),
(121,571,o),
(122,587,o),
(117,595,c)
);
}
);
width = 287;
},
{
layerId = m002;
shapes = (
{
attr = {
fill = "1";
};
closed = 1;
nodes = (
(173,527,o),
(165,531,o),
(159,537,c),
(158,540,o),
(149,547,o),
(149,562,c),
(148,574,o),
(155,590,o),
(168,590,c),
(176,588,o),
(178,585,o),
(182,573,c),
(188,564,o),
(194,570,o),
(200,566,c),
(208,563,o),
(209,559,o),
(214,551,c),
(217,545,o),
(214,540,o),
(208,532,c),
(199,527,o),
(197,527,o),
(193,522,c),
(188,518,o),
(170,513,o),
(170,500,cs),
(170,490,o),
(177,488,o),
(188,481,c),
(196,476,o),
(197,480,o),
(208,476,c),
(218,473,o),
(218,473,o),
(228,464,c),
(240,454,o),
(243,416,o),
(236,328,c),
(228,254,o),
(223,260,o),
(218,214,c),
(214,160,o),
(195,157,o),
(212,132,cs),
(228,109,o),
(275,94,o),
(274,68,c),
(272,46,o),
(222,36,o),
(205,22,c),
(194,16,o),
(183,7,o),
(155,-2,c),
(143,-5,o),
(137,-11,o),
(120,-8,c),
(93,-1,o),
(77,14,o),
(73,37,c),
(69,52,o),
(73,80,o),
(93,94,c),
(127,118,o),
(149,101,o),
(176,150,cs),
(219,231,o),
(209,281,o),
(193,331,cs),
(183,359,o),
(181,371,o),
(166,411,cs),
(156,433,o),
(138,433,o),
(147,460,c),
(153,478,o),
(159,474,o),
(171,474,c),
(200,469,o),
(168,482,o),
(165,495,c),
(165,513,o),
(172,516,o),
(173,522,c)
);
}
);
width = 342;
},
{
layerId = m003;
shapes = (
{
attr = {
fill = "1";
};
closed = 1;
nodes = (
(160,527,o),
(152,531,o),
(146,537,c),
(145,540,o),
(136,547,o),
(136,562,c),
(135,574,o),
(142,590,o),
(155,590,c),
(163,588,o),
(148,575,o),
(152,563,c),
(158,554,o),
(163,559,o),
(170,556,c),
(178,553,o),
(178,553,o),
(189,546,c),
(195,543,o),
(199,535,o),
(193,530,c),
(184,525,o),
(185,525,o),
(180,522,c),
(170,515,o),
(157,513,o),
(157,500,cs),
(157,490,o),
(164,488,o),
(175,481,c),
(183,476,o),
(184,480,o),
(195,476,c),
(205,473,o),
(205,473,o),
(215,464,c),
(227,454,o),
(230,416,o),
(223,328,c),
(215,254,o),
(224,264,o),
(219,218,c),
(215,164,o),
(101,125,o),
(126,115,cs),
(176,95,o),
(266,233,o),
(281,184,c),
(291,152,o),
(251,74,o),
(163,62,c),
(116,53,o),
(170,33,o),
(142,-2,c),
(130,-11,o),
(124,-11,o),
(107,-8,c),
(80,-1,o),
(64,14,o),
(60,37,c),
(56,52,o),
(94,59,o),
(114,73,c),
(148,97,o),
(211,103,o),
(238,152,cs),
(281,233,o),
(271,283,o),
(255,333,cs),
(245,361,o),
(168,371,o),
(153,411,cs),
(143,433,o),
(125,433,o),
(134,460,c),
(140,478,o),
(146,474,o),
(158,474,c),
(187,469,o),
(155,482,o),
(152,495,c),
(152,513,o),
(159,516,o),
(160,522,c)
);
}
);
width = 329;
}
);
unicode = 73;
},
{
glyphname = J;
lastChange = "2025-10-03 14:00:33 +0000";
layers = (
{
layerId = m01;
shapes = (
{
attr = {
fill = "1";
};
closed = 1;
nodes = (
(430,695,o),
(433,661,c),
(433,631,o),
(433,622,o),
(412,607,c),
(403,600,o),
(393,596,o),
(387,585,c),
(383,577,o),
(383,557,o),
(391,536,c),
(394,526,o),
(396,514,o),
(407,511,c),
(417,509,o),
(421,508,o),
(445,500,c),
(476,476,o),
(460,431,o),
(453,365,c),
(444,307,o),
(437,274,o),
(430,180,c),
(428,107,o),
(437,68,o),
(437,1,c),
(437,-73,o),
(436,-107,o),
(424,-156,c),
(409,-208,o),
(404,-218,o),
(375,-250,c),
(337,-286,o),
(267,-296,o),
(239,-296,c),
(125,-296,o),
(105,-267,o),
(68,-215,c),
(55,-193,o),
(38,-162,o),
(40,-82,c),
(43,-22,o),
(73,35,o),
(139,38,c),
(206,38,o),
(217,11,o),
(225,-20,c),
(231,-55,o),
(229,-75,o),
(205,-110,c),
(198,-129,o),
(194,-142,o),
(202,-167,c),
(209,-186,o),
(210,-190,o),
(226,-199,c),
(257,-211,o),
(274,-208,o),
(289,-202,c),
(309,-192,o),
(338,-184,o),
(354,-82,c),
(362,-22,o),
(360,17,o),
(355,90,c),
(348,166,o),
(346,229,o),
(339,311,c),
(332,381,o),
(297,437,o),
(305,469,c),
(315,500,o),
(345,504,o),
(351,514,c),
(353,517,o),
(363,552,o),
(353,575,c),
(344,601,o),
(339,580,o),
(316,602,c),
(304,613,o),
(287,635,o),
(289,655,c),
(293,688,o),
(310,695,o),
(354,707,c),
(396,713,o)
);
}
);
width = 523;
},
{
layerId = m002;
shapes = (
{
attr = {
fill = "1";
};
closed = 1;
nodes = (
(185,573,o),
(192,553,c),
(196,535,o),
(197,529,o),
(189,516,c),
(185,510,o),
(179,506,o),
(178,498,c),
(177,493,o),
(186,467,o),
(232,475,c),
(250,477,o),
(252,477,o),
(264,472,c),
(279,467,o),
(279,467,o),
(304,454,c),
(338,434,o),
(345,361,o),
(357,307,c),
(372,245,o),
(372,161,o),
(365,51,c),
(363,-22,o),
(334,-54,o),
(334,-120,c),
(334,-189,o),
(333,-220,o),
(321,-249,c),
(306,-281,o),
(301,-288,o),
(272,-307,c),
(208,-328,o),
(148,-227,o),
(152,-146,c),
(153,-64,o),
(72,-102,o),
(62,-61,c),
(58,-44,o),
(56,-22,o),
(86,28,c),
(109,68,o),
(152,100,o),
(204,78,c),
(254,57,o),
(253,35,o),
(248,14,c),
(242,-9,o),
(232,-13,o),
(201,-37,c),
(190,-47,o),
(182,-54,o),
(179,-72,c),
(178,-86,o),
(186,-88,o),
(184,-124,c),
(180,-203,o),
(208,-255,o),
(227,-261,c),
(243,-267,o),
(276,-269,o),
(292,-201,c),
(300,-146,o),
(277,-134,o),
(298,-36,c),
(334,76,o),
(345,94,o),
(312,213,c),
(281,302,o),
(226,346,o),
(218,385,c),
(212,408,o),
(210,425,o),
(210,443,c),
(209,460,o),
(172,477,o),
(162,486,c),
(153,495,o),
(145,491,o),
(139,497,c),
(131,502,o),
(119,512,o),
(117,525,c),
(114,547,o),
(122,553,o),
(144,568,c),
(165,579,o)
);
}
);
width = 450;
},
{
layerId = m003;
shapes = (
{
attr = {
fill = "1";
};
closed = 1;
nodes = (
(87,549,o),
(92,535,c),
(95,523,o),
(95,518,o),
(90,509,c),
(87,505,o),
(83,503,o),
(82,497,c),
(101,493,o),
(110,467,o),
(156,475,c),
(174,477,o),
(179,480,o),
(191,475,c),
(206,467,o),
(219,464,o),
(219,429,c),
(216,352,o),
(240,281,o),
(271,227,c),
(295,172,o),
(296,161,o),
(289,51,c),
(287,-22,o),
(258,-54,o),
(258,-120,c),
(258,-189,o),
(257,-220,o),
(245,-249,c),
(230,-281,o),
(225,-288,o),
(196,-307,c),
(132,-328,o),
(72,-227,o),
(76,-146,c),
(77,-100,o),
(73,-101,o),
(69,-72,c),
(65,-55,o),
(68,-46,o),
(98,4,c),
(121,44,o),
(136,86,o),
(174,76,c),
(216,69,o),
(260,28,o),
(255,7,c),
(249,-16,o),
(156,-13,o),
(125,-37,c),
(114,-47,o),
(106,-54,o),
(103,-72,c),
(102,-86,o),
(110,-88,o),
(108,-124,c),
(104,-203,o),
(132,-255,o),
(151,-261,c),
(167,-267,o),
(200,-269,o),
(216,-201,c),
(224,-146,o),
(201,-134,o),
(222,-36,c),
(277,76,o),
(336,458,o),
(271,416,c),
(189,356,o),
(344,-22,o),
(142,385,c),
(136,408,o),
(134,425,o),
(134,443,c),
(133,460,o),
(96,477,o),
(86,486,c),
(65,495,o),
(62,494,o),
(50,498,c),
(45,502,o),
(41,507,o),
(40,516,c),
(38,531,o),
(44,535,o),
(59,545,c),
(73,553,o)
);
}
);
width = 370;
}
);
unicode = 74;
},
{
glyphname = K;
lastChange = "2025-10-03 14:00:33 +0000";
layers = (
{
background = {
shapes = (
{
attr = {
fill = "1";
strokeWidth = 20;
};
closed = 1;
nodes = (
(108,476,o),
(123,547,o),
(119,597,c),
(114,657,o),
(85,708,o),
(114,766,c),
(122,782,o),
(139,810,o),
(170,815,c),
(204,821,o),
(228,797,o),
(239,777,c),
(267,723,o),
(242,658,o),
(196,588,c),
(177,559,o),
(172,531,o),
(158,461,c),
(152,418,o),
(147,376,o),
(162,364,c),
(176,356,o),
(197,358,o),
(215,370,c),
(265,410,o),
(255,402,o),
(297,437,c),
(319,452,o),
(360,471,o),
(392,458,c),
(439,442,o),
(445,391,o),
(429,334,c),
(401,259,o),
(366,243,o),
(387,173,c),
(400,133,o),
(439,123,o),
(454,71,c),
(459,56,o),
(462,30,o),
(445,3,c),
(423,-30,o),
(352,-27,o),
(317,13,c),
(283,54,o),
(300,116,o),
(303,126,c),
(312,154,o),
(312,154,o),
(326,186,c),
(339,216,o),
(338,239,o),
(326,270,c),
(318,289,o),
(302,317,o),
(285,314,c),
(273,312,o),
(267,287,o),
(264,273,c),
(252,225,o),
(266,197,o),
(276,117,c),
(282,59,o),
(279,44,o),
(270,29,c),
(256,6,o),
(233,-2,o),
(219,-7,c),
(188,-13,o),
(157,-30,o),
(116,-1,c),
(85,22,o),
(80,57,o),
(75,85,c),
(73,95,o),
(68,147,o),
(82,192,c),
(99,249,o),
(100,242,o),
(110,270,c),
(123,317,o),
(97,322,o),
(102,392,c)
);
}
);
};
layerId = m01;
shapes = (
{
attr = {
fill = "1";
};
closed = 1;
nodes = (
(109,489,o),
(117,508,o),
(117,588,c),
(111,663,o),
(88,719,o),
(114,766,c),
(141,815,o),
(168,824,o),
(209,810,c),
(252,794,o),
(255,760,o),
(254,724,c),
(240,647,o),
(214,644,o),
(177,559,c),
(141,474,o),
(136,399,o),
(162,364,c),
(179,352,o),
(206,412,o),
(223,447,c),
(235,470,o),
(249,498,o),
(281,557,c),
(295,585,o),
(326,636,o),
(380,632,c),
(418,635,o),
(450,594,o),
(453,559,c),
(456,508,o),
(361,488,o),
(311,456,c),
(276,433,o),
(251,407,o),
(255,402,c),
(260,392,o),
(313,440,o),
(377,412,c),
(417,387,o),
(427,326,o),
(392,256,c),
(370,218,o),
(377,194,o),
(390,173,c),
(415,136,o),
(436,116,o),
(450,93,c),
(468,62,o),
(464,7,o),
(437,-7,c),
(396,-26,o),
(354,-16,o),
(340,-7,c),
(333,-4,o),
(317,10,o),
(306,32,c),
(297,54,o),
(295,82,o),
(308,135,c),
(318,174,o),
(347,229,o),
(335,263,c),
(324,293,o),
(312,316,o),
(292,320,c),
(281,323,o),
(207,313,o),
(199,255,c),
(182,151,o),
(247,159,o),
(256,77,c),
(257,31,o),
(239,-2,o),
(188,-13,c),
(136,-19,o),
(113,-8,o),
(87,27,c),
(79,36,o),
(68,84,o),
(71,117,c),
(71,173,o),
(102,222,o),
(114,291,c),
(117,329,o),
(97,338,o),
(100,400,c)
);
}
);
width = 521;
},
{
layerId = m002;
shapes = (
{
attr = {
fill = "1";
};
closed = 1;
nodes = (
(153,581,o),
(133,635,o),
(115,690,c),
(95,738,o),
(68,742,o),
(78,774,c),
(96,823,o),
(121,811,o),
(139,803,c),
(172,787,o),
(187,784,o),
(187,725,c),
(186,667,o),
(214,548,o),
(197,485,c),
(183,420,o),
(138,355,o),
(182,335,c),
(210,326,o),
(215,348,o),
(235,372,c),
(274,428,o),
(247,464,o),
(272,505,c),
(287,529,o),
(311,535,o),
(342,535,c),
(378,535,o),
(414,493,o),
(405,459,c),
(388,383,o),
(336,437,o),
(288,411,c),
(253,388,o),
(250,340,o),
(265,339,c),
(311,329,o),
(375,434,o),
(418,412,c),
(458,387,o),
(428,284,o),
(383,271,c),
(358,263,o),
(355,254,o),
(366,234,c),
(383,207,o),
(397,192,o),
(406,176,c),
(418,153,o),
(415,113,o),
(397,102,c),
(370,88,o),
(342,96,o),
(333,102,c),
(328,105,o),
(312,115,o),
(304,131,c),
(294,147,o),
(287,168,o),
(296,206,c),
(304,236,o),
(321,250,o),
(353,281,c),
(383,313,o),
(353,316,o),
(333,320,c),
(306,326,o),
(248,313,o),
(240,255,c),
(223,151,o),
(312,154,o),
(321,72,c),
(322,26,o),
(280,-2,o),
(229,-13,c),
(177,-19,o),
(154,-8,o),
(128,27,c),
(116,41,o),
(112,84,o),
(112,117,c),
(112,267,o),
(115,316,o),
(131,420,c),
(140,481,o),
(145,454,o),
(150,548,c)
);
}
);
width = 517;
},
{
layerId = m003;
shapes = (
{
attr = {
fill = "1";
};
closed = 1;
nodes = (
(185,581,o),
(185,635,o),
(167,690,c),
(147,738,o),
(67,742,o),
(77,774,c),
(95,823,o),
(120,811,o),
(138,803,c),
(171,787,o),
(186,784,o),
(186,725,c),
(185,667,o),
(213,548,o),
(196,485,c),
(182,420,o),
(31,301,o),
(65,255,c),
(113,209,o),
(166,271,o),
(199,316,c),
(238,372,o),
(246,464,o),
(271,505,c),
(286,529,o),
(310,535,o),
(341,535,c),
(377,535,o),
(413,493,o),
(404,459,c),
(387,383,o),
(324,456,o),
(287,411,c),
(247,359,o),
(258,264,o),
(280,259,c),
(338,248,o),
(374,434,o),
(417,412,c),
(457,387,o),
(427,284,o),
(382,271,c),
(357,263,o),
(354,254,o),
(365,234,c),
(382,207,o),
(396,192,o),
(405,176,c),
(417,153,o),
(414,137,o),
(396,102,c),
(365,56,o),
(331,57,o),
(292,82,c),
(287,85,o),
(271,95,o),
(263,111,c),
(253,127,o),
(246,148,o),
(255,186,c),
(263,216,o),
(331,247,o),
(363,278,c),
(393,310,o),
(352,316,o),
(332,320,c),
(305,326,o),
(247,313,o),
(239,255,c),
(222,151,o),
(388,197,o),
(397,115,c),
(398,69,o),
(247,158,o),
(246,7,c),
(240,-31,o),
(156,-7,o),
(156,56,c),
(156,90,o),
(213,131,o),
(213,199,c),
(213,316,o),
(149,316,o),
(165,420,c),
(174,481,o),
(177,454,o),
(182,548,c)
);
}
);
width = 516;
}
);
unicode = 75;
},
{
glyphname = L;
lastChange = "2025-10-03 14:00:33 +0000";
layers = (
{
layerId = m01;
shapes = (
{
attr = {
fill = "1";
};
closed = 1;
nodes = (
(94,643,o),
(93,684,o),
(94,710,c),
(95,747,o),
(94,766,o),
(109,785,c),
(120,800,o),
(144,818,o),
(167,814,c),
(203,809,o),
(226,779,o),
(230,752,c),
(235,719,o),
(225,687,o),
(194,632,c),
(179,591,o),
(154,570,o),
(144,508,c),
(137,461,o),
(131,415,o),
(131,363,c),
(131,328,o),
(131,284,o),
(167,212,c),
(192,144,o),
(271,162,o),
(273,75,c),
(273,26,o),
(254,8,o),
(226,-7,c),
(195,-22,o),
(151,-18,o),
(120,0,c),
(72,31,o),
(60,81,o),
(60,157,c),
(64,242,o),
(95,296,o),
(95,364,c),
(97,482,o),
(99,500,o),
(96,597,c)
);
}
);
width = 323;
},
{
layerId = m002;
shapes = (
{
attr = {
fill = "1";
};
closed = 1;
nodes = (
(104,643,o),
(103,678,o),
(102,703,c),
(99,740,o),
(99,758,o),
(108,779,c),
(113,792,o),
(128,811,o),
(142,808,c),
(164,806,o),
(197,779,o),
(203,752,c),
(213,719,o),
(203,689,o),
(169,632,c),
(155,591,o),
(136,570,o),
(132,509,c),
(130,461,o),
(137,428,o),
(130,366,c),
(123,324,o),
(100,184,o),
(112,141,c),
(129,99,o),
(173,114,o),
(177,56,c),
(179,23,o),
(170,11,o),
(155,0,c),
(136,-11,o),
(111,-11,o),
(92,0,c),
(64,17,o),
(55,51,o),
(52,101,c),
(51,158,o),
(103,302,o),
(102,365,c),
(106,482,o),
(105,504,o),
(104,589,c)
);
}
);
width = 261;
},
{
layerId = m003;
shapes = (
{
attr = {
fill = "1";
};
closed = 1;
nodes = (
(104,643,o),
(103,678,o),
(102,703,c),
(99,740,o),
(99,758,o),
(108,779,c),
(113,792,o),
(128,811,o),
(142,808,c),
(164,806,o),
(197,779,o),
(203,752,c),
(213,719,o),
(165,731,o),
(131,647,c),
(117,606,o),
(136,570,o),
(132,509,c),
(130,461,o),
(154,410,o),
(142,329,c),
(135,287,o),
(74,113,o),
(86,70,c),
(103,28,o),
(169,309,o),
(173,251,c),
(175,218,o),
(170,11,o),
(155,0,c),
(136,-11,o),
(111,-11,o),
(92,0,c),
(64,17,o),
(27,51,o),
(52,101,c),
(89,196,o),
(193,211,o),
(213,314,c),
(232,482,o),
(105,504,o),
(104,589,c)
);
}
);
width = 285;
}
);
unicode = 76;
},
{
glyphname = M;
lastChange = "2025-10-03 14:00:33 +0000";
layers = (
{
layerId = m01;
shapes = (
{
attr = {
fill = "1";
};
closed = 1;
nodes = (
(203,342,o),
(198,321,o),
(180,280,c),
(155,215,o),
(94,212,o),
(69,154,c),
(58,112,o),
(54,79,o),
(74,51,c),
(82,35,o),
(109,26,o),
(162,9,c),
(217,-6,o),
(227,-7,o),
(247,-2,c),
(273,6,o),
(283,23,o),
(285,48,c),
(285,63,o),
(281,70,o),
(270,95,c),
(253,132,o),
(247,169,o),
(247,193,c),
(248,218,o),
(263,268,o),
(283,294,c),
(286,297,o),
(298,310,o),
(305,308,c),
(313,303,o),
(314,276,o),
(309,256,c),
(303,229,o),
(285,212,o),
(281,192,c),
(276,171,o),
(285,144,o),
(298,128,c),
(327,100,o),
(382,111,o),
(414,139,c),
(447,168,o),
(451,186,o),
(482,233,c),
(496,254,o),
(525,328,o),
(566,323,c),
(600,317,o),
(626,291,o),
(633,249,c),
(638,195,o),
(635,166,o),
(623,111,c),
(616,81,o),
(578,48,o),
(610,19,c),
(639,-2,o),
(689,6,o),
(713,38,c),
(735,69,o),
(730,99,o),
(725,123,c),
(718,145,o),
(702,166,o),
(682,188,c),
(662,215,o),
(643,241,o),
(662,335,c),
(665,348,o),
(687,394,o),
(687,426,c),
(686,462,o),
(665,486,o),
(628,501,c),
(585,518,o),
(541,484,o),
(534,477,c),
(501,444,o),
(502,424,o),
(460,338,c),
(411,242,o),
(380,238,o),
(374,238,c),
(344,238,o),
(332,275,o),
(328,291,c),
(316,336,o),
(316,349,o),
(302,413,c),
(295,460,o),
(285,495,o),
(263,502,c),
(237,511,o),
(212,496,o),
(197,464,c),
(188,440,o),
(203,411,o),
(203,368,c)
);
}
);
width = 779;
},
{
layerId = m002;
shapes = (
{
attr = {
fill = "1";
};
closed = 1;
nodes = (
(242,339,o),
(198,309,o),
(177,263,c),
(152,197,o),
(166,144,o),
(104,118,c),
(41,90,o),
(4,80,o),
(25,51,c),
(41,23,o),
(60,26,o),
(113,9,c),
(167,-6,o),
(177,-7,o),
(198,-2,c),
(224,7,o),
(234,23,o),
(235,49,c),
(235,64,o),
(232,71,o),
(221,96,c),
(204,133,o),
(198,157,o),
(198,195,c),
(198,220,o),
(214,271,o),
(234,297,c),
(237,300,o),
(249,313,o),
(257,311,c),
(264,306,o),
(265,279,o),
(260,258,c),
(254,231,o),
(235,214,o),
(232,194,c),
(227,173,o),
(235,145,o),
(249,129,c),
(278,101,o),
(330,92,o),
(364,131,c),
(390,157,o),
(369,225,o),
(393,266,c),
(404,284,o),
(450,396,o),
(508,367,c),
(537,352,o),
(545,318,o),
(546,298,c),
(551,251,o),
(559,225,o),
(549,176,c),
(544,140,o),
(524,69,o),
(571,66,c),
(596,66,o),
(608,93,o),
(615,112,c),
(622,131,o),
(618,165,o),
(615,186,c),
(608,207,o),
(596,225,o),
(581,245,c),
(565,268,o),
(556,285,o),
(559,304,c),
(561,316,o),
(577,356,o),
(577,385,c),
(577,417,o),
(561,438,o),
(532,451,c),
(498,466,o),
(480,451,o),
(458,430,c),
(432,401,o),
(434,383,o),
(400,308,c),
(362,222,o),
(344,220,o),
(325,225,c),
(295,231,o),
(283,278,o),
(279,294,c),
(268,340,o),
(268,352,o),
(253,417,c),
(247,465,o),
(235,500,o),
(214,507,c),
(188,516,o),
(162,501,o),
(147,469,c),
(117,398,o),
(204,415,o),
(227,367,c)
);
}
);
width = 644;
},
{
layerId = m003;
shapes = (
{
attr = {
fill = "1";
};
closed = 1;
nodes = (
(263,339,o),
(219,309,o),
(198,263,c),
(173,197,o),
(187,144,o),
(125,118,c),
(62,90,o),
(25,80,o),
(46,51,c),
(62,23,o),
(81,26,o),
(134,9,c),
(188,-6,o),
(198,-7,o),
(219,-2,c),
(245,7,o),
(255,23,o),
(256,49,c),
(256,64,o),
(253,71,o),
(242,96,c),
(225,133,o),
(136,150,o),
(137,225,c),
(145,388,o),
(291,389,o),
(311,415,c),
(314,418,o),
(326,431,o),
(334,429,c),
(353,423,o),
(348,398,o),
(337,376,c),
(319,338,o),
(256,214,o),
(253,194,c),
(248,173,o),
(256,145,o),
(270,129,c),
(299,101,o),
(351,92,o),
(385,131,c),
(411,157,o),
(319,275,o),
(354,316,c),
(409,388,o),
(471,396,o),
(529,367,c),
(558,352,o),
(566,318,o),
(567,298,c),
(572,251,o),
(580,225,o),
(570,176,c),
(565,140,o),
(545,69,o),
(592,66,c),
(617,66,o),
(629,93,o),
(636,112,c),
(643,131,o),
(617,139,o),
(605,160,c),
(587,187,o),
(590,198,o),
(587,255,c),
(587,291,o),
(587,300,o),
(586,320,c),
(585,344,o),
(564,365,o),
(572,398,c),
(575,417,o),
(582,438,o),
(553,451,c),
(519,466,o),
(501,451,o),
(479,430,c),
(453,401,o),
(455,383,o),
(421,308,c),
(383,222,o),
(365,220,o),
(346,225,c),
(316,231,o),
(304,278,o),
(300,294,c),
(289,340,o),
(289,352,o),
(274,417,c),
(263,465,o),
(256,500,o),
(235,507,c),
(209,516,o),
(183,501,o),
(168,469,c),
(138,398,o),
(225,415,o),
(248,367,c)
);
}
);
width = 697;
}
);
unicode = 77;
},
{
glyphname = N;
lastChange = "2025-10-03 14:00:33 +0000";
layers = (
{
layerId = m01;
shapes = (
{
attr = {
fill = "1";
};
closed = 1;
nodes = (
(138,463,o),
(116,443,o),
(104,411,c),
(93,383,o),
(98,371,o),
(92,335,c),
(86,280,o),
(76,279,o),
(67,208,c),
(61,169,o),
(57,148,o),
(62,119,c),
(65,92,o),
(64,50,o),
(89,26,c),
(112,4,o),
(140,-2,o),
(152,-3,c),
(161,-4,o),
(191,-8,o),
(222,17,c),
(248,41,o),
(230,72,o),
(218,114,c),
(198,177,o),
(158,258,o),
(154,300,c),
(148,355,o),
(196,418,o),
(214,435,c),
(250,464,o),
(279,463,o),
(282,462,c),
(297,460,o),
(305,442,o),
(308,435,c),
(318,404,o),
(297,358,o),
(272,225,c),
(267,197,o),
(262,177,o),
(262,147,c),
(262,125,o),
(262,116,o),
(264,95,c),
(268,61,o),
(271,46,o),
(284,26,c),
(295,11,o),
(303,5,o),
(318,0,c),
(328,-4,o),
(370,-22,o),
(418,12,c),
(449,36,o),
(453,72,o),
(455,85,c),
(461,123,o),
(449,151,o),
(437,181,c),
(392,296,o),
(419,304,o),
(376,383,c),
(352,432,o),
(327,478,o),
(278,497,c),
(271,500,o),
(219,516,o),
(172,492,c),
(159,486,o),
(149,475,o),
(145,469,c)
);
}
);
width = 542;
},
{
layerId = m002;
shapes = (
{
attr = {
fill = "1";
};
closed = 1;
nodes = (
(104,459,o),
(88,448,o),
(76,415,c),
(65,387,o),
(66,375,o),
(64,338,c),
(61,281,o),
(84,275,o),
(75,204,c),
(69,165,o),
(70,149,o),
(70,113,c),
(72,86,o),
(84,43,o),
(97,20,c),
(104,9,o),
(106,4,o),
(125,-6,c),
(145,-14,o),
(165,-8,o),
(196,16,c),
(222,41,o),
(204,73,o),
(192,114,c),
(172,178,o),
(138,258,o),
(128,304,c),
(115,359,o),
(111,423,o),
(162,467,c),
(198,496,o),
(249,489,o),
(252,489,c),
(266,486,o),
(286,473,o),
(287,451,c),
(286,335,o),
(156,359,o),
(157,261,c),
(157,222,o),
(181,188,o),
(208,177,c),
(244,159,o),
(264,191,o),
(279,170,c),
(291,141,o),
(260,128,o),
(264,70,c),
(266,43,o),
(284,35,o),
(302,14,c),
(319,-7,o),
(361,-23,o),
(394,11,c),
(414,43,o),
(365,54,o),
(370,85,c),
(376,124,o),
(426,130,o),
(414,182,c),
(387,265,o),
(260,159,o),
(287,296,c),
(301,370,o),
(401,462,o),
(253,502,c),
(204,511,o),
(196,511,o),
(151,493,c),
(139,486,o),
(118,470,o),
(111,466,c)
);
}
);
width = 462;
},
{
layerId = m003;
shapes = (
{
attr = {
fill = "1";
};
closed = 1;
nodes = (
(100,459,o),
(84,448,o),
(72,415,c),
(61,387,o),
(62,375,o),
(60,338,c),
(57,281,o),
(153,249,o),
(144,178,c),
(138,139,o),
(90,157,o),
(78,91,c),
(72,64,o),
(80,43,o),
(93,20,c),
(100,9,o),
(102,4,o),
(121,-6,c),
(141,-14,o),
(161,-8,o),
(192,16,c),
(218,41,o),
(234,89,o),
(222,130,c),
(202,194,o),
(134,258,o),
(124,304,c),
(111,359,o),
(107,423,o),
(158,467,c),
(194,496,o),
(245,489,o),
(248,489,c),
(262,486,o),
(282,473,o),
(283,451,c),
(282,335,o),
(93,350,o),
(94,252,c),
(94,213,o),
(175,212,o),
(222,230,c),
(280,252,o),
(337,338,o),
(395,276,c),
(458,184,o),
(256,128,o),
(260,70,c),
(262,43,o),
(280,35,o),
(298,14,c),
(315,-7,o),
(357,-23,o),
(390,11,c),
(410,43,o),
(361,54,o),
(366,85,c),
(372,124,o),
(422,130,o),
(410,182,c),
(383,265,o),
(256,159,o),
(283,296,c),
(297,370,o),
(397,462,o),
(249,502,c),
(200,511,o),
(192,511,o),
(147,493,c),
(135,486,o),
(114,470,o),
(107,466,c)
);
}
);
width = 462;
}
);
unicode = 78;
},
{
glyphname = O;
lastChange = "2025-10-03 14:00:33 +0000";
layers = (
{
layerId = m01;
shapes = (
{
attr = {
fill = "1";
};
closed = 1;
nodes = (
(269,-15,o),
(355,2,o),
(387,38,c),
(395,47,o),
(395,51,o),
(412,76,c),
(444,124,o),
(445,127,o),
(454,135,c),
(479,161,o),
(497,159,o),
(517,178,c),
(548,210,o),
(545,233,o),
(541,293,c),
(527,449,o),
(458,485,o),
(382,503,c),
(359,507,o),
(334,508,o),
(303,503,c),
(293,500,o),
(270,495,o),
(248,485,c),
(236,478,o),
(229,476,o),
(207,459,c),
(191,443,o),
(179,426,o),
(178,399,c),
(176,385,o),
(170,373,o),
(163,358,c),
(152,338,o),
(151,338,o),
(138,322,c),
(118,300,o),
(99,289,o),
(90,281,c),
(34,239,o),
(52,158,o),
(54,144,c),
(58,130,o),
(84,25,o),
(200,-1,c)
);
},
{
attr = {
fill = "1";
};
closed = 1;
nodes = (
(234,92,o),
(189,145,o),
(186,190,c),
(184,217,o),
(189,242,o),
(201,266,c),
(210,283,o),
(212,289,o),
(220,308,c),
(226,322,o),
(237,335,o),
(253,348,c),
(268,359,o),
(292,366,o),
(304,366,c),
(343,367,o),
(368,360,o),
(396,332,c),
(408,322,o),
(423,298,o),
(423,266,c),
(423,245,o),
(420,242,o),
(417,207,c),
(412,185,o),
(417,173,o),
(409,156,c),
(401,139,o),
(389,124,o),
(373,112,c),
(340,83,o),
(293,87,o),
(292,87,c)
);
}
);
width = 583;
},
{
layerId = m002;
shapes = (
{
attr = {
fill = "1";
};
closed = 1;
nodes = (
(241,-15,o),
(326,-17,o),
(362,20,c),
(372,31,o),
(383,36,o),
(386,67,cs),
(391,90,o),
(373,114,o),
(383,130,c),
(404,173,o),
(432,156,o),
(455,175,c),
(488,208,o),
(458,233,o),
(455,296,c),
(438,456,o),
(407,485,o),
(355,504,c),
(312,513,o),
(302,507,o),
(268,507,c),
(256,507,o),
(235,504,o),
(211,485,c),
(202,476,o),
(193,465,o),
(181,441,c),
(172,414,o),
(173,399,o),
(172,371,c),
(168,357,o),
(163,343,o),
(155,329,c),
(142,306,o),
(141,306,o),
(126,291,c),
(110,269,o),
(102,262,o),
(61,236,c),
(21,210,o),
(41,164,o),
(42,150,c),
(48,135,o),
(100,23,o),
(165,11,c)
);
},
{
attr = {
fill = "1";
};
closed = 1;
nodes = (
(201,158,o),
(197,195,o),
(187,216,c),
(165,263,o),
(197,285,o),
(220,306,c),
(235,321,o),
(240,329,o),
(259,343,c),
(271,357,o),
(287,366,o),
(308,373,c),
(326,382,o),
(352,381,o),
(362,374,c),
(396,363,o),
(414,346,o),
(426,306,c),
(438,268,o),
(426,247,o),
(391,227,c),
(351,212,o),
(339,227,o),
(313,202,c),
(292,177,o),
(301,175,o),
(303,143,c),
(300,117,o),
(286,109,o),
(271,104,c),
(238,91,o),
(214,128,o),
(214,128,c)
);
}
);
width = 511;
},
{
layerId = m003;
shapes = (
{
attr = {
fill = "1";
};
closed = 1;
nodes = (
(251,-27,o),
(307,-17,o),
(349,20,c),
(359,31,o),
(373,36,o),
(373,67,cs),
(373,102,o),
(293,129,o),
(321,182,c),
(342,225,o),
(419,156,o),
(442,175,c),
(475,208,o),
(430,273,o),
(316,285,c),
(260,287,o),
(341,409,o),
(333,462,c),
(316,508,o),
(289,507,o),
(255,507,c),
(243,507,o),
(222,504,o),
(198,485,c),
(189,476,o),
(180,465,o),
(168,441,c),
(159,414,o),
(182,402,o),
(198,365,c),
(204,351,o),
(203,333,o),
(181,323,c),
(144,305,o),
(174,261,o),
(157,252,c),
(133,237,o),
(70,269,o),
(70,229,c),
(70,184,o),
(199,234,o),
(213,191,c),
(229,133,o),
(177,102,o),
(217,28,c)
);
},
{
attr = {
fill = "1";
};
closed = 1;
nodes = (
(230,216,o),
(225,234,o),
(218,248,c),
(204,278,o),
(204,286,o),
(219,310,c),
(230,329,o),
(243,337,o),
(253,346,c),
(268,360,o),
(289,372,o),
(301,399,c),
(330,476,o),
(339,388,o),
(349,374,c),
(373,341,o),
(401,346,o),
(413,306,c),
(425,268,o),
(432,221,o),
(378,227,c),
(353,228,o),
(333,264,o),
(306,211,c),
(298,177,o),
(312,102,o),
(308,78,c),
(306,61,o),
(289,47,o),
(272,58,c),
(243,83,o),
(236,191,o),
(236,191,c)
);
}
);
width = 523;
}
);
unicode = 79;
},
{
glyphname = P;
lastChange = "2025-10-03 14:00:33 +0000";
layers = (
{
layerId = m01;
shapes = (
{
attr = {
fill = "1";
};
closed = 1;
nodes = (
(101,427,o),
(109,359,o),
(111,344,c),
(115,308,o),
(124,311,o),
(128,277,c),
(133,232,o),
(122,221,o),
(120,173,c),
(120,121,o),
(132,120,o),
(134,68,c),
(136,15,o),
(125,-24,o),
(117,-46,c),
(96,-119,o),
(71,-127,o),
(64,-183,c),
(60,-214,o),
(54,-255,o),
(80,-284,c),
(109,-313,o),
(157,-312,o),
(192,-296,c),
(236,-278,o),
(252,-239,o),
(260,-193,c),
(260,-178,o),
(262,-171,o),
(255,-114,c),
(246,-79,o),
(228,-64,o),
(202,0,c),
(183,68,o),
(161,110,o),
(159,173,c),
(159,188,o),
(159,200,o),
(168,210,c),
(188,224,o),
(225,181,o),
(279,177,c),
(287,177,o),
(366,166,o),
(420,213,c),
(450,240,o),
(477,266,o),
(486,339,c),
(492,405,o),
(450,443,o),
(415,464,c),
(377,484,o),
(327,470,o),
(272,493,c),
(231,510,o),
(210,510,o),
(182,505,c),
(162,501,o),
(150,486,o),
(140,475,c)
);
},
{
attr = {
fill = "1";
};
closed = 1;
nodes = (
(285,370,o),
(294,359,o),
(323,355,c),
(359,351,o),
(369,365,o),
(392,357,c),
(413,351,o),
(431,329,o),
(430,308,c),
(427,280,o),
(388,263,o),
(363,259,c),
(329,255,o),
(288,267,o),
(272,299,c),
(260,322,o),
(260,356,o),
(273,364,c)
);
}
);
width = 552;
},
{
layerId = m002;
shapes = (
{
attr = {
fill = "1";
};
closed = 1;
nodes = (
(100,405,o),
(99,341,o),
(101,318,c),
(105,264,o),
(110,259,o),
(118,217,c),
(126,170,o),
(91,116,o),
(129,64,c),
(151,31,o),
(170,38,o),
(196,-4,c),
(211,-30,o),
(217,-52,o),
(216,-72,c),
(213,-129,o),
(186,-154,o),
(191,-222,c),
(194,-275,o),
(211,-287,o),
(232,-302,c),
(259,-318,o),
(286,-302,o),
(305,-260,c),
(327,-203,o),
(327,-129,o),
(323,-104,c),
(320,-90,o),
(317,-71,o),
(303,-37,c),
(290,-7,o),
(266,27,o),
(229,55,c),
(194,81,o),
(175,67,o),
(155,99,c),
(133,135,o),
(146,210,o),
(155,228,c),
(176,261,o),
(180,160,o),
(240,64,c),
(263,39,o),
(322,3,o),
(364,74,c),
(394,124,o),
(421,170,o),
(430,291,c),
(436,390,o),
(399,447,o),
(359,447,c),
(311,447,o),
(287,381,o),
(232,416,c),
(200,437,o),
(211,506,o),
(181,511,c),
(161,511,o),
(149,493,o),
(139,478,c)
);
},
{
attr = {
fill = "1";
};
closed = 1;
nodes = (
(260,344,o),
(268,334,o),
(293,330,c),
(325,327,o),
(333,341,o),
(352,332,c),
(370,327,o),
(385,302,o),
(384,282,c),
(381,248,o),
(349,168,o),
(327,166,c),
(299,159,o),
(263,241,o),
(250,273,c),
(240,297,o),
(240,332,o),
(251,341,c)
);
}
);
width = 516;
},
{
layerId = m003;
shapes = (
{
attr = {
fill = "1";
};
closed = 1;
nodes = (
(100,405,o),
(99,341,o),
(101,318,c),
(105,264,o),
(110,259,o),
(118,217,c),
(126,170,o),
(91,116,o),
(129,64,c),
(151,31,o),
(236,54,o),
(255,7,c),
(270,-25,o),
(272,-56,o),
(271,-76,c),
(268,-133,o),
(186,-154,o),
(191,-222,c),
(194,-275,o),
(211,-287,o),
(232,-302,c),
(259,-318,o),
(281,-295,o),
(291,-253,c),
(299,-207,o),
(293,-174,o),
(299,-125,c),
(303,-84,o),
(305,-76,o),
(303,-37,c),
(303,-2,o),
(277,36,o),
(247,83,c),
(222,141,o),
(194,119,o),
(155,136,c),
(94,161,o),
(40,224,o),
(70,257,c),
(105,288,o),
(180,160,o),
(240,64,c),
(263,39,o),
(322,3,o),
(364,74,c),
(394,124,o),
(395,170,o),
(404,291,c),
(410,390,o),
(399,447,o),
(359,447,c),
(311,447,o),
(275,186,o),
(220,221,c),
(188,242,o),
(211,506,o),
(181,511,c),
(161,511,o),
(149,493,o),
(139,478,c)
);
},
{
attr = {
fill = "1";
};
closed = 1;
nodes = (
(265,349,o),
(268,334,o),
(293,330,c),
(325,327,o),
(333,341,o),
(352,332,c),
(370,327,o),
(385,302,o),
(384,282,c),
(381,248,o),
(349,168,o),
(327,166,c),
(299,159,o),
(263,241,o),
(250,273,c),
(240,297,o),
(240,332,o),
(251,341,c)
);
}
);
width = 476;
}
);
unicode = 80;
},
{
glyphname = Q;
lastChange = "2025-10-03 14:00:33 +0000";
layers = (
{
layerId = m01;
shapes = (
{
attr = {
fill = "1";
};
closed = 1;
nodes = (
(355,-261,o),
(341,-269,o),
(399,-216,c),
(444,-176,o),
(470,-182,o),
(507,-132,c),
(534,-90,o),
(548,-29,o),
(513,19,c),
(479,62,o),
(374,47,o),
(376,-60,c),
(377,-117,o),
(356,-177,o),
(344,-195,c),
(332,-216,o),
(318,-234,o),
(305,-229,c),
(292,-222,o),
(295,-39,o),
(319,37,c),
(356,155,o),
(374,163,o),
(409,247,c),
(452,384,o),
(362,476,o),
(288,494,c),
(199,516,o),
(159,507,o),
(118,448,c),
(98,415,o),
(98,400,o),
(87,350,c),
(75,305,o),
(63,269,o),
(65,246,c),
(69,162,o),
(109,130,o),
(162,124,c),
(218,120,o),
(247,147,o),
(266,193,c),
(288,241,o),
(292,243,o),
(300,260,c),
(308,273,o),
(317,288,o),
(333,277,c),
(351,256,o),
(326,232,o),
(295,110,c),
(273,20,o),
(258,-125,o),
(243,-223,c),
(233,-313,o),
(303,-302,o),
(330,-285,c)
);
},
{
attr = {
fill = "1";
};
closed = 1;
nodes = (
(166,215,o),
(135,220,o),
(125,239,c),
(115,259,o),
(127,264,o),
(138,317,c),
(150,369,o),
(145,389,o),
(163,402,c),
(172,407,o),
(186,413,o),
(198,406,c),
(226,390,o),
(226,313,o),
(224,302,c),
(221,272,o),
(210,237,o),
(185,224,c)
);
}
);
width = 574;
},
{
layerId = m002;
shapes = (
{
attr = {
fill = "1";
};
closed = 1;
nodes = (
(358,-268,o),
(366,-238,o),
(398,-183,c),
(432,-133,o),
(447,-140,o),
(470,-69,c),
(487,-20,o),
(496,41,o),
(474,89,c),
(453,132,o),
(387,117,o),
(388,10,c),
(389,-47,o),
(390,-136,o),
(377,-188,c),
(365,-226,o),
(351,-244,o),
(338,-237,c),
(293,-218,o),
(296,-13,o),
(320,69,c),
(357,204,o),
(368,199,o),
(393,256,c),
(451,385,o),
(371,503,o),
(297,508,c),
(225,508,o),
(174,470,o),
(144,397,c),
(128,352,o),
(124,342,o),
(113,285,c),
(101,234,o),
(89,212,o),
(91,166,c),
(95,70,o),
(135,34,o),
(188,27,c),
(244,22,o),
(273,53,o),
(292,106,c),
(314,161,o),
(293,223,o),
(309,261,c),
(317,276,o),
(326,293,o),
(342,280,c),
(360,256,o),
(335,229,o),
(304,90,c),
(293,18,o),
(271,-58,o),
(256,-199,c),
(246,-328,o),
(312,-328,o),
(343,-288,c)
);
},
{
attr = {
fill = "1";
};
closed = 1;
nodes = (
(237,89,o),
(215,94,o),
(207,121,c),
(199,146,o),
(208,151,o),
(216,220,c),
(226,289,o),
(221,316,o),
(235,331,c),
(241,339,o),
(252,346,o),
(262,337,c),
(281,317,o),
(281,216,o),
(281,202,c),
(281,151,o),
(270,117,o),
(251,100,c)
);
}
);
width = 572;
},
{
layerId = m003;
shapes = (
{
attr = {
fill = "1";
};
closed = 1;
nodes = (
(334,-189,o),
(185,-70,o),
(382,-9,c),
(415,5,o),
(412,49,o),
(407,123,c),
(405,175,o),
(392,235,o),
(354,272,c),
(318,304,o),
(293,268,o),
(347,181,c),
(384,122,o),
(420,7,o),
(445,-30,c),
(469,-70,o),
(441,-92,o),
(427,-90,c),
(188,-102,o),
(237,-13,o),
(261,69,c),
(298,204,o),
(309,199,o),
(334,256,c),
(392,385,o),
(312,503,o),
(238,508,c),
(166,508,o),
(141,471,o),
(133,393,c),
(128,335,o),
(133,330,o),
(122,273,c),
(110,222,o),
(70,210,o),
(70,159,c),
(69,105,o),
(78,31,o),
(129,27,c),
(185,22,o),
(308,8,o),
(327,61,c),
(349,116,o),
(234,223,o),
(250,261,c),
(258,276,o),
(267,293,o),
(283,280,c),
(301,256,o),
(276,229,o),
(245,90,c),
(234,18,o),
(212,-58,o),
(197,-199,c),
(187,-328,o),
(253,-328,o),
(284,-288,c)
);
},
{
attr = {
fill = "1";
};
closed = 1;
nodes = (
(214,66,o),
(163,70,o),
(148,121,c),
(140,146,o),
(153,181,o),
(157,220,c),
(167,289,o),
(162,316,o),
(176,331,c),
(182,339,o),
(193,346,o),
(203,337,c),
(222,317,o),
(222,216,o),
(222,202,c),
(222,151,o),
(247,94,o),
(228,77,c)
);
}
);
width = 514;
}
);
unicode = 81;
},
{
glyphname = R;
lastChange = "2025-10-03 14:00:33 +0000";
layers = (
{
layerId = m01;
shapes = (
{
attr = {
fill = "1";
};
closed = 1;
nodes = (
(74,360,o),
(64,376,o),
(62,408,c),
(62,430,o),
(64,457,o),
(82,483,c),
(103,508,o),
(123,518,o),
(160,516,c),
(167,516,o),
(195,508,o),
(205,489,c),
(215,470,o),
(209,433,o),
(193,413,c),
(149,361,o),
(144,358,o),
(125,333,c),
(112,315,o),
(112,304,o),
(115,297,c),
(117,291,o),
(122,284,o),
(127,285,c),
(144,286,o),
(149,308,o),
(159,333,c),
(182,379,o),
(197,405,o),
(227,443,c),
(269,497,o),
(328,507,o),
(354,511,c),
(376,515,o),
(418,518,o),
(450,497,c),
(459,492,o),
(467,483,o),
(471,472,c),
(478,443,o),
(471,410,o),
(450,393,c),
(427,374,o),
(404,368,o),
(378,364,c),
(342,360,o),
(293,378,o),
(252,356,c),
(182,330,o),
(149,224,o),
(144,178,c),
(143,104,o),
(198,128,o),
(214,68,c),
(218,52,o),
(220,30,o),
(205,10,c),
(180,-20,o),
(120,-18,o),
(89,4,c),
(53,33,o),
(52,77,o),
(50,115,c),
(48,162,o),
(54,201,o),
(58,223,c),
(65,261,o),
(75,283,o),
(75,332,c)
);
}
);
width = 514;
},
{
layerId = m002;
shapes = (
{
attr = {
fill = "1";
};
closed = 1;
nodes = (
(88,327,o),
(78,343,o),
(77,373,c),
(73,403,o),
(82,438,o),
(103,463,c),
(123,486,o),
(141,495,o),
(176,493,c),
(182,493,o),
(210,486,o),
(218,469,c),
(227,451,o),
(221,415,o),
(185,410,c),
(100,389,o),
(115,356,o),
(118,331,c),
(120,304,o),
(130,292,o),
(134,285,c),
(139,279,o),
(148,268,o),
(155,268,c),
(171,269,o),
(168,289,o),
(174,315,c),
(179,345,o),
(202,362,o),
(229,404,c),
(264,470,o),
(300,493,o),
(336,505,c),
(348,510,o),
(387,514,o),
(412,489,c),
(424,475,o),
(424,470,o),
(428,461,c),
(442,419,o),
(425,394,o),
(410,374,c),
(388,352,o),
(362,357,o),
(336,356,c),
(311,351,o),
(266,366,o),
(235,343,c),
(190,319,o),
(190,239,o),
(171,176,c),
(158,121,o),
(225,208,o),
(267,135,c),
(298,78,o),
(263,38,o),
(241,21,c),
(213,-7,o),
(116,-18,o),
(103,9,c),
(72,63,o),
(125,76,o),
(123,110,c),
(120,155,o),
(120,172,o),
(123,193,c),
(130,243,o),
(89,256,o),
(89,303,c)
);
}
);
width = 435;
},
{
layerId = m003;
shapes = (
{
attr = {
fill = "1";
};
closed = 1;
nodes = (
(106,331,o),
(61,343,o),
(60,373,c),
(56,403,o),
(146,420,o),
(167,445,c),
(187,468,o),
(155,479,o),
(178,493,c),
(192,500,o),
(212,486,o),
(220,469,c),
(229,451,o),
(223,415,o),
(187,410,c),
(102,389,o),
(117,356,o),
(120,331,c),
(122,304,o),
(128,302,o),
(132,295,c),
(137,289,o),
(149,279,o),
(157,268,c),
(175,242,o),
(193,163,o),
(218,170,c),
(282,200,o),
(204,362,o),
(231,404,c),
(266,470,o),
(302,493,o),
(338,505,c),
(350,510,o),
(389,514,o),
(414,489,c),
(426,475,o),
(426,470,o),
(430,461,c),
(444,419,o),
(433,386,o),
(392,389,c),
(337,404,o),
(349,423,o),
(300,422,c),
(253,417,o),
(186,396,o),
(155,373,c),
(110,349,o),
(205,163,o),
(204,108,c),
(205,60,o),
(218,117,o),
(258,91,c),
(289,76,o),
(265,38,o),
(243,21,c),
(215,-7,o),
(104,-21,o),
(105,9,c),
(105,71,o),
(146,21,o),
(167,106,c),
(177,148,o),
(164,165,o),
(157,195,c),
(146,243,o),
(124,260,o),
(113,307,c)
);
}
);
width = 496;
}
);
unicode = 82;
},
{
glyphname = S;
lastChange = "2025-10-03 14:00:33 +0000";
layers = (
{
layerId = m01;
shapes = (
{
attr = {
fill = "1";
};
closed = 1;
nodes = (
(250,392,o),
(250,376,o),
(256,358,c),
(263,336,o),
(282,330,o),
(293,327,c),
(341,316,o),
(369,335,o),
(381,369,c),
(397,410,o),
(381,446,o),
(351,475,c),
(311,505,o),
(282,509,o),
(203,502,c),
(182,497,o),
(127,487,o),
(102,440,c),
(99,434,o),
(75,390,o),
(97,347,c),
(109,321,o),
(135,296,o),
(151,287,c),
(164,280,o),
(181,274,o),
(220,267,c),
(262,260,o),
(287,260,o),
(311,256,c),
(323,252,o),
(406,245,o),
(410,170,c),
(413,109,o),
(365,54,o),
(314,40,c),
(260,22,o),
(212,63,o),
(204,83,c),
(196,107,o),
(199,130,o),
(197,172,c),
(196,211,o),
(176,239,o),
(158,249,c),
(152,253,o),
(121,267,o),
(79,248,c),
(41,230,o),
(36,203,o),
(33,186,c),
(21,132,o),
(52,83,o),
(60,70,c),
(85,32,o),
(147,7,o),
(161,4,c),
(265,-21,o),
(357,3,o),
(405,65,c),
(433,101,o),
(442,143,o),
(440,180,c),
(440,184,o),
(436,221,o),
(405,251,c),
(381,271,o),
(365,279,o),
(317,298,c),
(225,333,o),
(205,340,o),
(196,355,c),
(190,365,o),
(185,385,o),
(197,397,c),
(207,406,o),
(220,405,o),
(231,402,c)
);
}
);
width = 480;
},
{
layerId = m002;
shapes = (
{
attr = {
fill = "1";
};
closed = 1;
nodes = (
(230,399,o),
(230,382,o),
(236,363,c),
(242,340,o),
(262,334,o),
(272,330,c),
(320,318,o),
(348,339,o),
(361,374,c),
(377,417,o),
(361,455,o),
(331,486,c),
(290,518,o),
(250,508,o),
(227,496,c),
(194,475,o),
(205,449,o),
(170,417,c),
(137,384,o),
(82,422,o),
(82,351,c),
(83,317,o),
(113,297,o),
(130,288,c),
(143,280,o),
(160,274,o),
(200,266,c),
(227,263,o),
(241,263,o),
(257,260,c),
(265,258,o),
(318,253,o),
(319,203,c),
(321,161,o),
(291,124,o),
(259,115,c),
(230,112,o),
(219,135,o),
(213,153,c),
(207,171,o),
(209,190,o),
(207,223,c),
(205,248,o),
(187,285,o),
(165,297,c),
(159,302,o),
(120,319,o),
(70,296,c),
(41,281,o),
(37,234,o),
(43,204,c),
(52,161,o),
(102,171,o),
(133,125,c),
(164,77,o),
(136,68,o),
(158,22,c),
(182,-22,o),
(259,-15,o),
(318,53,c),
(346,91,o),
(353,126,o),
(368,173,c),
(377,204,o),
(388,231,o),
(369,258,c),
(345,279,o),
(299,247,o),
(250,268,c),
(159,304,o),
(160,329,o),
(158,352,c),
(158,376,o),
(165,390,o),
(177,404,c),
(186,414,o),
(200,412,o),
(210,409,c)
);
}
);
width = 430;
},
{
layerId = m003;
shapes = (
{
attr = {
fill = "1";
};
closed = 1;
nodes = (
(215,399,o),
(215,382,o),
(221,363,c),
(227,340,o),
(235,329,o),
(257,340,c),
(282,351,o),
(278,364,o),
(291,399,c),
(307,442,o),
(322,443,o),
(316,486,c),
(307,525,o),
(235,508,o),
(212,496,c),
(179,475,o),
(190,449,o),
(155,417,c),
(122,384,o),
(67,422,o),
(67,351,c),
(68,317,o),
(98,297,o),
(115,288,c),
(128,280,o),
(145,274,o),
(185,266,c),
(212,263,o),
(226,263,o),
(242,260,c),
(250,258,o),
(303,253,o),
(304,203,c),
(306,161,o),
(276,124,o),
(244,115,c),
(215,112,o),
(204,135,o),
(198,153,c),
(192,171,o),
(227,187,o),
(225,220,c),
(223,245,o),
(172,285,o),
(150,297,c),
(144,302,o),
(105,319,o),
(55,296,c),
(26,281,o),
(44,234,o),
(67,210,c),
(102,174,o),
(147,204,o),
(178,158,c),
(209,110,o),
(121,68,o),
(143,22,c),
(167,-22,o),
(210,0,o),
(269,68,c),
(297,106,o),
(338,126,o),
(353,173,c),
(362,204,o),
(373,231,o),
(354,258,c),
(330,279,o),
(261,137,o),
(212,158,c),
(121,194,o),
(145,329,o),
(143,352,c),
(143,376,o),
(150,390,o),
(162,404,c),
(171,414,o),
(185,412,o),
(195,409,c)
);
}
);
width = 424;
}
);
unicode = 83;
},
{
glyphname = T;
lastChange = "2025-10-03 14:00:33 +0000";
layers = (
{
layerId = m01;
shapes = (
{
attr = {
fill = "1";
};
closed = 1;
nodes = (
(217,445,o),
(249,443,o),
(259,435,c),
(269,425,o),
(263,387,o),
(247,299,c),
(243,276,o),
(232,251,o),
(219,190,c),
(211,141,o),
(207,92,o),
(232,55,c),
(273,-2,o),
(315,-1,o),
(365,-5,c),
(390,-5,o),
(441,-1,o),
(485,57,c),
(488,61,o),
(543,133,o),
(510,207,c),
(495,240,o),
(474,256,o),
(443,259,c),
(434,261,o),
(399,264,o),
(382,248,c),
(372,239,o),
(361,226,o),
(362,203,c),
(362,186,o),
(371,172,o),
(373,157,c),
(375,142,o),
(375,138,o),
(374,122,c),
(373,104,o),
(366,89,o),
(357,82,c),
(334,60,o),
(290,64,o),
(269,113,c),
(256,153,o),
(277,236,o),
(294,302,c),
(311,401,o),
(311,432,o),
(327,436,c),
(343,439,o),
(380,430,o),
(394,424,c),
(420,412,o),
(443,388,o),
(487,384,c),
(507,383,o),
(530,384,o),
(549,400,c),
(562,412,o),
(565,430,o),
(557,448,c),
(552,459,o),
(534,467,o),
(520,466,c),
(486,467,o),
(488,448,o),
(430,456,c),
(400,461,o),
(390,464,o),
(349,475,c),
(330,479,o),
(328,481,o),
(322,487,c),
(312,497,o),
(313,535,o),
(314,543,c),
(318,609,o),
(327,637,o),
(327,637,c),
(341,687,o),
(341,731,o),
(334,756,c),
(327,785,o),
(296,802,o),
(281,806,c),
(263,811,o),
(217,811,o),
(198,782,c),
(176,741,o),
(228,716,o),
(262,648,c),
(276,618,o),
(274,593,o),
(274,542,c),
(272,506,o),
(276,482,o),
(255,475,c),
(240,471,o),
(221,472,o),
(197,480,c),
(175,489,o),
(145,502,o),
(124,504,c),
(74,506,o),
(58,496,o),
(52,491,c),
(39,480,o),
(40,470,o),
(41,459,c),
(46,436,o),
(77,424,o),
(91,424,c),
(132,421,o),
(149,436,o),
(201,442,c)
);
}
);
width = 621;
},
{
background = {
shapes = (
{
attr = {
fill = "1";
};
closed = 1;
nodes = (
(213,415,o),
(228,443,o),
(238,435,c),
(248,425,o),
(248,387,o),
(232,299,c),
(221,234,o),
(218,208,o),
(198,163,c),
(154,71,o),
(176,33,o),
(214,6,c),
(261,-31,o),
(267,28,o),
(300,50,c),
(339,77,o),
(381,77,o),
(416,124,c),
(443,155,o),
(475,225,o),
(442,299,c),
(427,332,o),
(412,342,o),
(375,351,c),
(366,353,o),
(331,356,o),
(314,340,c),
(304,331,o),
(293,318,o),
(294,295,c),
(294,278,o),
(303,264,o),
(305,249,c),
(307,234,o),
(307,230,o),
(306,214,c),
(305,196,o),
(303,163,o),
(292,137,c),
(274,95,o),
(253,59,o),
(235,95,c),
(218,135,o),
(244,213,o),
(253,287,c),
(263,345,o),
(264,373,o),
(282,412,c),
(300,441,o),
(346,447,o),
(364,447,c),
(395,447,o),
(425,443,o),
(465,463,c),
(482,474,o),
(501,486,o),
(509,510,c),
(513,527,o),
(505,544,o),
(490,555,c),
(480,562,o),
(460,558,o),
(448,549,c),
(419,530,o),
(427,526,o),
(378,494,c),
(353,477,o),
(345,477,o),
(328,469,c),
(301,462,o),
(293,471,o),
(287,483,c),
(278,505,o),
(281,504,o),
(273,537,c),
(264,566,o),
(259,592,o),
(259,592,c),
(251,634,o),
(244,661,o),
(232,677,c),
(218,696,o),
(189,700,o),
(176,699,c),
(161,699,o),
(125,687,o),
(117,662,c),
(111,628,o),
(154,619,o),
(204,588,c),
(219,577,o),
(234,574,o),
(245,539,c),
(256,494,o),
(230,456,o),
(199,437,c),
(182,427,o),
(165,413,o),
(148,398,c),
(119,365,o),
(106,327,o),
(104,312,c),
(96,277,o),
(100,259,o),
(107,238,c),
(120,208,o),
(164,215,o),
(175,228,c),
(216,272,o),
(221,297,o),
(216,373,cs)
);
}
);
};
layerId = m002;
shapes = (
{
attr = {
fill = "1";
};
closed = 1;
nodes = (
(182,463,o),
(202,492,o),
(213,482,c),
(225,470,o),
(225,423,o),
(206,314,c),
(202,286,o),
(199,255,o),
(178,181,c),
(157,124,o),
(130,57,o),
(200,2,c),
(263,-43,o),
(252,31,o),
(310,63,c),
(339,81,o),
(365,68,o),
(411,119,c),
(442,161,o),
(489,220,o),
(451,311,c),
(434,352,o),
(406,375,o),
(371,379,c),
(361,381,o),
(324,386,o),
(304,367,c),
(293,356,o),
(277,339,o),
(278,310,c),
(278,289,o),
(288,272,o),
(290,254,c),
(293,235,o),
(293,229,o),
(292,210,c),
(290,188,o),
(296,170,o),
(282,142,c),
(273,120,o),
(247,63,o),
(226,110,c),
(209,169,o),
(222,235,o),
(232,318,c),
(247,447,o),
(273,431,o),
(295,439,c),
(335,452,o),
(365,454,o),
(395,454,c),
(445,455,o),
(475,465,o),
(513,505,c),
(532,528,o),
(528,559,o),
(515,577,c),
(506,588,o),
(482,596,o),
(463,584,c),
(448,575,o),
(440,566,o),
(424,551,c),
(399,528,o),
(394,524,o),
(372,509,c),
(351,496,o),
(335,486,o),
(312,480,c),
(290,476,o),
(285,478,o),
(279,486,c),
(265,497,o),
(258,590,o),
(253,607,c),
(242,648,o),
(231,706,o),
(231,706,c),
(227,734,o),
(215,773,o),
(197,790,c),
(179,808,o),
(139,812,o),
(115,801,c),
(94,791,o),
(77,779,o),
(74,756,c),
(69,719,o),
(130,700,o),
(178,668,c),
(193,658,o),
(216,644,o),
(224,595,c),
(227,554,o),
(216,542,o),
(209,526,c),
(182,487,o),
(165,486,o),
(130,455,c),
(110,436,o),
(95,417,o),
(83,397,c),
(56,346,o),
(55,310,o),
(55,295,c),
(56,260,o),
(57,251,o),
(65,234,c),
(84,201,o),
(130,210,o),
(147,233,c),
(167,261,o),
(190,295,o),
(189,374,c)
);
}
);
width = 586;
},
{
layerId = m003;
shapes = (
{
attr = {
fill = "1";
};
closed = 1;
nodes = (
(108,530,o),
(224,663,o),
(301,616,c),
(352,587,o),
(152,452,o),
(211,314,c),
(229,266,o),
(384,230,o),
(363,156,c),
(342,99,o),
(177,96,o),
(205,2,c),
(221,-37,o),
(257,31,o),
(315,63,c),
(344,81,o),
(370,68,o),
(416,119,c),
(447,161,o),
(428,258,o),
(407,311,c),
(395,342,o),
(375,360,o),
(349,363,c),
(342,365,o),
(316,368,o),
(301,354,c),
(293,345,o),
(283,319,o),
(293,301,c),
(312,269,o),
(358,285,o),
(375,254,c),
(386,235,o),
(397,214,o),
(400,195,c),
(403,169,o),
(402,155,o),
(388,127,c),
(375,105,o),
(252,63,o),
(231,110,c),
(214,169,o),
(227,235,o),
(237,318,c),
(252,447,o),
(278,431,o),
(300,439,c),
(340,452,o),
(370,454,o),
(400,454,c),
(450,455,o),
(480,465,o),
(518,505,c),
(537,528,o),
(533,559,o),
(520,577,c),
(511,588,o),
(496,587,o),
(484,572,c),
(469,554,o),
(485,546,o),
(471,520,c),
(448,491,o),
(437,489,o),
(415,474,c),
(394,461,o),
(322,452,o),
(299,446,c),
(277,442,o),
(272,444,o),
(266,452,c),
(252,463,o),
(273,579,o),
(258,607,c),
(224,671,o),
(217,700,o),
(217,700,c),
(205,750,o),
(220,773,o),
(202,790,c),
(184,808,o),
(136,823,o),
(120,801,c),
(105,773,o),
(149,779,o),
(162,747,c),
(181,705,o),
(167,690,o),
(183,668,c),
(198,645,o),
(221,644,o),
(229,595,c),
(232,554,o),
(221,542,o),
(214,526,c),
(187,487,o),
(170,486,o),
(135,455,c),
(115,436,o),
(100,417,o),
(88,397,c),
(61,346,o),
(60,310,o),
(60,295,c),
(61,260,o),
(62,251,o),
(70,234,c),
(89,201,o),
(135,210,o),
(152,233,c),
(172,261,o),
(79,357,o),
(90,439,c)
);
}
);
width = 581;
}
);
unicode = 84;
},
{
glyphname = U;
lastChange = "2025-10-03 14:00:33 +0000";
layers = (
{
layerId = m01;
shapes = (
{
attr = {
fill = "1";
};
closed = 1;
nodes = (
(140,25,o),
(153,16,o),
(166,9,c),
(213,-15,o),
(300,1,o),
(307,5,c),
(356,23,o),
(386,66,o),
(406,118,c),
(437,205,o),
(404,248,o),
(445,315,c),
(466,345,o),
(490,384,o),
(486,418,c),
(484,432,o),
(482,471,o),
(447,491,c),
(396,519,o),
(353,503,o),
(348,501,c),
(333,495,o),
(324,486,o),
(315,470,c),
(304,447,o),
(300,442,o),
(300,404,c),
(300,370,o),
(316,346,o),
(330,315,c),
(343,286,o),
(359,257,o),
(364,229,c),
(378,172,o),
(367,114,o),
(360,88,c),
(348,59,o),
(327,39,o),
(293,25,c),
(260,13,o),
(227,19,o),
(201,32,c),
(166,49,o),
(140,81,o),
(152,205,c),
(157,276,o),
(194,325,o),
(212,388,c),
(224,431,o),
(243,462,o),
(217,486,c),
(186,511,o),
(155,506,o),
(146,504,c),
(134,503,o),
(107,499,o),
(84,477,c),
(57,453,o),
(50,410,o),
(50,384,c),
(50,353,o),
(54,334,o),
(61,294,c),
(71,223,o),
(80,222,o),
(87,166,c),
(93,130,o),
(89,114,o),
(99,84,c),
(107,59,o),
(129,36,o),
(136,30,c)
);
}
);
width = 546;
},
{
layerId = m002;
shapes = (
{
attr = {
fill = "1";
};
closed = 1;
nodes = (
(153,23,o),
(164,17,o),
(176,9,c),
(226,-16,o),
(294,-5,o),
(315,4,c),
(364,25,o),
(407,37,o),
(393,86,c),
(365,165,o),
(391,176,o),
(438,246,c),
(462,278,o),
(490,319,o),
(485,354,c),
(483,369,o),
(480,410,o),
(440,431,c),
(381,460,o),
(332,443,o),
(326,441,c),
(309,434,o),
(297,426,o),
(287,409,c),
(274,384,o),
(271,379,o),
(271,340,c),
(271,304,o),
(289,278,o),
(305,246,c),
(320,215,o),
(339,186,o),
(345,156,c),
(350,128,o),
(353,122,o),
(353,94,c),
(349,65,o),
(340,44,o),
(305,28,c),
(272,14,o),
(232,28,o),
(226,58,c),
(219,100,o),
(267,156,o),
(270,198,c),
(275,272,o),
(218,317,o),
(239,384,c),
(252,428,o),
(270,459,o),
(244,486,c),
(209,512,o),
(175,507,o),
(163,507,c),
(146,506,o),
(118,500,o),
(91,476,c),
(60,452,o),
(44,426,o),
(52,379,c),
(68,311,o),
(181,322,o),
(206,284,c),
(264,210,o),
(232,159,o),
(194,146,c),
(143,132,o),
(108,128,o),
(108,97,c),
(110,63,o),
(134,37,o),
(144,30,c)
);
}
);
width = 538;
},
{
layerId = m003;
shapes = (
{
attr = {
fill = "1";
};
closed = 1;
nodes = (
(136,4,o),
(151,-3,o),
(168,-5,c),
(197,-12,o),
(253,-5,o),
(274,4,c),
(323,25,o),
(372,79,o),
(352,161,c),
(324,240,o),
(271,279,o),
(318,349,c),
(342,381,o),
(367,319,o),
(415,354,c),
(442,381,o),
(439,410,o),
(399,431,c),
(340,460,o),
(291,443,o),
(285,441,c),
(268,434,o),
(256,426,o),
(246,409,c),
(233,384,o),
(230,379,o),
(230,340,c),
(230,304,o),
(248,278,o),
(264,246,c),
(279,215,o),
(298,186,o),
(304,156,c),
(309,128,o),
(312,122,o),
(312,94,c),
(308,65,o),
(299,44,o),
(264,28,c),
(231,14,o),
(191,28,o),
(185,58,c),
(178,100,o),
(226,156,o),
(229,198,c),
(234,272,o),
(177,317,o),
(198,384,c),
(211,428,o),
(229,459,o),
(203,486,c),
(168,512,o),
(134,507,o),
(122,507,c),
(105,506,o),
(48,502,o),
(50,476,c),
(59,416,o),
(141,478,o),
(149,431,c),
(165,363,o),
(201,322,o),
(226,284,c),
(284,210,o),
(252,159,o),
(214,146,c),
(163,132,o),
(120,119,o),
(112,88,c),
(105,61,o),
(120,38,o),
(127,23,c)
);
}
);
width = 503;
}
);
unicode = 85;
},
{
glyphname = V;
lastChange = "2025-10-03 14:00:33 +0000";
layers = (
{
layerId = m01;
shapes = (
{
attr = {
fill = "1";
};
closed = 1;
nodes = (
(129,516,o),
(140,516,o),
(152,514,c),
(190,508,o),
(210,472,o),
(220,451,c),
(244,395,o),
(239,363,o),
(233,272,c),
(225,169,o),
(267,101,o),
(283,90,c),
(296,86,o),
(300,107,o),
(307,127,c),
(359,243,o),
(374,310,o),
(374,310,c),
(397,394,o),
(379,454,o),
(431,500,c),
(443,510,o),
(486,523,o),
(519,498,c),
(565,465,o),
(552,402,o),
(547,383,c),
(536,342,o),
(525,318,o),
(494,284,c),
(465,252,o),
(443,253,o),
(392,199,c),
(369,171,o),
(359,149,o),
(344,117,c),
(323,66,o),
(325,21,o),
(307,4,c),
(296,-7,o),
(284,-12,o),
(270,-3,c),
(256,5,o),
(242,16,o),
(239,62,c),
(231,124,o),
(209,164,o),
(184,196,c),
(154,243,o),
(120,263,o),
(92,309,c),
(53,374,o),
(54,426,o),
(72,466,c),
(82,486,o),
(91,497,o),
(113,508,c)
);
}
);
width = 613;
},
{
layerId = m002;
shapes = (
{
attr = {
fill = "1";
};
closed = 1;
nodes = (
(30,460,o),
(32,482,o),
(51,496,c),
(75,509,o),
(140,500,o),
(157,457,c),
(187,387,o),
(187,348,o),
(179,281,c),
(169,155,o),
(140,124,o),
(153,91,c),
(167,57,o),
(188,46,o),
(205,132,c),
(221,247,o),
(280,317,o),
(280,317,c),
(335,398,o),
(285,455,o),
(332,499,c),
(345,510,o),
(382,519,o),
(413,496,c),
(455,465,o),
(465,417,o),
(460,382,c),
(455,344,o),
(431,310,o),
(403,292,c),
(353,260,o),
(321,272,o),
(274,220,c),
(244,183,o),
(249,183,o),
(226,124,c),
(201,57,o),
(193,17,o),
(167,2,c),
(146,-10,o),
(99,-14,o),
(89,6,c),
(71,44,o),
(107,55,o),
(109,94,c),
(109,142,o),
(94,160,o),
(94,198,c),
(91,259,o),
(86,268,o),
(78,290,c),
(72,308,o),
(61,322,o),
(51,359,c),
(46,380,o),
(41,393,o),
(36,417,c)
);
}
);
width = 488;
},
{
layerId = m003;
shapes = (
{
attr = {
fill = "1";
};
closed = 1;
nodes = (
(74,469,o),
(80,486,o),
(111,500,c),
(135,513,o),
(279,521,o),
(177,457,c),
(90,387,o),
(69,326,o),
(61,259,c),
(51,133,o),
(160,124,o),
(173,91,c),
(194,57,o),
(208,46,o),
(225,132,c),
(241,247,o),
(362,314,o),
(362,314,c),
(401,345,o),
(320,374,o),
(347,399,c),
(355,406,o),
(377,411,o),
(395,397,c),
(419,379,o),
(453,339,o),
(450,319,c),
(447,297,o),
(433,277,o),
(417,267,c),
(388,248,o),
(369,243,o),
(322,208,c),
(294,182,o),
(269,160,o),
(246,124,c),
(221,57,o),
(213,17,o),
(187,2,c),
(166,-10,o),
(119,-14,o),
(109,6,c),
(91,44,o),
(127,55,o),
(129,94,c),
(129,142,o),
(136,152,o),
(159,194,c),
(170,218,o),
(183,249,o),
(149,271,c),
(123,300,o),
(72,292,o),
(76,359,c),
(76,391,o),
(85,402,o),
(80,426,c)
);
}
);
width = 510;
}
);
unicode = 86;
},
{
glyphname = W;
lastChange = "2025-10-03 14:00:33 +0000";
layers = (
{
layerId = m01;
shapes = (
{
attr = {
fill = "1";
};
closed = 1;
nodes = (
(141,508,o),
(170,517,o),
(206,508,c),
(274,485,o),
(265,393,o),
(262,379,c),
(256,350,o),
(249,319,o),
(244,302,c),
(215,200,o),
(203,172,o),
(205,143,c),
(207,119,o),
(213,102,o),
(225,89,c),
(232,81,o),
(249,78,o),
(258,82,c),
(291,89,o),
(304,107,o),
(316,144,c),
(337,224,o),
(318,258,o),
(356,304,c),
(365,311,o),
(378,319,o),
(396,319,c),
(450,322,o),
(476,268,o),
(482,234,c),
(487,210,o),
(488,181,o),
(494,160,c),
(496,149,o),
(507,144,o),
(512,147,c),
(524,154,o),
(559,194,o),
(545,266,c),
(527,353,o),
(527,366,o),
(524,414,c),
(524,437,o),
(524,454,o),
(537,476,c),
(558,512,o),
(661,531,o),
(700,495,c),
(714,479,o),
(721,463,o),
(721,442,c),
(721,411,o),
(701,385,o),
(694,366,c),
(652,272,o),
(691,195,o),
(617,63,c),
(593,20,o),
(569,-18,o),
(540,-15,c),
(493,-13,o),
(461,103,o),
(454,138,c),
(443,183,o),
(456,221,o),
(440,226,c),
(425,230,o),
(410,223,o),
(389,187,c),
(375,162,o),
(365,127,o),
(346,87,c),
(322,31,o),
(317,18,o),
(307,8,c),
(291,-9,o),
(270,-17,o),
(253,-16,c),
(202,-15,o),
(157,31,o),
(147,115,c),
(143,195,o),
(180,223,o),
(137,305,c),
(117,339,o),
(73,353,o),
(61,416,c),
(56,447,o),
(82,483,o),
(82,483,c),
(95,494,o),
(108,499,o),
(122,503,cs)
);
}
);
width = 781;
},
{
layerId = m002;
shapes = (
{
attr = {
fill = "1";
};
closed = 1;
nodes = (
(143,476,o),
(147,450,o),
(185,442,c),
(258,418,o),
(273,381,o),
(269,353,c),
(266,329,o),
(253,332,o),
(239,282,c),
(209,179,o),
(207,169,o),
(209,152,c),
(214,122,o),
(232,113,o),
(245,107,cs),
(253,105,o),
(275,100,o),
(283,102,cs),
(306,106,o),
(316,119,o),
(328,153,c),
(350,234,o),
(329,269,o),
(370,314,c),
(379,322,o),
(393,329,o),
(412,329,c),
(470,333,o),
(481,312,o),
(481,261,c),
(481,216,o),
(501,195,o),
(514,169,c),
(521,152,o),
(531,153,o),
(536,156,c),
(549,164,o),
(586,203,o),
(571,276,c),
(551,365,o),
(551,371,o),
(549,397,c),
(549,409,o),
(549,418,o),
(552,430,c),
(558,450,o),
(585,460,o),
(597,442,c),
(601,432,o),
(602,423,o),
(602,412,c),
(602,395,o),
(597,388,o),
(595,371,c),
(586,314,o),
(703,205,o),
(673,71,c),
(659,12,o),
(597,-20,o),
(566,-8,c),
(507,12,o),
(526,123,o),
(475,201,c),
(443,245,o),
(467,286,o),
(456,293,c),
(442,302,o),
(424,293,o),
(406,252,c),
(392,210,o),
(394,145,o),
(370,60,c),
(354,21,o),
(343,16,o),
(334,8,c),
(320,-3,o),
(301,-8,o),
(284,-8,c),
(238,-6,o),
(174,60,o),
(174,124,c),
(174,271,o),
(241,250,o),
(195,333,c),
(174,368,o),
(68,365,o),
(55,428,c),
(50,460,o),
(78,495,o),
(78,495,c),
(87,508,o),
(113,512,o),
(124,498,cs)
);
}
);
width = 745;
},
{
layerId = m003;
shapes = (
{
attr = {
fill = "1";
};
closed = 1;
nodes = (
(133,476,o),
(105,420,o),
(143,412,c),
(275,385,o),
(307,416,o),
(321,368,c),
(329,343,o),
(318,329,o),
(304,279,c),
(274,176,o),
(108,195,o),
(119,100,c),
(124,70,o),
(168,46,o),
(181,43,cs),
(236,32,o),
(270,60,o),
(290,78,cs),
(330,114,o),
(307,164,o),
(326,205,c),
(361,303,o),
(309,291,o),
(315,349,c),
(329,358,o),
(351,367,o),
(381,367,c),
(473,371,o),
(392,267,o),
(392,205,c),
(392,151,o),
(507,195,o),
(520,169,c),
(527,152,o),
(537,153,o),
(542,156,c),
(555,164,o),
(518,198,o),
(503,271,c),
(483,360,o),
(513,381,o),
(528,396,c),
(542,412,o),
(550,418,o),
(558,430,c),
(575,453,o),
(591,460,o),
(603,442,c),
(607,432,o),
(608,423,o),
(608,412,c),
(608,395,o),
(603,388,o),
(601,371,c),
(592,314,o),
(609,207,o),
(609,174,c),
(611,115,o),
(685,-8,o),
(572,-8,c),
(513,12,o),
(537,145,o),
(481,212,c),
(430,265,o),
(473,327,o),
(456,335,c),
(434,346,o),
(400,323,o),
(372,274,c),
(350,223,o),
(384,100,o),
(376,60,c),
(360,21,o),
(349,16,o),
(340,8,c),
(326,-3,o),
(307,-8,o),
(290,-8,c),
(244,-6,o),
(215,83,o),
(233,124,c),
(292,268,o),
(313,297,o),
(274,354,c),
(253,389,o),
(74,365,o),
(61,428,c),
(56,460,o),
(84,495,o),
(84,495,c),
(93,508,o),
(103,512,o),
(114,498,cs)
);
}
);
width = 705;
}
);
unicode = 87;
},
{
glyphname = X;
lastChange = "2025-10-03 14:00:33 +0000";
layers = (
{
layerId = m01;
shapes = (
{
attr = {
fill = "1";
};
closed = 1;
nodes = (
(195,343,o),
(165,336,o),
(145,343,c),
(120,350,o),
(92,375,o),
(88,388,c),
(84,403,o),
(74,430,o),
(89,460,c),
(106,494,o),
(142,512,o),
(177,512,c),
(181,512,o),
(219,510,o),
(246,481,c),
(262,461,o),
(267,443,o),
(274,410,c),
(283,359,o),
(281,342,o),
(275,311,c),
(270,292,o),
(266,275,o),
(266,266,c),
(266,259,o),
(264,248,o),
(272,245,c),
(284,239,o),
(314,265,o),
(327,280,c),
(346,301,o),
(372,342,o),
(376,378,c),
(381,412,o),
(366,474,o),
(401,501,c),
(405,505,o),
(426,519,o),
(458,516,c),
(481,512,o),
(497,496,o),
(506,481,c),
(528,441,o),
(498,391,o),
(487,371,c),
(453,311,o),
(387,245,o),
(349,229,c),
(336,222,o),
(320,216,o),
(316,206,c),
(314,200,o),
(315,196,o),
(319,186,c),
(327,168,o),
(338,145,o),
(372,131,c),
(408,113,o),
(422,113,o),
(468,106,c),
(496,98,o),
(517,79,o),
(514,48,c),
(511,18,o),
(493,0,o),
(471,-4,c),
(435,-10,o),
(387,-8,o),
(359,13,c),
(336,28,o),
(318,52,o),
(308,91,c),
(302,113,o),
(295,130,o),
(286,163,c),
(284,170,o),
(277,190,o),
(264,191,c),
(251,191,o),
(240,171,o),
(233,155,c),
(187,56,o),
(189,31,o),
(155,5,c),
(152,3,o),
(118,-23,o),
(88,-12,c),
(57,0,o),
(43,49,o),
(53,84,c),
(64,119,o),
(98,142,o),
(119,154,c),
(153,177,o),
(190,194,o),
(208,212,c),
(217,221,o),
(220,228,o),
(227,241,c),
(232,254,o),
(242,288,o),
(216,319,c)
);
}
);
width = 574;
},
{
layerId = m002;
shapes = (
{
attr = {
fill = "1";
};
closed = 1;
nodes = (
(160,336,o),
(153,342,o),
(130,356,c),
(98,374,o),
(77,371,o),
(59,387,c),
(41,400,o),
(31,433,o),
(45,458,c),
(66,492,o),
(95,508,o),
(126,508,c),
(130,508,o),
(171,505,o),
(202,475,c),
(219,455,o),
(224,437,o),
(232,403,c),
(242,349,o),
(240,333,o),
(234,300,c),
(227,281,o),
(230,260,o),
(236,248,c),
(256,222,o),
(269,224,o),
(279,220,c),
(306,215,o),
(328,254,o),
(343,272,c),
(367,297,o),
(386,321,o),
(389,342,c),
(393,363,o),
(381,399,o),
(408,414,c),
(410,416,o),
(426,425,o),
(451,424,c),
(468,421,o),
(482,419,o),
(487,403,c),
(496,366,o),
(481,349,o),
(473,338,c),
(447,303,o),
(392,283,o),
(346,238,c),
(330,221,o),
(325,206,o),
(325,194,c),
(324,182,o),
(329,171,o),
(334,159,c),
(343,138,o),
(367,106,o),
(398,93,c),
(435,82,o),
(441,97,o),
(489,91,c),
(518,82,o),
(541,65,o),
(539,33,c),
(535,6,o),
(495,-11,o),
(473,-8,c),
(435,-8,o),
(407,26,o),
(382,14,c),
(341,-18,o),
(315,6,o),
(320,45,c),
(330,95,o),
(326,122,o),
(315,161,c),
(310,182,o),
(299,188,o),
(284,189,c),
(268,189,o),
(242,144,o),
(229,122,c),
(206,80,o),
(187,66,o),
(154,30,c),
(137,15,o),
(119,-1,o),
(91,12,c),
(54,32,o),
(46,93,o),
(55,122,c),
(59,142,o),
(87,170,o),
(107,176,c),
(153,192,o),
(177,170,o),
(210,191,c),
(225,202,o),
(240,206,o),
(231,221,c),
(213,241,o),
(204,274,o),
(180,309,c)
);
}
);
width = 570;
},
{
layerId = m003;
shapes = (
{
attr = {
fill = "1";
};
closed = 1;
nodes = (
(285,347,o),
(278,353,o),
(255,367,c),
(223,385,o),
(212,395,o),
(184,398,c),
(153,403,o),
(83,379,o),
(71,443,c),
(63,477,o),
(89,508,o),
(120,508,c),
(124,508,o),
(165,505,o),
(196,475,c),
(213,455,o),
(218,437,o),
(226,403,c),
(236,349,o),
(234,333,o),
(228,300,c),
(221,281,o),
(224,260,o),
(230,248,c),
(250,222,o),
(263,224,o),
(273,220,c),
(300,215,o),
(322,254,o),
(337,272,c),
(361,297,o),
(380,321,o),
(383,342,c),
(387,363,o),
(375,399,o),
(402,414,c),
(404,416,o),
(420,425,o),
(445,424,c),
(462,421,o),
(476,419,o),
(481,403,c),
(490,366,o),
(475,349,o),
(467,338,c),
(441,303,o),
(386,283,o),
(340,238,c),
(324,221,o),
(319,206,o),
(319,194,c),
(318,182,o),
(323,171,o),
(328,159,c),
(337,138,o),
(361,106,o),
(392,93,c),
(429,82,o),
(435,97,o),
(483,91,c),
(512,82,o),
(535,65,o),
(533,33,c),
(529,6,o),
(489,-11,o),
(467,-8,c),
(429,-8,o),
(401,26,o),
(376,14,c),
(335,-18,o),
(309,6,o),
(314,45,c),
(324,95,o),
(340,176,o),
(390,240,c),
(466,330,o),
(386,283,o),
(359,268,c),
(324,248,o),
(260,173,o),
(217,143,c),
(176,106,o),
(182,85,o),
(156,65,c),
(143,53,o),
(129,41,o),
(108,51,c),
(79,66,o),
(76,98,o),
(82,121,c),
(85,136,o),
(114,163,o),
(129,168,c),
(156,177,o),
(180,165,o),
(204,176,c),
(219,187,o),
(236,205,o),
(263,216,c),
(313,248,o),
(329,285,o),
(305,320,c)
);
}
);
width = 583;
}
);
unicode = 88;
},
{
glyphname = Y;
lastChange = "2025-10-03 14:00:33 +0000";
layers = (
{
background = {
shapes = (
{
attr = {
fill = "1";
strokeWidth = 10;
};
closed = 1;
nodes = (
(213,-305,o),
(281,-302,o),
(333,-261,c),
(390,-207,o),
(410,-169,o),
(425,-86,c),
(436,27,o),
(443,104,o),
(443,104,c),
(446,143,o),
(471,331,o),
(403,435,c),
(388,457,o),
(372,484,o),
(316,499,c),
(292,505,o),
(268,505,o),
(258,505,c),
(242,505,o),
(199,500,o),
(160,461,c),
(122,422,o),
(118,402,o),
(107,329,c),
(105,268,o),
(66,215,o),
(117,160,c),
(146,132,o),
(209,101,o),
(263,115,c),
(286,123,o),
(302,130,o),
(320,154,c),
(333,169,o),
(337,180,o),
(348,200,c),
(357,218,o),
(381,280,o),
(390,275,c),
(407,272,o),
(432,242,o),
(419,112,c),
(405,-15,o),
(405,-96,o),
(365,-152,c),
(339,-189,o),
(299,-221,o),
(252,-203,c),
(229,-198,o),
(220,-180,o),
(217,-159,c),
(215,-127,o),
(222,-110,o),
(233,-91,c),
(245,-69,o),
(248,-55,o),
(245,-33,c),
(239,-6,o),
(229,7,o),
(216,19,c),
(182,50,o),
(116,49,o),
(78,-21,c),
(49,-82,o),
(57,-144,o),
(57,-121,c),
(63,-169,o),
(78,-238,o),
(153,-281,c)
);
},
{
attr = {
fill = "1";
strokeWidth = 10;
};
closed = 1;
nodes = (
(180,180,o),
(177,191,o),
(177,202,c),
(180,220,o),
(192,231,o),
(204,251,c),
(217,273,o),
(208,301,o),
(220,334,c),
(226,354,o),
(237,371,o),
(263,377,c),
(285,385,o),
(307,370,o),
(320,355,c),
(347,318,o),
(326,257,o),
(300,221,c),
(268,183,o),
(210,158,o),
(190,173,c)
);
}
);
};
layerId = m01;
shapes = (
{
attr = {
fill = "1";
};
closed = 1;
nodes = (
(283,231,o),
(306,199,o),
(321,223,c),
(331,240,o),
(336,258,o),
(336,258,c),
(342,280,o),
(345,296,o),
(345,352,c),
(342,410,o),
(318,433,o),
(334,473,c),
(338,483,o),
(347,507,o),
(389,514,c),
(426,520,o),
(458,502,o),
(474,475,c),
(492,443,o),
(473,402,o),
(466,329,c),
(466,329,o),
(465,309,o),
(454,159,c),
(443,56,o),
(440,-58,o),
(426,-117,c),
(405,-215,o),
(331,-273,o),
(319,-281,c),
(288,-303,o),
(244,-315,o),
(174,-300,c),
(66,-250,o),
(24,-149,o),
(67,-33,c),
(72,-18,o),
(91,27,o),
(143,47,c),
(192,58,o),
(210,39,o),
(225,26,c),
(238,15,o),
(250,-8,o),
(253,-27,c),
(259,-76,o),
(242,-92,o),
(230,-114,c),
(215,-133,o),
(223,-163,o),
(225,-172,c),
(230,-183,o),
(235,-192,o),
(245,-197,c),
(268,-207,o),
(287,-210,o),
(320,-192,c),
(388,-139,o),
(398,-39,o),
(408,42,c),
(426,174,o),
(419,256,o),
(390,268,c),
(372,246,o),
(363,149,o),
(324,122,c),
(306,110,o),
(279,105,o),
(246,114,c),
(190,140,o),
(184,200,o),
(175,232,c),
(163,283,o),
(147,338,o),
(109,377,c),
(91,396,o),
(71,402,o),
(68,433,c),
(66,462,o),
(85,489,o),
(108,504,c),
(150,532,o),
(184,512,o),
(202,509,c),
(257,487,o),
(265,452,o),
(270,411,c),
(275,366,o),
(257,309,o),
(267,268,c),
(269,261,o),
(271,256,o),
(274,249,c)
);
}
);
width = 532;
},
{
background = {
shapes = (
{
attr = {
fill = "1";
strokeWidth = 10;
};
closed = 1;
nodes = (
(191,-305,o),
(259,-302,o),
(311,-261,c),
(368,-207,o),
(388,-169,o),
(403,-86,c),
(414,27,o),
(421,104,o),
(421,104,c),
(424,143,o),
(449,331,o),
(381,435,c),
(366,457,o),
(350,484,o),
(294,499,c),
(270,505,o),
(246,505,o),
(236,505,c),
(220,505,o),
(177,500,o),
(138,461,c),
(100,422,o),
(96,402,o),
(85,329,c),
(83,268,o),
(44,215,o),
(95,160,c),
(124,132,o),
(187,101,o),
(241,115,c),
(264,123,o),
(280,130,o),
(298,154,c),
(311,169,o),
(315,180,o),
(326,200,c),
(335,218,o),
(359,280,o),
(368,275,c),
(385,272,o),
(410,242,o),
(397,112,c),
(383,-15,o),
(383,-96,o),
(343,-152,c),
(317,-189,o),
(277,-221,o),
(230,-203,c),
(207,-198,o),
(198,-180,o),
(195,-159,c),
(193,-127,o),
(200,-110,o),
(211,-91,c),
(223,-69,o),
(226,-55,o),
(223,-33,c),
(217,-6,o),
(207,7,o),
(194,19,c),
(160,50,o),
(94,49,o),
(56,-21,c),
(27,-82,o),
(35,-144,o),
(35,-121,c),
(41,-169,o),
(56,-238,o),
(131,-281,c)
);
},
{
attr = {
fill = "1";
strokeWidth = 10;
};
closed = 1;
nodes = (
(158,180,o),
(155,191,o),
(155,202,c),
(158,220,o),
(170,231,o),
(182,251,c),
(195,273,o),
(186,301,o),
(198,334,c),
(204,354,o),
(215,371,o),
(241,377,c),
(263,385,o),
(285,370,o),
(298,355,c),
(325,318,o),
(304,257,o),
(278,221,c),
(246,183,o),
(188,158,o),
(168,173,c)
);
}
);
};
layerId = m002;
shapes = (
{
attr = {
fill = "1";
};
closed = 1;
nodes = (
(256,157,o),
(292,121,o),
(311,150,c),
(321,173,o),
(325,198,o),
(325,198,c),
(336,241,o),
(342,242,o),
(355,295,c),
(364,342,o),
(342,365,o),
(350,397,c),
(352,407,o),
(357,427,o),
(376,435,c),
(394,440,o),
(409,421,o),
(417,399,c),
(426,373,o),
(405,338,o),
(414,275,c),
(414,275,o),
(445,172,o),
(438,88,c),
(427,-12,o),
(424,-121,o),
(410,-178,c),
(389,-272,o),
(341,-298,o),
(311,-305,c),
(287,-309,o),
(270,-311,o),
(242,-297,c),
(142,-242,o),
(151,-85,o),
(159,-29,c),
(164,19,o),
(116,59,o),
(171,85,c),
(222,99,o),
(241,74,o),
(257,57,c),
(270,43,o),
(283,15,o),
(286,-11,c),
(292,-72,o),
(274,-92,o),
(262,-120,c),
(249,-149,o),
(249,-177,o),
(253,-195,c),
(256,-210,o),
(267,-221,o),
(275,-227,c),
(291,-238,o),
(302,-240,o),
(318,-238,c),
(355,-228,o),
(395,-103,o),
(405,-26,c),
(423,103,o),
(403,195,o),
(374,211,c),
(345,222,o),
(355,131,o),
(304,99,c),
(267,82,o),
(215,103,o),
(169,95,c),
(120,88,o),
(117,137,o),
(151,195,c),
(211,307,o),
(158,327,o),
(120,352,c),
(94,367,o),
(78,388,o),
(75,421,c),
(73,454,o),
(81,485,o),
(103,502,c),
(142,517,o),
(169,502,o),
(187,500,c),
(242,472,o),
(249,447,o),
(254,393,c),
(259,336,o),
(224,287,o),
(234,234,c),
(238,218,o),
(244,197,o),
(247,187,c)
);
}
);
width = 524;
},
{
layerId = m003;
shapes = (
{
attr = {
fill = "1";
};
closed = 1;
nodes = (
(238,157,o),
(315,15,o),
(353,32,c),
(374,47,o),
(367,80,o),
(367,80,c),
(358,143,o),
(331,244,o),
(337,295,c),
(347,357,o),
(324,365,o),
(332,397,c),
(334,407,o),
(339,427,o),
(358,435,c),
(376,440,o),
(391,421,o),
(399,399,c),
(408,373,o),
(415,338,o),
(396,275,c),
(396,275,o),
(341,94,o),
(334,10,c),
(323,-90,o),
(406,-121,o),
(392,-178,c),
(371,-272,o),
(323,-298,o),
(293,-305,c),
(269,-309,o),
(239,-323,o),
(224,-297,c),
(196,-223,o),
(346,-188,o),
(354,-57,c),
(360,45,o),
(98,59,o),
(153,85,c),
(204,99,o),
(223,74,o),
(239,57,c),
(252,43,o),
(268,7,o),
(282,-26,c),
(298,-87,o),
(285,-96,o),
(273,-124,c),
(260,-153,o),
(257,-145,o),
(249,-190,c),
(246,-217,o),
(249,-221,o),
(257,-227,c),
(273,-238,o),
(284,-240,o),
(300,-238,c),
(337,-228,o),
(426,-110,o),
(436,-33,c),
(454,96,o),
(385,195,o),
(356,211,c),
(327,222,o),
(337,131,o),
(286,99,c),
(249,82,o),
(198,89,o),
(173,112,c),
(155,125,o),
(146,166,o),
(163,195,c),
(223,290,o),
(201,374,o),
(163,399,c),
(137,414,o),
(93,377,o),
(58,410,c),
(41,429,o),
(50,485,o),
(85,502,c),
(134,524,o),
(151,502,o),
(169,500,c),
(224,472,o),
(231,430,o),
(236,376,c),
(241,319,o),
(206,287,o),
(216,234,c),
(220,218,o),
(226,197,o),
(229,187,c)
);
}
);
width = 499;
}
);
unicode = 89;
},
{
glyphname = Z;
lastChange = "2025-10-03 14:00:33 +0000";
layers = (
{
layerId = m01;
shapes = (
{
attr = {
fill = "1";
};
closed = 1;
nodes = (
(173,517,o),
(193,518,o),
(223,512,c),
(247,508,o),
(264,500,o),
(296,487,c),
(322,477,o),
(343,463,o),
(375,465,c),
(405,466,o),
(410,477,o),
(431,485,c),
(468,500,o),
(499,481,o),
(512,454,c),
(536,405,o),
(504,350,o),
(423,299,c),
(391,280,o),
(319,236,o),
(260,183,c),
(209,139,o),
(195,118,o),
(195,94,c),
(195,80,o),
(198,76,o),
(202,72,c),
(221,53,o),
(264,59,o),
(287,66,c),
(321,77,o),
(346,80,o),
(390,115,c),
(438,149,o),
(439,167,o),
(484,198,c),
(511,215,o),
(543,224,o),
(569,192,c),
(603,150,o),
(599,91,o),
(580,57,c),
(557,16,o),
(518,-7,o),
(485,-6,c),
(440,-11,o),
(406,13,o),
(280,8,c),
(207,5,o),
(157,-17,o),
(131,0,c),
(102,17,o),
(94,38,o),
(95,61,c),
(97,89,o),
(116,99,o),
(144,134,c),
(188,189,o),
(321,275,o),
(391,320,c),
(412,334,o),
(444,351,o),
(453,372,c),
(468,410,o),
(459,418,o),
(433,413,c),
(397,405,o),
(333,356,o),
(258,322,c),
(225,308,o),
(173,299,o),
(140,318,c),
(108,336,o),
(83,364,o),
(80,400,c),
(78,428,o),
(84,450,o),
(102,475,c),
(124,504,o),
(144,507,o),
(150,509,c)
);
}
);
width = 654;
},
{
layerId = m002;
shapes = (
{
attr = {
fill = "1";
};
closed = 1;
nodes = (
(201,435,o),
(209,439,o),
(229,444,c),
(261,451,o),
(272,454,o),
(293,455,c),
(326,457,o),
(336,449,o),
(361,451,c),
(386,455,o),
(410,460,o),
(418,474,c),
(450,526,o),
(500,512,o),
(516,481,c),
(544,423,o),
(489,358,o),
(392,296,c),
(354,274,o),
(342,212,o),
(261,150,c),
(203,112,o),
(140,102,o),
(140,80,c),
(140,68,o),
(144,64,o),
(149,61,c),
(171,43,o),
(219,64,o),
(246,72,c),
(284,85,o),
(321,102,o),
(361,147,c),
(385,176,o),
(395,187,o),
(434,214,c),
(457,229,o),
(496,231,o),
(519,204,c),
(548,169,o),
(532,133,o),
(519,111,c),
(500,85,o),
(471,75,o),
(440,72,c),
(402,68,o),
(305,43,o),
(239,11,c),
(213,0,o),
(118,-18,o),
(89,-2,c),
(56,11,o),
(48,40,o),
(59,64,c),
(81,115,o),
(162,122,o),
(218,159,c),
(273,201,o),
(270,261,o),
(355,315,c),
(397,342,o),
(449,355,o),
(460,380,c),
(477,425,o),
(423,428,o),
(404,428,c),
(359,428,o),
(301,348,o),
(240,264,c),
(212,231,o),
(185,212,o),
(151,215,c),
(119,219,o),
(107,251,o),
(107,288,c),
(107,320,o),
(106,354,o),
(137,391,c),
(154,413,o),
(181,428,o),
(184,429,c)
);
}
);
width = 593;
},
{
layerId = m003;
shapes = (
{
attr = {
fill = "1";
};
closed = 1;
nodes = (
(141,429,o),
(154,427,o),
(175,426,c),
(193,425,o),
(205,422,o),
(229,415,c),
(246,409,o),
(262,411,o),
(284,412,c),
(306,415,o),
(335,460,o),
(343,474,c),
(375,526,o),
(425,512,o),
(441,481,c),
(469,423,o),
(414,358,o),
(317,296,c),
(279,274,o),
(281,212,o),
(222,150,c),
(179,112,o),
(133,102,o),
(133,80,c),
(133,68,o),
(136,64,o),
(139,61,c),
(155,43,o),
(191,64,o),
(211,72,c),
(238,85,o),
(266,102,o),
(295,147,c),
(313,176,o),
(308,315,o),
(347,342,c),
(370,357,o),
(385,299,o),
(408,272,c),
(437,237,o),
(445,175,o),
(418,168,c),
(371,160,o),
(379,171,o),
(348,168,c),
(313,164,o),
(254,43,o),
(205,11,c),
(186,0,o),
(116,-18,o),
(95,-2,c),
(71,11,o),
(65,40,o),
(73,64,c),
(89,115,o),
(159,122,o),
(200,159,c),
(241,201,o),
(195,261,o),
(280,315,c),
(322,342,o),
(472,374,o),
(483,399,c),
(500,444,o),
(446,447,o),
(427,447,c),
(382,447,o),
(377,393,o),
(272,363,c),
(220,347,o),
(159,411,o),
(159,371,c),
(160,338,o),
(254,374,o),
(222,289,c),
(203,252,o),
(75,330,o),
(75,374,c),
(75,422,o),
(118,429,o),
(125,429,c)
);
}
);
width = 546;
}
);
unicode = 90;
},
{
glyphname = a;
lastChange = "2023-04-12 15:03:42 +0000";
layers = (
{
layerId = m01;
shapes = (
{
attr = {
fill = 1;
};
closed = 1;
nodes = (
(538,-7,o),
(544,-5,o),
(557,6,c),
(590,38,o),
(574,123,o),
(543,181,c),
(507,252,o),
(470,245,o),
(449,313,c),
(435,358,o),
(445,375,o),
(427,421,c),
(416,445,o),
(394,477,o),
(356,494,c),
(322,510,o),
(285,510,o),
(269,504,c),
(263,503,o),
(209,489,o),
(181,427,c),
(170,405,o),
(167,393,o),
(157,367,c),
(139,326,o),
(116,311,o),
(91,284,c),
(70,260,o),
(17,198,o),
(24,129,c),
(31,75,o),
(71,43,o),
(78,38,c),
(148,-18,o),
(244,24,o),
(257,30,c),
(346,69,o),
(388,155,o),
(393,190,c),
(401,236,o),
(402,237,o),
(411,253,c),
(420,266,o),
(427,271,o),
(435,270,c),
(446,266,o),
(449,230,o),
(440,201,c),
(435,190,o),
(431,181,o),
(424,167,c),
(406,121,o),
(430,69,o),
(431,66,c),
(445,34,o),
(481,-11,o),
(525,-8,c)
);
},
{
attr = {
fill = 1;
};
closed = 1;
nodes = (
(136,181,o),
(159,258,o),
(201,298,c),
(231,327,o),
(268,334,o),
(285,337,c),
(299,339,o),
(325,342,o),
(352,330,c),
(362,327,o),
(390,316,o),
(391,297,c),
(391,283,o),
(381,272,o),
(361,246,c),
(325,193,o),
(329,186,o),
(301,154,c),
(266,124,o),
(199,116,o),
(169,145,c)
);
}
);
width = 600;
},
{
layerId = m002;
shapes = (
{
attr = {
fill = 1;
};
closed = 1;
nodes = (
(508,18,o),
(514,21,o),
(526,33,c),
(558,68,o),
(553,114,o),
(523,180,c),
(489,260,o),
(465,305,o),
(433,327,c),
(393,352,o),
(317,242,o),
(292,321,c),
(282,363,o),
(362,414,o),
(333,474,c),
(316,510,o),
(276,510,o),
(259,508,c),
(245,507,o),
(213,498,o),
(185,430,c),
(177,413,o),
(175,401,o),
(174,386,c),
(170,327,o),
(211,283,o),
(187,252,c),
(168,226,o),
(91,195,o),
(90,116,c),
(90,75,o),
(109,42,o),
(123,30,c),
(186,-41,o),
(256,-8,o),
(269,16,c),
(311,85,o),
(312,125,o),
(319,167,c),
(323,193,o),
(329,232,o),
(388,279,c),
(406,293,o),
(417,300,o),
(435,295,c),
(458,288,o),
(455,262,o),
(442,220,c),
(434,194,o),
(423,186,o),
(413,164,c),
(406,147,o),
(397,119,o),
(409,85,c),
(422,49,o),
(442,12,o),
(496,17,c)
);
},
{
attr = {
fill = 1;
};
closed = 1;
nodes = (
(140,160,o),
(168,194,o),
(213,226,c),
(234,250,o),
(226,262,o),
(238,277,c),
(249,290,o),
(272,290,o),
(292,281,c),
(298,278,o),
(308,267,o),
(308,250,c),
(308,240,o),
(311,232,o),
(297,213,c),
(272,170,o),
(275,164,o),
(255,139,c),
(231,114,o),
(184,107,o),
(163,131,c)
);
}
);
width = 599;
},
{
layerId = m003;
shapes = (
{
attr = {
fill = 1;
};
closed = 1;
nodes = (
(518,12,o),
(529,17,o),
(537,50,c),
(543,84,o),
(505,90,o),
(482,145,c),
(448,225,o),
(447,252,o),
(401,278,c),
(342,311,o),
(252,193,o),
(227,272,c),
(217,314,o),
(218,372,o),
(250,413,c),
(295,474,o),
(272,505,o),
(255,503,c),
(233,500,o),
(211,479,o),
(188,430,c),
(180,413,o),
(178,401,o),
(177,386,c),
(173,327,o),
(214,283,o),
(190,252,c),
(171,226,o),
(51,186,o),
(50,107,c),
(50,66,o),
(69,33,o),
(83,21,c),
(150,-40,o),
(241,5,o),
(253,12,c),
(338,56,o),
(315,125,o),
(322,167,c),
(326,193,o),
(336,204,o),
(349,213,c),
(360,221,o),
(373,221,o),
(384,218,c),
(398,214,o),
(401,196,o),
(399,189,c),
(394,173,o),
(392,170,o),
(381,157,c),
(373,147,o),
(312,84,o),
(324,50,c),
(331,-6,o),
(431,-30,o),
(488,-4,c)
);
},
{
attr = {
fill = 1;
};
closed = 1;
nodes = (
(136,147,o),
(171,194,o),
(216,226,c),
(237,250,o),
(229,262,o),
(241,277,c),
(252,290,o),
(275,290,o),
(295,281,c),
(301,278,o),
(311,267,o),
(311,250,c),
(311,195,o),
(236,214,o),
(223,167,c),
(195,57,o),
(410,89,o),
(346,9,c),
(281,-59,o),
(161,56,o),
(150,95,c)
);
}
);
width = 573;
}
);
unicode = 97;
},
{
glyphname = b;
lastChange = "2023-04-15 17:31:59 +0000";
layers = (
{
layerId = m01;
shapes = (
{
attr = {
fill = 1;
};
closed = 1;
nodes = (
(125,780,o),
(104,766,o),
(91,713,c),
(89,702,o),
(88,694,o),
(87,679,c),
(81,608,o),
(87,570,o),
(98,523,c),
(114,465,o),
(114,473,o),
(127,429,c),
(149,353,o),
(132,284,o),
(126,249,c),
(112,184,o),
(108,186,o),
(108,137,c),
(108,123,o),
(114,67,o),
(150,32,c),
(213,-29,o),
(350,-13,o),
(425,65,c),
(473,114,o),
(496,191,o),
(479,261,c),
(458,341,o),
(392,384,o),
(374,395,c),
(354,406,o),
(354,406,o),
(311,425,c),
(253,449,o),
(166,462,o),
(146,489,c),
(119,523,o),
(116,550,o),
(141,601,c),
(170,652,o),
(213,642,o),
(247,687,c),
(260,709,o),
(268,739,o),
(249,770,c),
(233,796,o),
(212,802,o),
(195,803,c),
(180,805,o),
(161,798,o),
(149,792,c)
);
},
{
attr = {
fill = 1;
};
closed = 1;
nodes = (
(287,316,o),
(314,316,o),
(339,309,c),
(389,295,o),
(406,238,o),
(410,225,c),
(425,174,o),
(409,118,o),
(377,84,c),
(367,71,o),
(325,26,o),
(279,39,c),
(256,45,o),
(232,66,o),
(229,92,c),
(224,127,o),
(264,135,o),
(271,190,c),
(275,223,o),
(272,246,o),
(272,246,c),
(271,270,o),
(264,288,o),
(275,301,c)
);
}
);
width = 555;
},
{
layerId = m002;
shapes = (
{
attr = {
fill = 1;
};
closed = 1;
nodes = (
(164,796,o),
(140,778,o),
(111,729,c),
(106,715,o),
(100,706,o),
(95,690,c),
(76,642,o),
(66,581,o),
(78,525,c),
(91,476,o),
(118,445,o),
(144,421,c),
(189,374,o),
(221,327,o),
(206,282,c),
(186,216,o),
(106,231,o),
(81,173,c),
(66,123,o),
(66,89,o),
(109,42,c),
(184,-42,o),
(327,-21,o),
(416,87,c),
(457,134,o),
(460,224,o),
(441,314,c),
(415,413,o),
(376,427,o),
(342,434,c),
(304,443,o),
(271,416,o),
(239,416,c),
(204,416,o),
(155,445,o),
(121,486,c),
(94,540,o),
(96,578,o),
(128,602,c),
(183,644,o),
(222,614,o),
(269,655,c),
(287,678,o),
(304,711,o),
(291,753,c),
(280,786,o),
(259,801,o),
(242,805,c),
(227,811,o),
(206,808,o),
(192,805,c)
);
},
{
attr = {
fill = 1;
};
closed = 1;
nodes = (
(308,390,o),
(335,389,o),
(358,380,c),
(387,366,o),
(394,346,o),
(394,316,c),
(391,272,o),
(364,235,o),
(326,209,c),
(293,180,o),
(323,131,o),
(287,107,c),
(264,98,o),
(244,132,o),
(243,159,c),
(239,200,o),
(278,206,o),
(288,266,c),
(293,297,o),
(291,322,o),
(291,322,c),
(292,345,o),
(286,363,o),
(296,375,c)
);
}
);
width = 524;
},
{
layerId = m003;
shapes = (
{
attr = {
fill = 1;
};
closed = 1;
nodes = (
(172,796,o),
(160,783,o),
(131,734,c),
(122,720,o),
(108,690,o),
(103,674,c),
(84,626,o),
(74,581,o),
(86,525,c),
(99,476,o),
(126,445,o),
(152,421,c),
(197,374,o),
(225,335,o),
(235,282,c),
(243,216,o),
(250,212,o),
(237,170,c),
(222,120,o),
(179,122,o),
(172,42,c),
(164,-42,o),
(331,-26,o),
(392,87,c),
(422,159,o),
(405,201,o),
(386,291,c),
(372,377,o),
(389,421,o),
(350,434,c),
(312,443,o),
(290,388,o),
(253,377,c),
(210,364,o),
(108,349,o),
(46,438,c),
(19,492,o),
(90,623,o),
(122,647,c),
(177,689,o),
(221,661,o),
(280,688,c),
(294,694,o),
(309,722,o),
(299,753,c),
(288,786,o),
(267,801,o),
(250,805,c),
(235,811,o),
(214,808,o),
(200,805,c)
);
},
{
attr = {
fill = 1;
};
closed = 1;
nodes = (
(372,409,o),
(362,548,o),
(445,500,c),
(535,433,o),
(402,403,o),
(402,316,c),
(399,247,o),
(372,235,o),
(334,209,c),
(301,180,o),
(331,131,o),
(295,107,c),
(272,98,o),
(252,132,o),
(251,159,c),
(247,200,o),
(278,220,o),
(277,270,c),
(276,303,o),
(299,322,o),
(299,322,c),
(317,341,o),
(348,318,o),
(360,369,c)
);
}
);
width = 536;
}
);
unicode = 98;
},
{
glyphname = c;
lastChange = "2023-04-12 14:59:33 +0000";
layers = (
{
layerId = m01;
shapes = (
{
attr = {
fill = 1;
};
closed = 1;
nodes = (
(147,333,o),
(180,348,o),
(209,338,c),
(252,322,o),
(261,297,o),
(299,283,c),
(322,271,o),
(366,273,o),
(388,283,c),
(450,307,o),
(470,378,o),
(437,437,c),
(402,506,o),
(324,508,o),
(265,504,c),
(169,497,o),
(109,438,o),
(79,357,c),
(47,276,o),
(63,183,o),
(71,161,c),
(84,107,o),
(114,58,o),
(183,19,c),
(261,-16,o),
(362,-12,o),
(432,40,c),
(466,70,o),
(483,85,o),
(486,141,c),
(487,178,o),
(475,218,o),
(424,246,c),
(372,263,o),
(318,229,o),
(287,199,c),
(256,167,o),
(256,152,o),
(226,125,c),
(205,107,o),
(172,104,o),
(153,117,c),
(105,144,o),
(93,213,o),
(95,235,c),
(99,278,o),
(104,298,o),
(138,323,c)
);
}
);
width = 546;
},
{
layerId = m002;
shapes = (
{
attr = {
fill = 1;
};
closed = 1;
nodes = (
(122,378,o),
(151,395,o),
(183,383,c),
(231,367,o),
(240,341,o),
(281,325,c),
(307,313,o),
(363,310,o),
(387,323,c),
(455,346,o),
(471,400,o),
(459,434,c),
(421,508,o),
(336,510,o),
(271,505,c),
(167,498,o),
(78,437,o),
(59,341,c),
(41,227,o),
(81,153,o),
(105,117,c),
(135,65,o),
(181,10,o),
(232,-2,c),
(312,-23,o),
(361,21,o),
(400,97,c),
(430,155,o),
(488,140,o),
(486,191,c),
(483,233,o),
(464,252,o),
(425,256,c),
(372,265,o),
(327,223,o),
(302,188,c),
(278,153,o),
(281,138,o),
(257,108,c),
(237,86,o),
(208,79,o),
(188,87,c),
(138,106,o),
(101,184,o),
(91,227,c),
(81,280,o),
(77,341,o),
(112,368,c)
);
}
);
width = 527;
},
{
layerId = m003;
shapes = (
{
attr = {
fill = 1;
};
closed = 1;
nodes = (
(77,357,o),
(115,341,o),
(148,383,c),
(196,453,o),
(216,409,o),
(257,393,c),
(283,381,o),
(309,357,o),
(368,357,c),
(406,357,o),
(436,400,o),
(424,434,c),
(386,508,o),
(257,520,o),
(236,505,c),
(169,456,o),
(192,384,o),
(173,288,c),
(155,174,o),
(79,148,o),
(82,106,c),
(89,45,o),
(146,10,o),
(197,-2,c),
(277,-23,o),
(262,83,o),
(301,159,c),
(331,217,o),
(413,139,o),
(451,191,c),
(471,238,o),
(429,252,o),
(390,256,c),
(337,265,o),
(292,223,o),
(267,188,c),
(243,153,o),
(246,138,o),
(222,108,c),
(202,86,o),
(173,79,o),
(153,87,c),
(103,106,o),
(66,184,o),
(56,227,c),
(46,280,o),
(48,306,o),
(64,333,c)
);
}
);
width = 496;
}
);
unicode = 99;
},
{
glyphname = d;
lastChange = "2023-04-12 14:59:51 +0000";
layers = (
{
layerId = m01;
shapes = (
{
attr = {
fill = "1";
};
closed = 1;
nodes = (
(394,798,o),
(375,805,o),
(360,803,c),
(343,802,o),
(322,796,o),
(306,770,c),
(287,739,o),
(295,709,o),
(308,687,c),
(342,642,o),
(388,649,o),
(417,598,c),
(442,547,o),
(439,520,o),
(412,486,c),
(388,454,o),
(302,449,o),
(244,425,c),
(201,406,o),
(201,406,o),
(181,395,c),
(163,384,o),
(97,341,o),
(76,261,c),
(59,191,o),
(82,114,o),
(130,65,c),
(205,-13,o),
(342,-29,o),
(405,32,c),
(441,67,o),
(447,123,o),
(447,137,c),
(447,186,o),
(443,184,o),
(429,249,c),
(423,284,o),
(406,353,o),
(428,429,c),
(441,473,o),
(441,465,o),
(457,523,c),
(468,570,o),
(474,608,o),
(468,679,c),
(467,694,o),
(466,702,o),
(464,713,c),
(451,766,o),
(430,780,o),
(406,792,c)
);
},
{
attr = {
fill = "1";
};
closed = 1;
nodes = (
(367,376,o),
(360,358,o),
(359,334,c),
(359,334,o),
(356,311,o),
(360,278,c),
(367,223,o),
(407,215,o),
(402,180,c),
(399,154,o),
(375,133,o),
(352,127,c),
(306,114,o),
(264,159,o),
(254,172,c),
(222,206,o),
(206,262,o),
(221,313,c),
(225,326,o),
(242,383,o),
(292,397,c),
(317,404,o),
(344,404,o),
(356,389,c)
);
}
);
width = 520;
},
{
layerId = m002;
shapes = (
{
attr = {
fill = "1";
};
closed = 1;
nodes = (
(412,802,o),
(397,809,o),
(385,808,c),
(371,807,o),
(356,800,o),
(343,774,c),
(328,742,o),
(334,713,o),
(345,691,c),
(371,648,o),
(407,652,o),
(430,602,c),
(449,552,o),
(447,524,o),
(408,488,c),
(383,452,o),
(292,446,o),
(230,420,c),
(185,399,o),
(185,399,o),
(163,387,c),
(118,364,o),
(54,282,o),
(87,205,c),
(144,99,o),
(216,259,o),
(267,197,c),
(347,99,o),
(299,-8,o),
(387,-10,c),
(430,-10,o),
(445,35,o),
(445,65,c),
(445,127,o),
(442,124,o),
(427,206,c),
(420,250,o),
(402,337,o),
(426,424,c),
(440,473,o),
(440,464,o),
(461,528,c),
(470,577,o),
(475,613,o),
(470,684,c),
(469,697,o),
(469,706,o),
(467,717,c),
(456,769,o),
(441,783,o),
(421,794,c)
);
},
{
attr = {
fill = "1";
};
closed = 1;
nodes = (
(373,365,o),
(370,352,o),
(370,336,c),
(370,336,o),
(367,320,o),
(370,298,c),
(391,211,o),
(395,205,o),
(384,181,c),
(377,165,o),
(369,156,o),
(358,158,c),
(330,165,o),
(337,197,o),
(329,227,c),
(315,273,o),
(255,277,o),
(263,313,c),
(271,343,o),
(301,368,o),
(330,376,c),
(345,381,o),
(361,381,o),
(367,372,c)
);
}
);
width = 525;
},
{
layerId = m003;
shapes = (
{
attr = {
fill = "1";
};
closed = 1;
nodes = (
(350,802,o),
(335,809,o),
(323,808,c),
(309,807,o),
(282,802,o),
(281,774,c),
(279,726,o),
(345,739,o),
(356,717,c),
(382,674,o),
(345,652,o),
(368,602,c),
(387,552,o),
(444,460,o),
(405,424,c),
(380,388,o),
(210,428,o),
(168,420,c),
(129,413,o),
(117,408,o),
(101,387,c),
(59,330,o),
(61,281,o),
(101,260,c),
(168,230,o),
(234,332,o),
(285,270,c),
(365,172,o),
(237,-8,o),
(325,-10,c),
(368,-10,o),
(383,35,o),
(383,65,c),
(383,127,o),
(380,124,o),
(365,206,c),
(358,250,o),
(301,373,o),
(325,460,c),
(339,509,o),
(381,466,o),
(399,528,c),
(416,592,o),
(413,613,o),
(408,684,c),
(407,697,o),
(407,706,o),
(405,717,c),
(394,769,o),
(376,778,o),
(359,794,c)
);
},
{
attr = {
fill = "1";
};
closed = 1;
nodes = (
(311,365,o),
(308,352,o),
(308,336,c),
(308,336,o),
(305,320,o),
(308,298,c),
(329,211,o),
(333,205,o),
(322,181,c),
(315,165,o),
(307,156,o),
(296,158,c),
(268,165,o),
(275,197,o),
(267,227,c),
(253,273,o),
(193,277,o),
(201,313,c),
(209,343,o),
(239,368,o),
(268,376,c),
(283,381,o),
(299,381,o),
(305,372,c)
);
}
);
width = 469;
}
);
unicode = 100;
},
{
glyphname = e;
lastChange = "2023-04-12 15:04:49 +0000";
layers = (
{
layerId = m01;
shapes = (
{
attr = {
fill = 1;
};
closed = 1;
nodes = (
(496,340,o),
(492,361,o),
(483,389,c),
(461,451,o),
(399,478,o),
(355,490,c),
(260,517,o),
(134,457,o),
(84,355,c),
(41,266,o),
(69,179,o),
(73,170,c),
(110,67,o),
(176,33,o),
(236,18,c),
(258,12,o),
(351,-4,o),
(427,29,c),
(447,37,o),
(490,57,o),
(509,120,c),
(522,159,o),
(510,200,o),
(483,212,c),
(458,224,o),
(411,210,o),
(386,173,c),
(349,129,o),
(355,112,o),
(341,88,c),
(322,51,o),
(293,40,o),
(239,51,c),
(179,63,o),
(140,110,o),
(154,168,c),
(165,204,o),
(203,224,o),
(251,227,c),
(286,230,o),
(312,218,o),
(361,215,c),
(397,212,o),
(432,217,o),
(452,236,c),
(476,257,o),
(482,276,o),
(489,306,c)
);
},
{
attr = {
fill = 1;
};
closed = 1;
nodes = (
(276,402,o),
(289,416,o),
(321,433,c),
(352,448,o),
(400,456,o),
(438,416,c),
(461,396,o),
(477,347,o),
(454,322,c),
(430,289,o),
(365,307,o),
(342,316,c),
(327,322,o),
(312,326,o),
(289,326,c),
(272,326,o),
(249,322,o),
(240,332,c),
(231,346,o),
(250,376,o),
(267,394,c)
);
}
);
width = 564;
},
{
layerId = m002;
shapes = (
{
attr = {
fill = 1;
};
closed = 1;
nodes = (
(501,370,o),
(496,393,o),
(485,427,c),
(463,497,o),
(413,509,o),
(349,509,c),
(269,509,o),
(254,450,o),
(221,362,c),
(192,272,o),
(46,329,o),
(46,173,c),
(46,61,o),
(156,15,o),
(221,-2,c),
(244,-9,o),
(334,-15,o),
(416,24,c),
(443,39,o),
(494,43,o),
(516,115,c),
(529,161,o),
(518,229,o),
(490,243,c),
(463,256,o),
(413,246,o),
(387,231,c),
(361,215,o),
(350,173,o),
(335,155,c),
(312,132,o),
(286,126,o),
(259,133,c),
(229,140,o),
(200,173,o),
(208,206,c),
(217,235,o),
(239,268,o),
(280,269,c),
(312,268,o),
(324,229,o),
(355,226,c),
(396,218,o),
(431,228,o),
(453,249,c),
(478,273,o),
(484,296,o),
(493,332,c)
);
},
{
attr = {
fill = 1;
};
closed = 1;
nodes = (
(274,366,o),
(279,374,o),
(301,387,c),
(321,399,o),
(358,401,o),
(388,376,c),
(403,362,o),
(415,336,o),
(403,302,c),
(394,257,o),
(350,239,o),
(328,278,c),
(312,301,o),
(300,311,o),
(284,311,c),
(273,311,o),
(257,308,o),
(251,314,c),
(243,326,o),
(257,345,o),
(269,360,c)
);
}
);
width = 566;
},
{
layerId = m003;
shapes = (
{
attr = {
fill = 1;
};
closed = 1;
nodes = (
(441,370,o),
(436,393,o),
(425,427,c),
(403,497,o),
(353,509,o),
(289,509,c),
(209,509,o),
(194,450,o),
(161,362,c),
(132,272,o),
(116,298,o),
(86,215,c),
(37,74,o),
(109,14,o),
(161,-2,c),
(184,-9,o),
(321,-28,o),
(356,24,c),
(382,74,o),
(346,105,o),
(362,144,c),
(375,190,o),
(442,179,o),
(430,243,c),
(426,265,o),
(353,246,o),
(327,231,c),
(301,215,o),
(314,158,o),
(275,111,c),
(214,50,o),
(128,41,o),
(116,66,c),
(103,106,o),
(151,132,o),
(214,208,c),
(256,262,o),
(194,432,o),
(275,433,c),
(344,435,o),
(232,305,o),
(295,226,c),
(343,180,o),
(371,228,o),
(393,249,c),
(418,273,o),
(424,296,o),
(433,332,c)
);
},
{
attr = {
fill = 1;
};
closed = 1;
nodes = (
(214,366,o),
(219,374,o),
(241,387,c),
(261,399,o),
(298,401,o),
(328,376,c),
(343,362,o),
(408,356,o),
(396,298,c),
(387,253,o),
(290,239,o),
(268,278,c),
(252,301,o),
(240,311,o),
(224,311,c),
(213,311,o),
(197,308,o),
(191,314,c),
(183,326,o),
(197,345,o),
(209,360,c)
);
}
);
width = 507;
}
);
unicode = 101;
},
{
glyphname = f;
lastChange = "2023-04-12 15:01:15 +0000";
layers = (
{
layerId = m01;
shapes = (
{
attr = {
fill = 1;
};
closed = 1;
nodes = (
(317,33,o),
(331,61,o),
(332,90,c),
(334,142,o),
(321,207,o),
(307,278,c),
(300,316,o),
(296,330,o),
(283,371,c),
(266,427,o),
(264,435,o),
(279,440,c),
(300,445,o),
(369,391,o),
(408,383,c),
(425,379,o),
(448,373,o),
(469,385,c),
(482,391,o),
(501,407,o),
(500,424,c),
(497,448,o),
(461,458,o),
(455,460,c),
(419,471,o),
(399,455,o),
(365,455,c),
(354,455,o),
(292,463,o),
(254,500,c),
(214,558,o),
(207,622,o),
(225,683,c),
(249,740,o),
(277,745,o),
(304,740,c),
(317,737,o),
(339,726,o),
(344,701,c),
(347,689,o),
(344,682,o),
(341,661,c),
(338,645,o),
(335,628,o),
(343,613,c),
(353,596,o),
(375,585,o),
(395,586,c),
(432,588,o),
(451,630,o),
(452,633,c),
(470,677,o),
(441,732,o),
(410,760,c),
(406,764,o),
(344,819,o),
(269,794,c),
(217,775,o),
(179,727,o),
(179,681,c),
(177,577,o),
(214,502,o),
(201,481,c),
(190,462,o),
(151,465,o),
(147,465,c),
(118,468,o),
(111,485,o),
(90,481,c),
(69,478,o),
(49,459,o),
(50,446,c),
(52,425,o),
(107,415,o),
(134,412,c),
(179,408,o),
(195,420,o),
(214,408,c),
(221,404,o),
(230,399,o),
(237,355,c),
(245,309,o),
(236,234,o),
(217,206,c),
(214,200,o),
(201,183,o),
(198,176,c),
(177,140,o),
(165,128,o),
(164,89,c),
(163,81,o),
(164,40,o),
(195,15,c),
(225,-6,o),
(257,-5,o),
(276,3,c),
(289,9,o),
(296,13,o),
(307,23,c)
);
}
);
width = 540;
},
{
layerId = m002;
shapes = (
{
attr = {
fill = 1;
};
closed = 1;
nodes = (
(340,42,o),
(349,54,o),
(349,74,c),
(349,129,o),
(337,197,o),
(320,271,c),
(314,311,o),
(309,326,o),
(294,368,c),
(275,428,o),
(264,454,o),
(280,458,c),
(304,463,o),
(390,390,o),
(434,381,c),
(453,377,o),
(478,370,o),
(503,383,c),
(516,390,o),
(538,407,o),
(537,424,c),
(533,449,o),
(493,460,o),
(487,462,c),
(446,473,o),
(427,454,o),
(386,456,c),
(373,456,o),
(271,466,o),
(241,510,c),
(203,553,o),
(192,649,o),
(206,710,c),
(219,758,o),
(241,768,o),
(255,763,c),
(262,761,o),
(272,752,o),
(282,730,c),
(285,721,o),
(284,685,o),
(280,672,c),
(272,648,o),
(258,623,o),
(262,573,c),
(268,510,o),
(337,481,o),
(378,472,c),
(418,461,o),
(475,470,o),
(487,545,c),
(496,618,o),
(418,645,o),
(390,672,c),
(345,716,o),
(363,800,o),
(278,808,c),
(198,814,o),
(177,752,o),
(177,714,c),
(175,604,o),
(217,511,o),
(203,484,c),
(190,463,o),
(146,466,o),
(142,466,c),
(110,470,o),
(102,488,o),
(78,484,c),
(55,480,o),
(32,461,o),
(33,448,c),
(35,425,o),
(97,415,o),
(127,411,c),
(177,407,o),
(209,402,o),
(230,390,c),
(268,369,o),
(284,319,o),
(292,272,c),
(301,225,o),
(290,185,o),
(278,149,c),
(275,140,o),
(264,124,o),
(251,110,c),
(220,79,o),
(205,79,o),
(198,44,c),
(193,16,o),
(213,-11,o),
(240,-11,c),
(255,-11,o),
(274,-10,o),
(292,-2,c),
(302,2,o),
(319,14,o),
(329,27,c)
);
}
);
width = 570;
},
{
layerId = m003;
shapes = (
{
attr = {
fill = 1;
};
closed = 1;
nodes = (
(357,42,o),
(366,54,o),
(366,74,c),
(366,129,o),
(387,197,o),
(370,271,c),
(364,311,o),
(326,326,o),
(311,368,c),
(292,428,o),
(254,465,o),
(270,469,c),
(294,474,o),
(375,424,o),
(419,390,c),
(460,364,o),
(513,424,o),
(518,429,c),
(520,432,o),
(525,439,o),
(525,446,c),
(524,457,o),
(519,461,o),
(514,462,c),
(463,473,o),
(444,454,o),
(403,456,c),
(390,456,o),
(288,466,o),
(258,510,c),
(220,553,o),
(209,649,o),
(223,710,c),
(236,758,o),
(258,768,o),
(272,763,c),
(279,761,o),
(294,761,o),
(299,730,c),
(302,700,o),
(301,685,o),
(297,672,c),
(289,648,o),
(275,623,o),
(279,573,c),
(285,510,o),
(354,481,o),
(395,472,c),
(435,461,o),
(520,480,o),
(504,545,c),
(479,618,o),
(426,500,o),
(337,578,c),
(292,622,o),
(380,800,o),
(295,808,c),
(215,814,o),
(194,752,o),
(194,714,c),
(192,604,o),
(302,320,o),
(238,340,c),
(188,360,o),
(163,396,o),
(149,429,c),
(136,466,o),
(119,488,o),
(95,484,c),
(72,480,o),
(49,461,o),
(50,448,c),
(52,425,o),
(114,415,o),
(144,411,c),
(194,407,o),
(226,402,o),
(247,390,c),
(285,369,o),
(413,319,o),
(421,272,c),
(430,225,o),
(381,209,o),
(346,173,c),
(330,164,o),
(281,124,o),
(268,110,c),
(237,79,o),
(222,79,o),
(215,44,c),
(210,16,o),
(230,-11,o),
(257,-11,c),
(272,-11,o),
(291,-10,o),
(309,-2,c),
(319,2,o),
(336,14,o),
(346,27,c)
);
}
);
width = 565;
}
);
unicode = 102;
},
{
glyphname = g;
lastChange = "2023-04-12 15:01:17 +0000";
layers = (
{
layerId = m01;
shapes = (
{
attr = {
fill = 1;
};
closed = 1;
nodes = (
(202,-305,o),
(270,-302,o),
(322,-261,c),
(379,-207,o),
(399,-169,o),
(414,-86,c),
(425,27,o),
(432,104,o),
(432,104,c),
(435,143,o),
(460,331,o),
(392,435,c),
(377,457,o),
(361,484,o),
(305,499,c),
(281,505,o),
(257,505,o),
(247,505,c),
(231,505,o),
(188,500,o),
(149,461,c),
(111,422,o),
(107,402,o),
(96,329,c),
(94,268,o),
(55,215,o),
(106,160,c),
(135,132,o),
(198,101,o),
(252,115,c),
(275,123,o),
(291,130,o),
(309,154,c),
(322,169,o),
(326,180,o),
(337,200,c),
(346,218,o),
(370,280,o),
(379,275,c),
(396,272,o),
(413,243,o),
(400,113,c),
(386,-14,o),
(386,-95,o),
(346,-151,c),
(320,-188,o),
(288,-221,o),
(241,-203,c),
(218,-198,o),
(209,-180,o),
(206,-159,c),
(204,-127,o),
(211,-110,o),
(222,-91,c),
(234,-69,o),
(237,-55,o),
(234,-33,c),
(228,-6,o),
(218,7,o),
(205,19,c),
(171,50,o),
(105,49,o),
(67,-21,c),
(38,-82,o),
(46,-144,o),
(46,-121,c),
(52,-169,o),
(67,-238,o),
(142,-281,c)
);
},
{
attr = {
fill = 1;
};
closed = 1;
nodes = (
(169,180,o),
(166,191,o),
(166,202,c),
(169,220,o),
(181,231,o),
(193,251,c),
(206,273,o),
(197,301,o),
(209,334,c),
(215,354,o),
(226,371,o),
(252,377,c),
(274,385,o),
(296,370,o),
(309,355,c),
(336,318,o),
(315,257,o),
(289,221,c),
(257,183,o),
(199,158,o),
(179,173,c)
);
}
);
width = 499;
},
{
layerId = m002;
shapes = (
{
attr = {
fill = 1;
};
closed = 1;
nodes = (
(247,-311,o),
(308,-336,o),
(360,-256,c),
(389,-215,o),
(399,-189,o),
(404,-86,c),
(413,-10,o),
(409,100,o),
(409,100,c),
(409,193,o),
(361,312,o),
(329,243,c),
(273,138,o),
(292,390,o),
(256,460,c),
(232,496,o),
(220,510,o),
(200,510,c),
(174,510,o),
(137,496,o),
(122,449,c),
(96,372,o),
(116,354,o),
(116,268,c),
(114,182,o),
(26,205,o),
(67,67,c),
(96,-11,o),
(143,-15,o),
(197,5,c),
(220,16,o),
(236,25,o),
(254,59,c),
(267,79,o),
(271,96,o),
(282,123,c),
(291,149,o),
(318,176,o),
(341,182,c),
(364,184,o),
(387,193,o),
(387,71,c),
(385,-80,o),
(410,-94,o),
(376,-159,c),
(350,-205,o),
(325,-224,o),
(301,-223,c),
(278,-209,o),
(273,-182,o),
(276,-153,c),
(283,-110,o),
(295,-92,o),
(311,-75,c),
(330,-55,o),
(342,-48,o),
(343,-29,c),
(351,14,o),
(346,29,o),
(336,53,c),
(308,111,o),
(252,87,o),
(216,36,c),
(173,-21,o),
(228,-6,o),
(193,-64,c),
(152,-111,o),
(112,-228,o),
(187,-281,c)
);
},
{
attr = {
fill = 1;
};
closed = 1;
nodes = (
(152,92,o),
(149,104,o),
(149,116,c),
(152,134,o),
(161,146,o),
(170,166,c),
(179,189,o),
(172,217,o),
(181,251,c),
(186,274,o),
(194,290,o),
(213,296,c),
(230,304,o),
(246,289,o),
(256,275,c),
(276,237,o),
(260,172,o),
(241,137,c),
(217,96,o),
(174,70,o),
(159,86,c)
);
}
);
width = 485;
},
{
layerId = m003;
shapes = (
{
attr = {
fill = 1;
};
closed = 1;
nodes = (
(262,-310,o),
(286,-336,o),
(338,-256,c),
(367,-215,o),
(377,-189,o),
(382,-86,c),
(391,-10,o),
(387,100,o),
(387,100,c),
(387,193,o),
(339,312,o),
(307,243,c),
(251,138,o),
(270,390,o),
(234,460,c),
(214,500,o),
(198,510,o),
(178,510,c),
(152,510,o),
(170,461,o),
(175,403,c),
(181,326,o),
(219,311,o),
(219,225,c),
(217,139,o),
(4,205,o),
(45,67,c),
(74,-11,o),
(121,-15,o),
(175,5,c),
(198,16,o),
(214,25,o),
(232,59,c),
(245,79,o),
(249,96,o),
(260,123,c),
(269,149,o),
(296,176,o),
(319,182,c),
(342,184,o),
(365,193,o),
(365,71,c),
(363,-80,o),
(388,-94,o),
(354,-159,c),
(328,-205,o),
(314,-244,o),
(279,-223,c),
(256,-209,o),
(251,-182,o),
(254,-153,c),
(261,-110,o),
(387,-115,o),
(412,-103,c),
(439,-90,o),
(443,-76,o),
(444,-57,c),
(452,-14,o),
(362,36,o),
(314,53,c),
(267,67,o),
(230,87,o),
(194,36,c),
(151,-21,o),
(326,-10,o),
(280,-52,c),
(167,-139,o),
(223,-235,o),
(245,-285,c)
);
},
{
attr = {
fill = 1;
};
closed = 1;
nodes = (
(130,92,o),
(127,104,o),
(127,116,c),
(130,134,o),
(139,146,o),
(148,166,c),
(157,189,o),
(150,217,o),
(159,251,c),
(164,274,o),
(172,290,o),
(191,296,c),
(208,304,o),
(224,289,o),
(234,275,c),
(254,237,o),
(238,172,o),
(219,137,c),
(195,96,o),
(152,70,o),
(137,86,c)
);
}
);
width = 495;
}
);
unicode = 103;
},
{
glyphname = h;
lastChange = "2023-04-12 14:51:22 +0000";
layers = (
{
background = {
shapes = (
{
attr = {
fill = "1";
strokeWidth = 10;
};
closed = 1;
nodes = (
(102,489,o),
(110,508,o),
(105,588,c),
(99,663,o),
(76,719,o),
(102,766,c),
(129,815,o),
(156,824,o),
(197,810,c),
(240,794,o),
(243,760,o),
(242,724,c),
(228,647,o),
(221,646,o),
(184,588,c),
(158,544,o),
(112,399,o),
(150,364,c),
(167,352,o),
(211,455,o),
(234,489,c),
(262,533,o),
(250,508,o),
(293,585,c),
(336,661,o),
(385,706,o),
(443,694,c),
(477,687,o),
(513,656,o),
(516,621,c),
(519,570,o),
(424,550,o),
(374,518,c),
(309,478,o),
(239,418,o),
(243,402,c),
(248,392,o),
(324,493,o),
(395,455,c),
(456,417,o),
(432,333,o),
(380,256,c),
(358,218,o),
(365,194,o),
(378,173,c),
(403,136,o),
(424,116,o),
(438,93,c),
(456,62,o),
(452,7,o),
(425,-7,c),
(384,-26,o),
(358,-20,o),
(328,-7,c),
(324,-4,o),
(305,10,o),
(294,32,c),
(285,54,o),
(283,82,o),
(296,135,c),
(306,174,o),
(335,229,o),
(323,263,c),
(312,293,o),
(300,316,o),
(280,320,c),
(269,323,o),
(216,311,o),
(211,265,c),
(194,139,o),
(259,169,o),
(268,87,c),
(270,11,o),
(227,-2,o),
(176,-13,c),
(124,-19,o),
(101,-8,o),
(75,27,c),
(67,36,o),
(56,84,o),
(59,117,c),
(59,173,o),
(90,222,o),
(102,291,c),
(106,321,o),
(91,361,o),
(93,400,c)
);
}
);
};
layerId = m01;
shapes = (
{
attr = {
fill = 1;
};
closed = 1;
nodes = (
(96,476,o),
(111,547,o),
(107,597,c),
(102,657,o),
(73,708,o),
(102,766,c),
(110,782,o),
(127,810,o),
(158,815,c),
(192,821,o),
(216,797,o),
(227,777,c),
(255,723,o),
(230,658,o),
(184,588,c),
(165,559,o),
(149,531,o),
(135,461,c),
(129,418,o),
(135,376,o),
(150,364,c),
(164,356,o),
(185,358,o),
(203,370,c),
(253,410,o),
(243,402,o),
(285,437,c),
(307,452,o),
(348,471,o),
(380,458,c),
(427,442,o),
(433,391,o),
(417,334,c),
(389,259,o),
(354,243,o),
(375,173,c),
(388,133,o),
(427,123,o),
(442,71,c),
(447,56,o),
(450,30,o),
(433,3,c),
(411,-30,o),
(340,-27,o),
(305,13,c),
(271,54,o),
(288,116,o),
(291,126,c),
(300,154,o),
(300,154,o),
(314,186,c),
(327,216,o),
(331,239,o),
(319,270,c),
(311,289,o),
(306,310,o),
(273,314,c),
(255,317,o),
(196,303,o),
(184,262,c),
(170,190,o),
(195,184,o),
(238,123,c),
(253,93,o),
(261,74,o),
(255,34,c),
(247,8,o),
(221,-7,o),
(207,-12,c),
(176,-18,o),
(145,-30,o),
(104,-1,c),
(73,22,o),
(68,57,o),
(63,85,c),
(61,95,o),
(56,147,o),
(70,192,c),
(87,249,o),
(88,242,o),
(98,270,c),
(111,317,o),
(85,322,o),
(90,392,c)
);
}
);
width = 516;
},
{
background = {
shapes = (
{
attr = {
fill = "1";
strokeWidth = 10;
};
closed = 1;
nodes = (
(121,489,o),
(129,508,o),
(124,588,c),
(118,663,o),
(95,719,o),
(121,766,c),
(148,815,o),
(175,824,o),
(216,810,c),
(259,794,o),
(262,760,o),
(261,724,c),
(247,647,o),
(240,646,o),
(203,588,c),
(177,544,o),
(131,399,o),
(169,364,c),
(186,352,o),
(230,455,o),
(253,489,c),
(281,533,o),
(269,508,o),
(312,585,c),
(355,661,o),
(404,706,o),
(462,694,c),
(496,687,o),
(532,656,o),
(535,621,c),
(538,570,o),
(443,550,o),
(393,518,c),
(328,478,o),
(258,418,o),
(262,402,c),
(267,392,o),
(343,493,o),
(414,455,c),
(475,417,o),
(451,333,o),
(399,256,c),
(377,218,o),
(384,194,o),
(397,173,c),
(422,136,o),
(443,116,o),
(457,93,c),
(475,62,o),
(471,7,o),
(444,-7,c),
(403,-26,o),
(377,-20,o),
(347,-7,c),
(343,-4,o),
(324,10,o),
(313,32,c),
(304,54,o),
(302,82,o),
(315,135,c),
(325,174,o),
(354,229,o),
(342,263,c),
(331,293,o),
(319,316,o),
(299,320,c),
(288,323,o),
(235,311,o),
(230,265,c),
(213,139,o),
(278,169,o),
(287,87,c),
(289,11,o),
(246,-2,o),
(195,-13,c),
(143,-19,o),
(120,-8,o),
(94,27,c),
(86,36,o),
(75,84,o),
(78,117,c),
(78,173,o),
(109,222,o),
(121,291,c),
(125,321,o),
(110,361,o),
(112,400,c)
);
}
);
};
layerId = m002;
shapes = (
{
attr = {
fill = 1;
};
closed = 1;
nodes = (
(251,607,o),
(241,570,o),
(272,633,c),
(292,698,o),
(269,768,o),
(312,796,c),
(323,806,o),
(346,819,o),
(368,807,c),
(393,795,o),
(399,764,o),
(398,743,c),
(393,688,o),
(387,632,o),
(301,587,c),
(265,568,o),
(267,563,o),
(232,476,c),
(214,423,o),
(124,370,o),
(141,354,c),
(156,343,o),
(180,346,o),
(200,362,c),
(257,416,o),
(237,409,o),
(284,446,c),
(309,468,o),
(355,491,o),
(391,468,c),
(426,446,o),
(451,398,o),
(433,336,c),
(401,257,o),
(375,271,o),
(399,196,c),
(413,153,o),
(457,142,o),
(474,87,c),
(480,71,o),
(483,44,o),
(464,14,c),
(439,-20,o),
(359,-16,o),
(320,25,c),
(282,68,o),
(282,100,o),
(304,146,c),
(320,175,o),
(347,176,o),
(363,211,c),
(377,243,o),
(382,267,o),
(368,299,c),
(359,320,o),
(323,344,o),
(284,344,c),
(250,344,o),
(204,336,o),
(190,282,c),
(179,223,o),
(144,207,o),
(171,144,c),
(181,114,o),
(190,98,o),
(182,52,c),
(177,25,o),
(160,10,o),
(151,4,c),
(132,-8,o),
(111,-16,o),
(84,16,c),
(65,39,o),
(63,76,o),
(59,105,c),
(55,131,o),
(54,169,o),
(63,215,c),
(89,293,o),
(97,272,o),
(108,320,c),
(123,416,o),
(190,427,o),
(214,495,c)
);
}
);
width = 535;
},
{
background = {
shapes = (
{
attr = {
fill = "1";
strokeWidth = 10;
};
closed = 1;
nodes = (
(121,489,o),
(129,508,o),
(124,588,c),
(118,663,o),
(95,719,o),
(121,766,c),
(148,815,o),
(175,824,o),
(216,810,c),
(259,794,o),
(262,760,o),
(261,724,c),
(247,647,o),
(240,646,o),
(203,588,c),
(177,544,o),
(131,399,o),
(169,364,c),
(186,352,o),
(230,455,o),
(253,489,c),
(281,533,o),
(269,508,o),
(312,585,c),
(355,661,o),
(404,706,o),
(462,694,c),
(496,687,o),
(532,656,o),
(535,621,c),
(538,570,o),
(443,550,o),
(393,518,c),
(328,478,o),
(258,418,o),
(262,402,c),
(267,392,o),
(343,493,o),
(414,455,c),
(475,417,o),
(451,333,o),
(399,256,c),
(377,218,o),
(384,194,o),
(397,173,c),
(422,136,o),
(443,116,o),
(457,93,c),
(475,62,o),
(471,7,o),
(444,-7,c),
(403,-26,o),
(377,-20,o),
(347,-7,c),
(343,-4,o),
(324,10,o),
(313,32,c),
(304,54,o),
(302,82,o),
(315,135,c),
(325,174,o),
(354,229,o),
(342,263,c),
(331,293,o),
(319,316,o),
(299,320,c),
(288,323,o),
(235,311,o),
(230,265,c),
(213,139,o),
(278,169,o),
(287,87,c),
(289,11,o),
(246,-2,o),
(195,-13,c),
(143,-19,o),
(120,-8,o),
(94,27,c),
(86,36,o),
(75,84,o),
(78,117,c),
(78,173,o),
(109,222,o),
(121,291,c),
(125,321,o),
(110,361,o),
(112,400,c)
);
}
);
};
layerId = m003;
shapes = (
{
attr = {
fill = 1;
};
closed = 1;
nodes = (
(429,511,o),
(360,561,o),
(344,681,c),
(344,761,o),
(307,755,o),
(320,789,c),
(331,807,o),
(346,819,o),
(368,807,c),
(393,795,o),
(399,764,o),
(398,743,c),
(393,688,o),
(347,650,o),
(301,587,c),
(265,530,o),
(250,471,o),
(232,426,c),
(214,373,o),
(74,235,o),
(157,148,c),
(179,122,o),
(196,140,o),
(216,156,c),
(273,210,o),
(237,409,o),
(284,446,c),
(309,468,o),
(355,491,o),
(391,468,c),
(426,446,o),
(451,398,o),
(433,336,c),
(401,257,o),
(375,271,o),
(399,196,c),
(413,153,o),
(457,142,o),
(474,87,c),
(480,71,o),
(483,44,o),
(464,14,c),
(439,-20,o),
(359,-16,o),
(320,25,c),
(282,68,o),
(282,100,o),
(304,146,c),
(320,175,o),
(347,176,o),
(363,211,c),
(377,243,o),
(382,267,o),
(368,299,c),
(359,320,o),
(323,344,o),
(284,344,c),
(250,344,o),
(204,336,o),
(190,282,c),
(179,223,o),
(66,230,o),
(93,167,c),
(103,137,o),
(190,98,o),
(182,52,c),
(177,25,o),
(160,10,o),
(151,4,c),
(132,-8,o),
(111,-16,o),
(84,16,c),
(65,39,o),
(63,76,o),
(59,105,c),
(55,131,o),
(54,169,o),
(63,215,c),
(80,293,o),
(97,272,o),
(108,320,c),
(123,416,o),
(368,331,o),
(392,399,c)
);
}
);
width = 535;
}
);
unicode = 104;
},
{
glyphname = i;
lastChange = "2023-04-12 15:01:24 +0000";
layers = (
{
background = {
shapes = (
{
attr = {
fill = "1";
strokeWidth = 10;
};
closed = 1;
nodes = (
(265,703,o),
(265,680,c),
(265,650,o),
(254,624,o),
(236,615,c),
(229,612,o),
(221,606,o),
(215,598,c),
(211,595,o),
(203,568,o),
(211,547,c),
(214,537,o),
(216,525,o),
(227,522,c),
(237,520,o),
(241,519,o),
(265,511,c),
(296,496,o),
(286,473,o),
(286,429,c),
(286,387,o),
(279,349,o),
(273,239,c),
(267,114,o),
(259,78,o),
(262,12,c),
(266,-58,o),
(285,-99,o),
(282,-160,c),
(277,-205,o),
(265,-228,o),
(230,-260,c),
(192,-296,o),
(130,-305,o),
(102,-305,c),
(-12,-305,o),
(-99,-257,o),
(-132,-205,c),
(-173,-149,o),
(-174,-104,o),
(-171,-40,c),
(-161,64,o),
(-87,94,o),
(-22,96,c),
(45,96,o),
(71,64,o),
(85,33,c),
(101,-2,o),
(97,-28,o),
(90,-58,c),
(76,-116,o),
(32,-137,o),
(39,-174,c),
(39,-174,o),
(42,-186,o),
(51,-191,c),
(61,-195,o),
(67,-195,o),
(78,-191,c),
(105,-182,o),
(128,-154,o),
(130,-116,c),
(134,-74,o),
(122,88,o),
(121,102,c),
(112,195,o),
(103,286,o),
(96,368,c),
(89,438,o),
(78,459,o),
(105,491,c),
(129,518,o),
(165,515,o),
(171,525,c),
(173,528,o),
(166,546,o),
(165,569,c),
(163,609,o),
(154,545,o),
(108,591,c),
(96,602,o),
(90,624,o),
(92,644,c),
(95,688,o),
(141,709,o),
(174,718,c),
(245,736,o)
);
}
);
};
layerId = m01;
shapes = (
{
attr = {
fill = 1;
};
closed = 1;
nodes = (
(107,606,o),
(105,599,o),
(89,612,c),
(87,614,o),
(65,634,o),
(65,661,c),
(64,685,o),
(77,711,o),
(105,714,c),
(117,716,o),
(126,711,o),
(154,704,c),
(167,701,o),
(172,696,o),
(179,693,c),
(194,684,o),
(207,670,o),
(207,655,c),
(208,629,o),
(197,617,o),
(181,608,c),
(166,602,o),
(165,599,o),
(161,591,c),
(156,582,o),
(154,570,o),
(156,558,cs),
(160,540,o),
(161,536,o),
(167,523,c),
(173,516,o),
(181,515,o),
(194,511,c),
(208,507,o),
(210,507,o),
(220,500,c),
(238,488,o),
(242,450,o),
(232,362,c),
(225,285,o),
(221,292,o),
(215,237,c),
(211,165,o),
(208,128,o),
(214,97,c),
(215,93,o),
(223,74,o),
(222,49,c),
(221,27,o),
(219,7,o),
(203,-5,c),
(194,-12,o),
(172,-16,o),
(147,-15,c),
(131,-15,o),
(113,-15,o),
(102,-12,c),
(81,-7,o),
(64,9,o),
(60,31,c),
(57,46,o),
(65,59,o),
(68,68,c),
(68,68,o),
(69,70,o),
(105,172,c),
(133,255,o),
(113,341,o),
(111,351,c),
(106,376,o),
(99,384,o),
(87,448,c),
(81,473,o),
(81,484,o),
(94,496,c),
(104,506,o),
(109,508,o),
(115,515,c),
(117,517,o),
(125,527,o),
(123,546,c),
(121,571,o),
(122,587,o),
(117,595,c)
);
}
);
width = 287;
},
{
layerId = m002;
shapes = (
{
attr = {
fill = 1;
};
closed = 1;
nodes = (
(173,527,o),
(165,531,o),
(159,537,c),
(158,540,o),
(149,547,o),
(149,562,c),
(148,574,o),
(155,590,o),
(168,590,c),
(176,588,o),
(178,585,o),
(182,573,c),
(188,564,o),
(194,570,o),
(200,566,c),
(208,563,o),
(209,559,o),
(214,551,c),
(217,545,o),
(214,540,o),
(208,532,c),
(199,527,o),
(197,527,o),
(193,522,c),
(188,518,o),
(170,513,o),
(170,500,cs),
(170,490,o),
(177,488,o),
(188,481,c),
(196,476,o),
(197,480,o),
(208,476,c),
(218,473,o),
(218,473,o),
(228,464,c),
(240,454,o),
(243,416,o),
(236,328,c),
(228,254,o),
(223,260,o),
(218,214,c),
(214,160,o),
(195,157,o),
(212,132,cs),
(228,109,o),
(275,94,o),
(274,68,c),
(272,46,o),
(222,36,o),
(205,22,c),
(194,16,o),
(183,7,o),
(155,-2,c),
(143,-5,o),
(137,-11,o),
(120,-8,c),
(93,-1,o),
(77,14,o),
(73,37,c),
(69,52,o),
(73,80,o),
(93,94,c),
(127,118,o),
(149,101,o),
(176,150,cs),
(219,231,o),
(209,281,o),
(193,331,cs),
(183,359,o),
(181,371,o),
(166,411,cs),
(156,433,o),
(138,433,o),
(147,460,c),
(153,478,o),
(159,474,o),
(171,474,c),
(200,469,o),
(168,482,o),
(165,495,c),
(165,513,o),
(172,516,o),
(173,522,c)
);
}
);
width = 342;
},
{
layerId = m003;
shapes = (
{
attr = {
fill = 1;
};
closed = 1;
nodes = (
(160,527,o),
(152,531,o),
(146,537,c),
(145,540,o),
(136,547,o),
(136,562,c),
(135,574,o),
(142,590,o),
(155,590,c),
(163,588,o),
(148,575,o),
(152,563,c),
(158,554,o),
(163,559,o),
(170,556,c),
(178,553,o),
(178,553,o),
(189,546,c),
(195,543,o),
(199,535,o),
(193,530,c),
(184,525,o),
(185,525,o),
(180,522,c),
(170,515,o),
(157,513,o),
(157,500,cs),
(157,490,o),
(164,488,o),
(175,481,c),
(183,476,o),
(184,480,o),
(195,476,c),
(205,473,o),
(205,473,o),
(215,464,c),
(227,454,o),
(230,416,o),
(223,328,c),
(215,254,o),
(224,264,o),
(219,218,c),
(215,164,o),
(101,125,o),
(126,115,cs),
(176,95,o),
(266,233,o),
(281,184,c),
(291,152,o),
(251,74,o),
(163,62,c),
(116,53,o),
(170,33,o),
(142,-2,c),
(130,-11,o),
(124,-11,o),
(107,-8,c),
(80,-1,o),
(64,14,o),
(60,37,c),
(56,52,o),
(94,59,o),
(114,73,c),
(148,97,o),
(211,103,o),
(238,152,cs),
(281,233,o),
(271,283,o),
(255,333,cs),
(245,361,o),
(168,371,o),
(153,411,cs),
(143,433,o),
(125,433,o),
(134,460,c),
(140,478,o),
(146,474,o),
(158,474,c),
(187,469,o),
(155,482,o),
(152,495,c),
(152,513,o),
(159,516,o),
(160,522,c)
);
}
);
width = 329;
}
);
unicode = 105;
},
{
glyphname = j;
lastChange = "2023-04-15 17:57:15 +0000";
layers = (
{
layerId = m01;
shapes = (
{
attr = {
fill = 1;
};
closed = 1;
nodes = (
(430,695,o),
(433,661,c),
(433,631,o),
(433,622,o),
(412,607,c),
(403,600,o),
(393,596,o),
(387,585,c),
(383,577,o),
(383,557,o),
(391,536,c),
(394,526,o),
(396,514,o),
(407,511,c),
(417,509,o),
(421,508,o),
(445,500,c),
(476,476,o),
(460,431,o),
(453,365,c),
(444,307,o),
(437,274,o),
(430,180,c),
(428,107,o),
(437,68,o),
(437,1,c),
(437,-73,o),
(436,-107,o),
(424,-156,c),
(409,-208,o),
(404,-218,o),
(375,-250,c),
(337,-286,o),
(267,-296,o),
(239,-296,c),
(125,-296,o),
(105,-267,o),
(68,-215,c),
(55,-193,o),
(38,-162,o),
(40,-82,c),
(43,-22,o),
(73,35,o),
(139,38,c),
(206,38,o),
(217,11,o),
(225,-20,c),
(231,-55,o),
(229,-75,o),
(205,-110,c),
(198,-129,o),
(194,-142,o),
(202,-167,c),
(209,-186,o),
(210,-190,o),
(226,-199,c),
(257,-211,o),
(274,-208,o),
(289,-202,c),
(309,-192,o),
(338,-184,o),
(354,-82,c),
(362,-22,o),
(360,17,o),
(355,90,c),
(348,166,o),
(346,229,o),
(339,311,c),
(332,381,o),
(297,437,o),
(305,469,c),
(315,500,o),
(345,504,o),
(351,514,c),
(353,517,o),
(363,552,o),
(353,575,c),
(344,601,o),
(339,580,o),
(316,602,c),
(304,613,o),
(287,635,o),
(289,655,c),
(293,688,o),
(310,695,o),
(354,707,c),
(396,713,o)
);
}
);
width = 523;
},
{
layerId = m002;
shapes = (
{
attr = {
fill = 1;
};
closed = 1;
nodes = (
(185,573,o),
(192,553,c),
(196,535,o),
(197,529,o),
(189,516,c),
(185,510,o),
(179,506,o),
(178,498,c),
(177,493,o),
(186,467,o),
(232,475,c),
(250,477,o),
(252,477,o),
(264,472,c),
(279,467,o),
(279,467,o),
(304,454,c),
(338,434,o),
(345,361,o),
(357,307,c),
(372,245,o),
(372,161,o),
(365,51,c),
(363,-22,o),
(334,-54,o),
(334,-120,c),
(334,-189,o),
(333,-220,o),
(321,-249,c),
(306,-281,o),
(301,-288,o),
(272,-307,c),
(208,-328,o),
(148,-227,o),
(152,-146,c),
(153,-64,o),
(72,-102,o),
(62,-61,c),
(58,-44,o),
(56,-22,o),
(86,28,c),
(109,68,o),
(152,100,o),
(204,78,c),
(254,57,o),
(253,35,o),
(248,14,c),
(242,-9,o),
(232,-13,o),
(201,-37,c),
(190,-47,o),
(182,-54,o),
(179,-72,c),
(178,-86,o),
(186,-88,o),
(184,-124,c),
(180,-203,o),
(208,-255,o),
(227,-261,c),
(243,-267,o),
(276,-269,o),
(292,-201,c),
(300,-146,o),
(277,-134,o),
(298,-36,c),
(334,76,o),
(345,94,o),
(312,213,c),
(281,302,o),
(226,346,o),
(218,385,c),
(212,408,o),
(210,425,o),
(210,443,c),
(209,460,o),
(172,477,o),
(162,486,c),
(153,495,o),
(145,491,o),
(139,497,c),
(131,502,o),
(119,512,o),
(117,525,c),
(114,547,o),
(122,553,o),
(144,568,c),
(165,579,o)
);
}
);
width = 450;
},
{
layerId = m003;
shapes = (
{
attr = {
fill = 1;
};
closed = 1;
nodes = (
(87,549,o),
(92,535,c),
(95,523,o),
(95,518,o),
(90,509,c),
(87,505,o),
(83,503,o),
(82,497,c),
(101,493,o),
(110,467,o),
(156,475,c),
(174,477,o),
(179,480,o),
(191,475,c),
(206,467,o),
(219,464,o),
(219,429,c),
(216,352,o),
(240,281,o),
(271,227,c),
(295,172,o),
(296,161,o),
(289,51,c),
(287,-22,o),
(258,-54,o),
(258,-120,c),
(258,-189,o),
(257,-220,o),
(245,-249,c),
(230,-281,o),
(225,-288,o),
(196,-307,c),
(132,-328,o),
(72,-227,o),
(76,-146,c),
(77,-100,o),
(73,-101,o),
(69,-72,c),
(65,-55,o),
(68,-46,o),
(98,4,c),
(121,44,o),
(136,86,o),
(174,76,c),
(216,69,o),
(260,28,o),
(255,7,c),
(249,-16,o),
(156,-13,o),
(125,-37,c),
(114,-47,o),
(106,-54,o),
(103,-72,c),
(102,-86,o),
(110,-88,o),
(108,-124,c),
(104,-203,o),
(132,-255,o),
(151,-261,c),
(167,-267,o),
(200,-269,o),
(216,-201,c),
(224,-146,o),
(201,-134,o),
(222,-36,c),
(277,76,o),
(336,458,o),
(271,416,c),
(189,356,o),
(344,-22,o),
(142,385,c),
(136,408,o),
(134,425,o),
(134,443,c),
(133,460,o),
(96,477,o),
(86,486,c),
(65,495,o),
(62,494,o),
(50,498,c),
(45,502,o),
(41,507,o),
(40,516,c),
(38,531,o),
(44,535,o),
(59,545,c),
(73,553,o)
);
}
);
width = 370;
}
);
unicode = 106;
},
{
glyphname = k;
lastChange = "2023-04-12 15:01:49 +0000";
layers = (
{
background = {
shapes = (
{
attr = {
fill = "1";
strokeWidth = 20;
};
closed = 1;
nodes = (
(108,476,o),
(123,547,o),
(119,597,c),
(114,657,o),
(85,708,o),
(114,766,c),
(122,782,o),
(139,810,o),
(170,815,c),
(204,821,o),
(228,797,o),
(239,777,c),
(267,723,o),
(242,658,o),
(196,588,c),
(177,559,o),
(172,531,o),
(158,461,c),
(152,418,o),
(147,376,o),
(162,364,c),
(176,356,o),
(197,358,o),
(215,370,c),
(265,410,o),
(255,402,o),
(297,437,c),
(319,452,o),
(360,471,o),
(392,458,c),
(439,442,o),
(445,391,o),
(429,334,c),
(401,259,o),
(366,243,o),
(387,173,c),
(400,133,o),
(439,123,o),
(454,71,c),
(459,56,o),
(462,30,o),
(445,3,c),
(423,-30,o),
(352,-27,o),
(317,13,c),
(283,54,o),
(300,116,o),
(303,126,c),
(312,154,o),
(312,154,o),
(326,186,c),
(339,216,o),
(338,239,o),
(326,270,c),
(318,289,o),
(302,317,o),
(285,314,c),
(273,312,o),
(267,287,o),
(264,273,c),
(252,225,o),
(266,197,o),
(276,117,c),
(282,59,o),
(279,44,o),
(270,29,c),
(256,6,o),
(233,-2,o),
(219,-7,c),
(188,-13,o),
(157,-30,o),
(116,-1,c),
(85,22,o),
(80,57,o),
(75,85,c),
(73,95,o),
(68,147,o),
(82,192,c),
(99,249,o),
(100,242,o),
(110,270,c),
(123,317,o),
(97,322,o),
(102,392,c)
);
}
);
};
layerId = m01;
shapes = (
{
attr = {
fill = 1;
};
closed = 1;
nodes = (
(109,489,o),
(117,508,o),
(117,588,c),
(111,663,o),
(88,719,o),
(114,766,c),
(141,815,o),
(168,824,o),
(209,810,c),
(252,794,o),
(255,760,o),
(254,724,c),
(240,647,o),
(214,644,o),
(177,559,c),
(141,474,o),
(136,399,o),
(162,364,c),
(179,352,o),
(206,412,o),
(223,447,c),
(235,470,o),
(249,498,o),
(281,557,c),
(295,585,o),
(326,636,o),
(380,632,c),
(418,635,o),
(450,594,o),
(453,559,c),
(456,508,o),
(361,488,o),
(311,456,c),
(276,433,o),
(251,407,o),
(255,402,c),
(260,392,o),
(313,440,o),
(377,412,c),
(417,387,o),
(427,326,o),
(392,256,c),
(370,218,o),
(377,194,o),
(390,173,c),
(415,136,o),
(436,116,o),
(450,93,c),
(468,62,o),
(464,7,o),
(437,-7,c),
(396,-26,o),
(354,-16,o),
(340,-7,c),
(333,-4,o),
(317,10,o),
(306,32,c),
(297,54,o),
(295,82,o),
(308,135,c),
(318,174,o),
(347,229,o),
(335,263,c),
(324,293,o),
(312,316,o),
(292,320,c),
(281,323,o),
(207,313,o),
(199,255,c),
(182,151,o),
(247,159,o),
(256,77,c),
(257,31,o),
(239,-2,o),
(188,-13,c),
(136,-19,o),
(113,-8,o),
(87,27,c),
(79,36,o),
(68,84,o),
(71,117,c),
(71,173,o),
(102,222,o),
(114,291,c),
(117,329,o),
(97,338,o),
(100,400,c)
);
}
);
width = 521;
},
{
layerId = m002;
shapes = (
{
attr = {
fill = 1;
};
closed = 1;
nodes = (
(153,581,o),
(133,635,o),
(115,690,c),
(95,738,o),
(68,742,o),
(78,774,c),
(96,823,o),
(121,811,o),
(139,803,c),
(172,787,o),
(187,784,o),
(187,725,c),
(186,667,o),
(214,548,o),
(197,485,c),
(183,420,o),
(138,355,o),
(182,335,c),
(210,326,o),
(215,348,o),
(235,372,c),
(274,428,o),
(247,464,o),
(272,505,c),
(287,529,o),
(311,535,o),
(342,535,c),
(378,535,o),
(414,493,o),
(405,459,c),
(388,383,o),
(336,437,o),
(288,411,c),
(253,388,o),
(250,340,o),
(265,339,c),
(311,329,o),
(375,434,o),
(418,412,c),
(458,387,o),
(428,284,o),
(383,271,c),
(358,263,o),
(355,254,o),
(366,234,c),
(383,207,o),
(397,192,o),
(406,176,c),
(418,153,o),
(415,113,o),
(397,102,c),
(370,88,o),
(342,96,o),
(333,102,c),
(328,105,o),
(312,115,o),
(304,131,c),
(294,147,o),
(287,168,o),
(296,206,c),
(304,236,o),
(321,250,o),
(353,281,c),
(383,313,o),
(353,316,o),
(333,320,c),
(306,326,o),
(248,313,o),
(240,255,c),
(223,151,o),
(312,154,o),
(321,72,c),
(322,26,o),
(280,-2,o),
(229,-13,c),
(177,-19,o),
(154,-8,o),
(128,27,c),
(116,41,o),
(112,84,o),
(112,117,c),
(112,267,o),
(115,316,o),
(131,420,c),
(140,481,o),
(145,454,o),
(150,548,c)
);
}
);
width = 517;
},
{
layerId = m003;
shapes = (
{
attr = {
fill = 1;
};
closed = 1;
nodes = (
(185,581,o),
(185,635,o),
(167,690,c),
(147,738,o),
(67,742,o),
(77,774,c),
(95,823,o),
(120,811,o),
(138,803,c),
(171,787,o),
(186,784,o),
(186,725,c),
(185,667,o),
(213,548,o),
(196,485,c),
(182,420,o),
(31,301,o),
(65,255,c),
(113,209,o),
(166,271,o),
(199,316,c),
(238,372,o),
(246,464,o),
(271,505,c),
(286,529,o),
(310,535,o),
(341,535,c),
(377,535,o),
(413,493,o),
(404,459,c),
(387,383,o),
(324,456,o),
(287,411,c),
(247,359,o),
(258,264,o),
(280,259,c),
(338,248,o),
(374,434,o),
(417,412,c),
(457,387,o),
(427,284,o),
(382,271,c),
(357,263,o),
(354,254,o),
(365,234,c),
(382,207,o),
(396,192,o),
(405,176,c),
(417,153,o),
(414,137,o),
(396,102,c),
(365,56,o),
(331,57,o),
(292,82,c),
(287,85,o),
(271,95,o),
(263,111,c),
(253,127,o),
(246,148,o),
(255,186,c),
(263,216,o),
(331,247,o),
(363,278,c),
(393,310,o),
(352,316,o),
(332,320,c),
(305,326,o),
(247,313,o),
(239,255,c),
(222,151,o),
(388,197,o),
(397,115,c),
(398,69,o),
(247,158,o),
(246,7,c),
(240,-31,o),
(156,-7,o),
(156,56,c),
(156,90,o),
(213,131,o),
(213,199,c),
(213,316,o),
(149,316,o),
(165,420,c),
(174,481,o),
(177,454,o),
(182,548,c)
);
}
);
width = 516;
}
);
unicode = 107;
},
{
glyphname = l;
lastChange = "2023-04-12 15:02:48 +0000";
layers = (
{
layerId = m01;
shapes = (
{
attr = {
fill = 1;
};
closed = 1;
nodes = (
(94,643,o),
(93,684,o),
(94,710,c),
(95,747,o),
(94,766,o),
(109,785,c),
(120,800,o),
(144,818,o),
(167,814,c),
(203,809,o),
(226,779,o),
(230,752,c),
(235,719,o),
(225,687,o),
(194,632,c),
(179,591,o),
(154,570,o),
(144,508,c),
(137,461,o),
(131,415,o),
(131,363,c),
(131,328,o),
(131,284,o),
(167,212,c),
(192,144,o),
(271,162,o),
(273,75,c),
(273,26,o),
(254,8,o),
(226,-7,c),
(195,-22,o),
(151,-18,o),
(120,0,c),
(72,31,o),
(60,81,o),
(60,157,c),
(64,242,o),
(95,296,o),
(95,364,c),
(97,482,o),
(99,500,o),
(96,597,c)
);
}
);
width = 323;
},
{
layerId = m002;
shapes = (
{
attr = {
fill = 1;
};
closed = 1;
nodes = (
(104,643,o),
(103,678,o),
(102,703,c),
(99,740,o),
(99,758,o),
(108,779,c),
(113,792,o),
(128,811,o),
(142,808,c),
(164,806,o),
(197,779,o),
(203,752,c),
(213,719,o),
(203,689,o),
(169,632,c),
(155,591,o),
(136,570,o),
(132,509,c),
(130,461,o),
(137,428,o),
(130,366,c),
(123,324,o),
(100,184,o),
(112,141,c),
(129,99,o),
(173,114,o),
(177,56,c),
(179,23,o),
(170,11,o),
(155,0,c),
(136,-11,o),
(111,-11,o),
(92,0,c),
(64,17,o),
(55,51,o),
(52,101,c),
(51,158,o),
(103,302,o),
(102,365,c),
(106,482,o),
(105,504,o),
(104,589,c)
);
}
);
width = 261;
},
{
layerId = m003;
shapes = (
{
attr = {
fill = 1;
};
closed = 1;
nodes = (
(104,643,o),
(103,678,o),
(102,703,c),
(99,740,o),
(99,758,o),
(108,779,c),
(113,792,o),
(128,811,o),
(142,808,c),
(164,806,o),
(197,779,o),
(203,752,c),
(213,719,o),
(165,731,o),
(131,647,c),
(117,606,o),
(136,570,o),
(132,509,c),
(130,461,o),
(154,410,o),
(142,329,c),
(135,287,o),
(74,113,o),
(86,70,c),
(103,28,o),
(169,309,o),
(173,251,c),
(175,218,o),
(170,11,o),
(155,0,c),
(136,-11,o),
(111,-11,o),
(92,0,c),
(64,17,o),
(27,51,o),
(52,101,c),
(89,196,o),
(193,211,o),
(213,314,c),
(232,482,o),
(105,504,o),
(104,589,c)
);
}
);
width = 285;
}
);
unicode = 108;
},
{
glyphname = m;
lastChange = "2023-04-12 15:03:28 +0000";
layers = (
{
layerId = m01;
shapes = (
{
attr = {
fill = 1;
};
closed = 1;
nodes = (
(203,342,o),
(198,321,o),
(180,280,c),
(155,215,o),
(94,212,o),
(69,154,c),
(58,112,o),
(54,79,o),
(74,51,c),
(82,35,o),
(109,26,o),
(162,9,c),
(217,-6,o),
(227,-7,o),
(247,-2,c),
(273,6,o),
(283,23,o),
(285,48,c),
(285,63,o),
(281,70,o),
(270,95,c),
(253,132,o),
(247,169,o),
(247,193,c),
(248,218,o),
(263,268,o),
(283,294,c),
(286,297,o),
(298,310,o),
(305,308,c),
(313,303,o),
(314,276,o),
(309,256,c),
(303,229,o),
(285,212,o),
(281,192,c),
(276,171,o),
(285,144,o),
(298,128,c),
(327,100,o),
(382,111,o),
(414,139,c),
(447,168,o),
(451,186,o),
(482,233,c),
(496,254,o),
(525,328,o),
(566,323,c),
(600,317,o),
(626,291,o),
(633,249,c),
(638,195,o),
(635,166,o),
(623,111,c),
(616,81,o),
(578,48,o),
(610,19,c),
(639,-2,o),
(689,6,o),
(713,38,c),
(735,69,o),
(730,99,o),
(725,123,c),
(718,145,o),
(702,166,o),
(682,188,c),
(662,215,o),
(643,241,o),
(662,335,c),
(665,348,o),
(687,394,o),
(687,426,c),
(686,462,o),
(665,486,o),
(628,501,c),
(585,518,o),
(541,484,o),
(534,477,c),
(501,444,o),
(502,424,o),
(460,338,c),
(411,242,o),
(380,238,o),
(374,238,c),
(344,238,o),
(332,275,o),
(328,291,c),
(316,336,o),
(316,349,o),
(302,413,c),
(295,460,o),
(285,495,o),
(263,502,c),
(237,511,o),
(212,496,o),
(197,464,c),
(188,440,o),
(203,411,o),
(203,368,c)
);
}
);
width = 779;
},
{
layerId = m002;
shapes = (
{
attr = {
fill = 1;
};
closed = 1;
nodes = (
(242,339,o),
(198,309,o),
(177,263,c),
(152,197,o),
(166,144,o),
(104,118,c),
(41,90,o),
(4,80,o),
(25,51,c),
(41,23,o),
(60,26,o),
(113,9,c),
(167,-6,o),
(177,-7,o),
(198,-2,c),
(224,7,o),
(234,23,o),
(235,49,c),
(235,64,o),
(232,71,o),
(221,96,c),
(204,133,o),
(198,157,o),
(198,195,c),
(198,220,o),
(214,271,o),
(234,297,c),
(237,300,o),
(249,313,o),
(257,311,c),
(264,306,o),
(265,279,o),
(260,258,c),
(254,231,o),
(235,214,o),
(232,194,c),
(227,173,o),
(235,145,o),
(249,129,c),
(278,101,o),
(330,92,o),
(364,131,c),
(390,157,o),
(369,225,o),
(393,266,c),
(404,284,o),
(450,396,o),
(508,367,c),
(537,352,o),
(545,318,o),
(546,298,c),
(551,251,o),
(559,225,o),
(549,176,c),
(544,140,o),
(524,69,o),
(571,66,c),
(596,66,o),
(608,93,o),
(615,112,c),
(622,131,o),
(618,165,o),
(615,186,c),
(608,207,o),
(596,225,o),
(581,245,c),
(565,268,o),
(556,285,o),
(559,304,c),
(561,316,o),
(577,356,o),
(577,385,c),
(577,417,o),
(561,438,o),
(532,451,c),
(498,466,o),
(480,451,o),
(458,430,c),
(432,401,o),
(434,383,o),
(400,308,c),
(362,222,o),
(344,220,o),
(325,225,c),
(295,231,o),
(283,278,o),
(279,294,c),
(268,340,o),
(268,352,o),
(253,417,c),
(247,465,o),
(235,500,o),
(214,507,c),
(188,516,o),
(162,501,o),
(147,469,c),
(117,398,o),
(204,415,o),
(227,367,c)
);
}
);
width = 644;
},
{
layerId = m003;
shapes = (
{
attr = {
fill = 1;
};
closed = 1;
nodes = (
(263,339,o),
(219,309,o),
(198,263,c),
(173,197,o),
(187,144,o),
(125,118,c),
(62,90,o),
(25,80,o),
(46,51,c),
(62,23,o),
(81,26,o),
(134,9,c),
(188,-6,o),
(198,-7,o),
(219,-2,c),
(245,7,o),
(255,23,o),
(256,49,c),
(256,64,o),
(253,71,o),
(242,96,c),
(225,133,o),
(136,150,o),
(137,225,c),
(145,388,o),
(291,389,o),
(311,415,c),
(314,418,o),
(326,431,o),
(334,429,c),
(353,423,o),
(348,398,o),
(337,376,c),
(319,338,o),
(256,214,o),
(253,194,c),
(248,173,o),
(256,145,o),
(270,129,c),
(299,101,o),
(351,92,o),
(385,131,c),
(411,157,o),
(319,275,o),
(354,316,c),
(409,388,o),
(471,396,o),
(529,367,c),
(558,352,o),
(566,318,o),
(567,298,c),
(572,251,o),
(580,225,o),
(570,176,c),
(565,140,o),
(545,69,o),
(592,66,c),
(617,66,o),
(629,93,o),
(636,112,c),
(643,131,o),
(617,139,o),
(605,160,c),
(587,187,o),
(590,198,o),
(587,255,c),
(587,291,o),
(587,300,o),
(586,320,c),
(585,344,o),
(564,365,o),
(572,398,c),
(575,417,o),
(582,438,o),
(553,451,c),
(519,466,o),
(501,451,o),
(479,430,c),
(453,401,o),
(455,383,o),
(421,308,c),
(383,222,o),
(365,220,o),
(346,225,c),
(316,231,o),
(304,278,o),
(300,294,c),
(289,340,o),
(289,352,o),
(274,417,c),
(263,465,o),
(256,500,o),
(235,507,c),
(209,516,o),
(183,501,o),
(168,469,c),
(138,398,o),
(225,415,o),
(248,367,c)
);
}
);
width = 697;
}
);
unicode = 109;
},
{
glyphname = n;
lastChange = "2023-04-12 15:04:04 +0000";
layers = (
{
layerId = m01;
shapes = (
{
attr = {
fill = 1;
};
closed = 1;
nodes = (
(138,463,o),
(116,443,o),
(104,411,c),
(93,383,o),
(98,371,o),
(92,335,c),
(86,280,o),
(76,279,o),
(67,208,c),
(61,169,o),
(57,148,o),
(62,119,c),
(65,92,o),
(64,50,o),
(89,26,c),
(112,4,o),
(140,-2,o),
(152,-3,c),
(161,-4,o),
(191,-8,o),
(222,17,c),
(248,41,o),
(230,72,o),
(218,114,c),
(198,177,o),
(158,258,o),
(154,300,c),
(148,355,o),
(196,418,o),
(214,435,c),
(250,464,o),
(279,463,o),
(282,462,c),
(297,460,o),
(305,442,o),
(308,435,c),
(318,404,o),
(297,358,o),
(272,225,c),
(267,197,o),
(262,177,o),
(262,147,c),
(262,125,o),
(262,116,o),
(264,95,c),
(268,61,o),
(271,46,o),
(284,26,c),
(295,11,o),
(303,5,o),
(318,0,c),
(328,-4,o),
(370,-22,o),
(418,12,c),
(449,36,o),
(453,72,o),
(455,85,c),
(461,123,o),
(449,151,o),
(437,181,c),
(392,296,o),
(419,304,o),
(376,383,c),
(352,432,o),
(327,478,o),
(278,497,c),
(271,500,o),
(219,516,o),
(172,492,c),
(159,486,o),
(149,475,o),
(145,469,c)
);
}
);
width = 542;
},
{
layerId = m002;
shapes = (
{
attr = {
fill = 1;
};
closed = 1;
nodes = (
(104,459,o),
(88,448,o),
(76,415,c),
(65,387,o),
(66,375,o),
(64,338,c),
(61,281,o),
(84,275,o),
(75,204,c),
(69,165,o),
(70,149,o),
(70,113,c),
(72,86,o),
(84,43,o),
(97,20,c),
(104,9,o),
(106,4,o),
(125,-6,c),
(145,-14,o),
(165,-8,o),
(196,16,c),
(222,41,o),
(204,73,o),
(192,114,c),
(172,178,o),
(138,258,o),
(128,304,c),
(115,359,o),
(111,423,o),
(162,467,c),
(198,496,o),
(249,489,o),
(252,489,c),
(266,486,o),
(286,473,o),
(287,451,c),
(286,335,o),
(156,359,o),
(157,261,c),
(157,222,o),
(181,188,o),
(208,177,c),
(244,159,o),
(264,191,o),
(279,170,c),
(291,141,o),
(260,128,o),
(264,70,c),
(266,43,o),
(284,35,o),
(302,14,c),
(319,-7,o),
(361,-23,o),
(394,11,c),
(414,43,o),
(365,54,o),
(370,85,c),
(376,124,o),
(426,130,o),
(414,182,c),
(387,265,o),
(260,159,o),
(287,296,c),
(301,370,o),
(401,462,o),
(253,502,c),
(204,511,o),
(196,511,o),
(151,493,c),
(139,486,o),
(118,470,o),
(111,466,c)
);
}
);
width = 462;
},
{
layerId = m003;
shapes = (
{
attr = {
fill = 1;
};
closed = 1;
nodes = (
(100,459,o),
(84,448,o),
(72,415,c),
(61,387,o),
(62,375,o),
(60,338,c),
(57,281,o),
(153,249,o),
(144,178,c),
(138,139,o),
(90,157,o),
(78,91,c),
(72,64,o),
(80,43,o),
(93,20,c),
(100,9,o),
(102,4,o),
(121,-6,c),
(141,-14,o),
(161,-8,o),
(192,16,c),
(218,41,o),
(234,89,o),
(222,130,c),
(202,194,o),
(134,258,o),
(124,304,c),
(111,359,o),
(107,423,o),
(158,467,c),
(194,496,o),
(245,489,o),
(248,489,c),
(262,486,o),
(282,473,o),
(283,451,c),
(282,335,o),
(93,350,o),
(94,252,c),
(94,213,o),
(175,212,o),
(222,230,c),
(280,252,o),
(337,338,o),
(395,276,c),
(458,184,o),
(256,128,o),
(260,70,c),
(262,43,o),
(280,35,o),
(298,14,c),
(315,-7,o),
(357,-23,o),
(390,11,c),
(410,43,o),
(361,54,o),
(366,85,c),
(372,124,o),
(422,130,o),
(410,182,c),
(383,265,o),
(256,159,o),
(283,296,c),
(297,370,o),
(397,462,o),
(249,502,c),
(200,511,o),
(192,511,o),
(147,493,c),
(135,486,o),
(114,470,o),
(107,466,c)
);
}
);
width = 462;
}
);
unicode = 110;
},
{
glyphname = o;
lastChange = "2023-04-12 15:04:11 +0000";
layers = (
{
layerId = m01;
shapes = (
{
attr = {
fill = 1;
};
closed = 1;
nodes = (
(269,-15,o),
(355,2,o),
(387,38,c),
(395,47,o),
(395,51,o),
(412,76,c),
(444,124,o),
(445,127,o),
(454,135,c),
(479,161,o),
(497,159,o),
(517,178,c),
(548,210,o),
(545,233,o),
(541,293,c),
(527,449,o),
(458,485,o),
(382,503,c),
(359,507,o),
(334,508,o),
(303,503,c),
(293,500,o),
(270,495,o),
(248,485,c),
(236,478,o),
(229,476,o),
(207,459,c),
(191,443,o),
(179,426,o),
(178,399,c),
(176,385,o),
(170,373,o),
(163,358,c),
(152,338,o),
(151,338,o),
(138,322,c),
(118,300,o),
(99,289,o),
(90,281,c),
(34,239,o),
(52,158,o),
(54,144,c),
(58,130,o),
(84,25,o),
(200,-1,c)
);
},
{
attr = {
fill = 1;
};
closed = 1;
nodes = (
(234,92,o),
(189,145,o),
(186,190,c),
(184,217,o),
(189,242,o),
(201,266,c),
(210,283,o),
(212,289,o),
(220,308,c),
(226,322,o),
(237,335,o),
(253,348,c),
(268,359,o),
(292,366,o),
(304,366,c),
(343,367,o),
(368,360,o),
(396,332,c),
(408,322,o),
(423,298,o),
(423,266,c),
(423,245,o),
(420,242,o),
(417,207,c),
(412,185,o),
(417,173,o),
(409,156,c),
(401,139,o),
(389,124,o),
(373,112,c),
(340,83,o),
(293,87,o),
(292,87,c)
);
}
);
width = 583;
},
{
layerId = m002;
shapes = (
{
attr = {
fill = 1;
};
closed = 1;
nodes = (
(241,-15,o),
(326,-17,o),
(362,20,c),
(372,31,o),
(383,36,o),
(386,67,cs),
(391,90,o),
(373,114,o),
(383,130,c),
(404,173,o),
(432,156,o),
(455,175,c),
(488,208,o),
(458,233,o),
(455,296,c),
(438,456,o),
(407,485,o),
(355,504,c),
(312,513,o),
(302,507,o),
(268,507,c),
(256,507,o),
(235,504,o),
(211,485,c),
(202,476,o),
(193,465,o),
(181,441,c),
(172,414,o),
(173,399,o),
(172,371,c),
(168,357,o),
(163,343,o),
(155,329,c),
(142,306,o),
(141,306,o),
(126,291,c),
(110,269,o),
(102,262,o),
(61,236,c),
(21,210,o),
(41,164,o),
(42,150,c),
(48,135,o),
(100,23,o),
(165,11,c)
);
},
{
attr = {
fill = 1;
};
closed = 1;
nodes = (
(201,158,o),
(197,195,o),
(187,216,c),
(165,263,o),
(197,285,o),
(220,306,c),
(235,321,o),
(240,329,o),
(259,343,c),
(271,357,o),
(287,366,o),
(308,373,c),
(326,382,o),
(352,381,o),
(362,374,c),
(396,363,o),
(414,346,o),
(426,306,c),
(438,268,o),
(426,247,o),
(391,227,c),
(351,212,o),
(339,227,o),
(313,202,c),
(292,177,o),
(301,175,o),
(303,143,c),
(300,117,o),
(286,109,o),
(271,104,c),
(238,91,o),
(214,128,o),
(214,128,c)
);
}
);
width = 511;
},
{
layerId = m003;
shapes = (
{
attr = {
fill = 1;
};
closed = 1;
nodes = (
(251,-27,o),
(307,-17,o),
(349,20,c),
(359,31,o),
(373,36,o),
(373,67,cs),
(373,102,o),
(293,129,o),
(321,182,c),
(342,225,o),
(419,156,o),
(442,175,c),
(475,208,o),
(430,273,o),
(316,285,c),
(260,287,o),
(341,409,o),
(333,462,c),
(316,508,o),
(289,507,o),
(255,507,c),
(243,507,o),
(222,504,o),
(198,485,c),
(189,476,o),
(180,465,o),
(168,441,c),
(159,414,o),
(182,402,o),
(198,365,c),
(204,351,o),
(203,333,o),
(181,323,c),
(144,305,o),
(174,261,o),
(157,252,c),
(133,237,o),
(70,269,o),
(70,229,c),
(70,184,o),
(199,234,o),
(213,191,c),
(229,133,o),
(177,102,o),
(217,28,c)
);
},
{
attr = {
fill = 1;
};
closed = 1;
nodes = (
(230,216,o),
(225,234,o),
(218,248,c),
(204,278,o),
(204,286,o),
(219,310,c),
(230,329,o),
(243,337,o),
(253,346,c),
(268,360,o),
(289,372,o),
(301,399,c),
(330,476,o),
(339,388,o),
(349,374,c),
(373,341,o),
(401,346,o),
(413,306,c),
(425,268,o),
(432,221,o),
(378,227,c),
(353,228,o),
(333,264,o),
(306,211,c),
(298,177,o),
(312,102,o),
(308,78,c),
(306,61,o),
(289,47,o),
(272,58,c),
(243,83,o),
(236,191,o),
(236,191,c)
);
}
);
width = 523;
}
);
unicode = 111;
},
{
glyphname = p;
lastChange = "2023-04-12 15:04:23 +0000";
layers = (
{
layerId = m01;
shapes = (
{
attr = {
fill = 1;
};
closed = 1;
nodes = (
(101,427,o),
(109,359,o),
(111,344,c),
(115,308,o),
(124,311,o),
(128,277,c),
(133,232,o),
(122,221,o),
(120,173,c),
(120,121,o),
(132,120,o),
(134,68,c),
(136,15,o),
(125,-24,o),
(117,-46,c),
(96,-119,o),
(71,-127,o),
(64,-183,c),
(60,-214,o),
(54,-255,o),
(80,-284,c),
(109,-313,o),
(157,-312,o),
(192,-296,c),
(236,-278,o),
(252,-239,o),
(260,-193,c),
(260,-178,o),
(262,-171,o),
(255,-114,c),
(246,-79,o),
(228,-64,o),
(202,0,c),
(183,68,o),
(161,110,o),
(159,173,c),
(159,188,o),
(159,200,o),
(168,210,c),
(188,224,o),
(225,181,o),
(279,177,c),
(287,177,o),
(366,166,o),
(420,213,c),
(450,240,o),
(477,266,o),
(486,339,c),
(492,405,o),
(450,443,o),
(415,464,c),
(377,484,o),
(327,470,o),
(272,493,c),
(231,510,o),
(210,510,o),
(182,505,c),
(162,501,o),
(150,486,o),
(140,475,c)
);
},
{
attr = {
fill = 1;
};
closed = 1;
nodes = (
(285,370,o),
(294,359,o),
(323,355,c),
(359,351,o),
(369,365,o),
(392,357,c),
(413,351,o),
(431,329,o),
(430,308,c),
(427,280,o),
(388,263,o),
(363,259,c),
(329,255,o),
(288,267,o),
(272,299,c),
(260,322,o),
(260,356,o),
(273,364,c)
);
}
);
width = 552;
},
{
layerId = m002;
shapes = (
{
attr = {
fill = 1;
};
closed = 1;
nodes = (
(100,405,o),
(99,341,o),
(101,318,c),
(105,264,o),
(110,259,o),
(118,217,c),
(126,170,o),
(91,116,o),
(129,64,c),
(151,31,o),
(170,38,o),
(196,-4,c),
(211,-30,o),
(217,-52,o),
(216,-72,c),
(213,-129,o),
(186,-154,o),
(191,-222,c),
(194,-275,o),
(211,-287,o),
(232,-302,c),
(259,-318,o),
(286,-302,o),
(305,-260,c),
(327,-203,o),
(327,-129,o),
(323,-104,c),
(320,-90,o),
(317,-71,o),
(303,-37,c),
(290,-7,o),
(266,27,o),
(229,55,c),
(194,81,o),
(175,67,o),
(155,99,c),
(133,135,o),
(146,210,o),
(155,228,c),
(176,261,o),
(180,160,o),
(240,64,c),
(263,39,o),
(322,3,o),
(364,74,c),
(394,124,o),
(421,170,o),
(430,291,c),
(436,390,o),
(399,447,o),
(359,447,c),
(311,447,o),
(287,381,o),
(232,416,c),
(200,437,o),
(211,506,o),
(181,511,c),
(161,511,o),
(149,493,o),
(139,478,c)
);
},
{
attr = {
fill = 1;
};
closed = 1;
nodes = (
(260,344,o),
(268,334,o),
(293,330,c),
(325,327,o),
(333,341,o),
(352,332,c),
(370,327,o),
(385,302,o),
(384,282,c),
(381,248,o),
(349,168,o),
(327,166,c),
(299,159,o),
(263,241,o),
(250,273,c),
(240,297,o),
(240,332,o),
(251,341,c)
);
}
);
width = 516;
},
{
layerId = m003;
shapes = (
{
attr = {
fill = 1;
};
closed = 1;
nodes = (
(100,405,o),
(99,341,o),
(101,318,c),
(105,264,o),
(110,259,o),
(118,217,c),
(126,170,o),
(91,116,o),
(129,64,c),
(151,31,o),
(236,54,o),
(255,7,c),
(270,-25,o),
(272,-56,o),
(271,-76,c),
(268,-133,o),
(186,-154,o),
(191,-222,c),
(194,-275,o),
(211,-287,o),
(232,-302,c),
(259,-318,o),
(281,-295,o),
(291,-253,c),
(299,-207,o),
(293,-174,o),
(299,-125,c),
(303,-84,o),
(305,-76,o),
(303,-37,c),
(303,-2,o),
(277,36,o),
(247,83,c),
(222,141,o),
(194,119,o),
(155,136,c),
(94,161,o),
(40,224,o),
(70,257,c),
(105,288,o),
(180,160,o),
(240,64,c),
(263,39,o),
(322,3,o),
(364,74,c),
(394,124,o),
(395,170,o),
(404,291,c),
(410,390,o),
(399,447,o),
(359,447,c),
(311,447,o),
(275,186,o),
(220,221,c),
(188,242,o),
(211,506,o),
(181,511,c),
(161,511,o),
(149,493,o),
(139,478,c)
);
},
{
attr = {
fill = 1;
};
closed = 1;
nodes = (
(265,349,o),
(268,334,o),
(293,330,c),
(325,327,o),
(333,341,o),
(352,332,c),
(370,327,o),
(385,302,o),
(384,282,c),
(381,248,o),
(349,168,o),
(327,166,c),
(299,159,o),
(263,241,o),
(250,273,c),
(240,297,o),
(240,332,o),
(251,341,c)
);
}
);
width = 476;
}
);
unicode = 112;
},
{
glyphname = q;
lastChange = "2023-04-12 15:05:20 +0000";
layers = (
{
layerId = m01;
shapes = (
{
attr = {
fill = 1;
};
closed = 1;
nodes = (
(355,-261,o),
(341,-269,o),
(399,-216,c),
(444,-176,o),
(470,-182,o),
(507,-132,c),
(534,-90,o),
(548,-29,o),
(513,19,c),
(479,62,o),
(374,47,o),
(376,-60,c),
(377,-117,o),
(356,-177,o),
(344,-195,c),
(332,-216,o),
(318,-234,o),
(305,-229,c),
(292,-222,o),
(295,-39,o),
(319,37,c),
(356,155,o),
(374,163,o),
(409,247,c),
(452,384,o),
(362,476,o),
(288,494,c),
(199,516,o),
(159,507,o),
(118,448,c),
(98,415,o),
(98,400,o),
(87,350,c),
(75,305,o),
(63,269,o),
(65,246,c),
(69,162,o),
(109,130,o),
(162,124,c),
(218,120,o),
(247,147,o),
(266,193,c),
(288,241,o),
(292,243,o),
(300,260,c),
(308,273,o),
(317,288,o),
(333,277,c),
(351,256,o),
(326,232,o),
(295,110,c),
(273,20,o),
(258,-125,o),
(243,-223,c),
(233,-313,o),
(303,-302,o),
(330,-285,c)
);
},
{
attr = {
fill = 1;
};
closed = 1;
nodes = (
(166,215,o),
(135,220,o),
(125,239,c),
(115,259,o),
(127,264,o),
(138,317,c),
(150,369,o),
(145,389,o),
(163,402,c),
(172,407,o),
(186,413,o),
(198,406,c),
(226,390,o),
(226,313,o),
(224,302,c),
(221,272,o),
(210,237,o),
(185,224,c)
);
}
);
width = 574;
},
{
layerId = m002;
shapes = (
{
attr = {
fill = 1;
};
closed = 1;
nodes = (
(358,-268,o),
(366,-238,o),
(398,-183,c),
(432,-133,o),
(447,-140,o),
(470,-69,c),
(487,-20,o),
(496,41,o),
(474,89,c),
(453,132,o),
(387,117,o),
(388,10,c),
(389,-47,o),
(390,-136,o),
(377,-188,c),
(365,-226,o),
(351,-244,o),
(338,-237,c),
(293,-218,o),
(296,-13,o),
(320,69,c),
(357,204,o),
(368,199,o),
(393,256,c),
(451,385,o),
(371,503,o),
(297,508,c),
(225,508,o),
(174,470,o),
(144,397,c),
(128,352,o),
(124,342,o),
(113,285,c),
(101,234,o),
(89,212,o),
(91,166,c),
(95,70,o),
(135,34,o),
(188,27,c),
(244,22,o),
(273,53,o),
(292,106,c),
(314,161,o),
(293,223,o),
(309,261,c),
(317,276,o),
(326,293,o),
(342,280,c),
(360,256,o),
(335,229,o),
(304,90,c),
(293,18,o),
(271,-58,o),
(256,-199,c),
(246,-328,o),
(312,-328,o),
(343,-288,c)
);
},
{
attr = {
fill = 1;
};
closed = 1;
nodes = (
(237,89,o),
(215,94,o),
(207,121,c),
(199,146,o),
(208,151,o),
(216,220,c),
(226,289,o),
(221,316,o),
(235,331,c),
(241,339,o),
(252,346,o),
(262,337,c),
(281,317,o),
(281,216,o),
(281,202,c),
(281,151,o),
(270,117,o),
(251,100,c)
);
}
);
width = 572;
},
{
layerId = m003;
shapes = (
{
attr = {
fill = 1;
};
closed = 1;
nodes = (
(334,-189,o),
(185,-70,o),
(382,-9,c),
(415,5,o),
(412,49,o),
(407,123,c),
(405,175,o),
(392,235,o),
(354,272,c),
(318,304,o),
(293,268,o),
(347,181,c),
(384,122,o),
(420,7,o),
(445,-30,c),
(469,-70,o),
(441,-92,o),
(427,-90,c),
(188,-102,o),
(237,-13,o),
(261,69,c),
(298,204,o),
(309,199,o),
(334,256,c),
(392,385,o),
(312,503,o),
(238,508,c),
(166,508,o),
(141,471,o),
(133,393,c),
(128,335,o),
(133,330,o),
(122,273,c),
(110,222,o),
(70,210,o),
(70,159,c),
(69,105,o),
(78,31,o),
(129,27,c),
(185,22,o),
(308,8,o),
(327,61,c),
(349,116,o),
(234,223,o),
(250,261,c),
(258,276,o),
(267,293,o),
(283,280,c),
(301,256,o),
(276,229,o),
(245,90,c),
(234,18,o),
(212,-58,o),
(197,-199,c),
(187,-328,o),
(253,-328,o),
(284,-288,c)
);
},
{
attr = {
fill = 1;
};
closed = 1;
nodes = (
(214,66,o),
(163,70,o),
(148,121,c),
(140,146,o),
(153,181,o),
(157,220,c),
(167,289,o),
(162,316,o),
(176,331,c),
(182,339,o),
(193,346,o),
(203,337,c),
(222,317,o),
(222,216,o),
(222,202,c),
(222,151,o),
(247,94,o),
(228,77,c)
);
}
);
width = 514;
}
);
unicode = 113;
},
{
glyphname = r;
lastChange = "2023-04-12 15:05:46 +0000";
layers = (
{
layerId = m01;
shapes = (
{
attr = {
fill = 1;
};
closed = 1;
nodes = (
(74,360,o),
(64,376,o),
(62,408,c),
(62,430,o),
(64,457,o),
(82,483,c),
(103,508,o),
(123,518,o),
(160,516,c),
(167,516,o),
(195,508,o),
(205,489,c),
(215,470,o),
(209,433,o),
(193,413,c),
(149,361,o),
(144,358,o),
(125,333,c),
(112,315,o),
(112,304,o),
(115,297,c),
(117,291,o),
(122,284,o),
(127,285,c),
(144,286,o),
(149,308,o),
(159,333,c),
(182,379,o),
(197,405,o),
(227,443,c),
(269,497,o),
(328,507,o),
(354,511,c),
(376,515,o),
(418,518,o),
(450,497,c),
(459,492,o),
(467,483,o),
(471,472,c),
(478,443,o),
(471,410,o),
(450,393,c),
(427,374,o),
(404,368,o),
(378,364,c),
(342,360,o),
(293,378,o),
(252,356,c),
(182,330,o),
(149,224,o),
(144,178,c),
(143,104,o),
(198,128,o),
(214,68,c),
(218,52,o),
(220,30,o),
(205,10,c),
(180,-20,o),
(120,-18,o),
(89,4,c),
(53,33,o),
(52,77,o),
(50,115,c),
(48,162,o),
(54,201,o),
(58,223,c),
(65,261,o),
(75,283,o),
(75,332,c)
);
}
);
width = 514;
},
{
layerId = m002;
shapes = (
{
attr = {
fill = 1;
};
closed = 1;
nodes = (
(88,327,o),
(78,343,o),
(77,373,c),
(73,403,o),
(82,438,o),
(103,463,c),
(123,486,o),
(141,495,o),
(176,493,c),
(182,493,o),
(210,486,o),
(218,469,c),
(227,451,o),
(221,415,o),
(185,410,c),
(100,389,o),
(115,356,o),
(118,331,c),
(120,304,o),
(130,292,o),
(134,285,c),
(139,279,o),
(148,268,o),
(155,268,c),
(171,269,o),
(168,289,o),
(174,315,c),
(179,345,o),
(202,362,o),
(229,404,c),
(264,470,o),
(300,493,o),
(336,505,c),
(348,510,o),
(387,514,o),
(412,489,c),
(424,475,o),
(424,470,o),
(428,461,c),
(442,419,o),
(425,394,o),
(410,374,c),
(388,352,o),
(362,357,o),
(336,356,c),
(311,351,o),
(266,366,o),
(235,343,c),
(190,319,o),
(190,239,o),
(171,176,c),
(158,121,o),
(225,208,o),
(267,135,c),
(298,78,o),
(263,38,o),
(241,21,c),
(213,-7,o),
(116,-18,o),
(103,9,c),
(72,63,o),
(125,76,o),
(123,110,c),
(120,155,o),
(120,172,o),
(123,193,c),
(130,243,o),
(89,256,o),
(89,303,c)
);
}
);
width = 435;
},
{
layerId = m003;
shapes = (
{
attr = {
fill = 1;
};
closed = 1;
nodes = (
(106,331,o),
(61,343,o),
(60,373,c),
(56,403,o),
(146,420,o),
(167,445,c),
(187,468,o),
(155,479,o),
(178,493,c),
(192,500,o),
(212,486,o),
(220,469,c),
(229,451,o),
(223,415,o),
(187,410,c),
(102,389,o),
(117,356,o),
(120,331,c),
(122,304,o),
(128,302,o),
(132,295,c),
(137,289,o),
(149,279,o),
(157,268,c),
(175,242,o),
(193,163,o),
(218,170,c),
(282,200,o),
(204,362,o),
(231,404,c),
(266,470,o),
(302,493,o),
(338,505,c),
(350,510,o),
(389,514,o),
(414,489,c),
(426,475,o),
(426,470,o),
(430,461,c),
(444,419,o),
(433,386,o),
(392,389,c),
(337,404,o),
(349,423,o),
(300,422,c),
(253,417,o),
(186,396,o),
(155,373,c),
(110,349,o),
(205,163,o),
(204,108,c),
(205,60,o),
(218,117,o),
(258,91,c),
(289,76,o),
(265,38,o),
(243,21,c),
(215,-7,o),
(104,-21,o),
(105,9,c),
(105,71,o),
(146,21,o),
(167,106,c),
(177,148,o),
(164,165,o),
(157,195,c),
(146,243,o),
(124,260,o),
(113,307,c)
);
}
);
width = 496;
}
);
unicode = 114;
},
{
glyphname = s;
lastChange = "2023-04-12 15:05:56 +0000";
layers = (
{
layerId = m01;
shapes = (
{
attr = {
fill = 1;
};
closed = 1;
nodes = (
(250,392,o),
(250,376,o),
(256,358,c),
(263,336,o),
(282,330,o),
(293,327,c),
(341,316,o),
(369,335,o),
(381,369,c),
(397,410,o),
(381,446,o),
(351,475,c),
(311,505,o),
(282,509,o),
(203,502,c),
(182,497,o),
(127,487,o),
(102,440,c),
(99,434,o),
(75,390,o),
(97,347,c),
(109,321,o),
(135,296,o),
(151,287,c),
(164,280,o),
(181,274,o),
(220,267,c),
(262,260,o),
(287,260,o),
(311,256,c),
(323,252,o),
(406,245,o),
(410,170,c),
(413,109,o),
(365,54,o),
(314,40,c),
(260,22,o),
(212,63,o),
(204,83,c),
(196,107,o),
(199,130,o),
(197,172,c),
(196,211,o),
(176,239,o),
(158,249,c),
(152,253,o),
(121,267,o),
(79,248,c),
(41,230,o),
(36,203,o),
(33,186,c),
(21,132,o),
(52,83,o),
(60,70,c),
(85,32,o),
(147,7,o),
(161,4,c),
(265,-21,o),
(357,3,o),
(405,65,c),
(433,101,o),
(442,143,o),
(440,180,c),
(440,184,o),
(436,221,o),
(405,251,c),
(381,271,o),
(365,279,o),
(317,298,c),
(225,333,o),
(205,340,o),
(196,355,c),
(190,365,o),
(185,385,o),
(197,397,c),
(207,406,o),
(220,405,o),
(231,402,c)
);
}
);
width = 480;
},
{
layerId = m002;
shapes = (
{
attr = {
fill = 1;
};
closed = 1;
nodes = (
(230,399,o),
(230,382,o),
(236,363,c),
(242,340,o),
(262,334,o),
(272,330,c),
(320,318,o),
(348,339,o),
(361,374,c),
(377,417,o),
(361,455,o),
(331,486,c),
(290,518,o),
(250,508,o),
(227,496,c),
(194,475,o),
(205,449,o),
(170,417,c),
(137,384,o),
(82,422,o),
(82,351,c),
(83,317,o),
(113,297,o),
(130,288,c),
(143,280,o),
(160,274,o),
(200,266,c),
(227,263,o),
(241,263,o),
(257,260,c),
(265,258,o),
(318,253,o),
(319,203,c),
(321,161,o),
(291,124,o),
(259,115,c),
(230,112,o),
(219,135,o),
(213,153,c),
(207,171,o),
(209,190,o),
(207,223,c),
(205,248,o),
(187,285,o),
(165,297,c),
(159,302,o),
(120,319,o),
(70,296,c),
(41,281,o),
(37,234,o),
(43,204,c),
(52,161,o),
(102,171,o),
(133,125,c),
(164,77,o),
(136,68,o),
(158,22,c),
(182,-22,o),
(259,-15,o),
(318,53,c),
(346,91,o),
(353,126,o),
(368,173,c),
(377,204,o),
(388,231,o),
(369,258,c),
(345,279,o),
(299,247,o),
(250,268,c),
(159,304,o),
(160,329,o),
(158,352,c),
(158,376,o),
(165,390,o),
(177,404,c),
(186,414,o),
(200,412,o),
(210,409,c)
);
}
);
width = 430;
},
{
layerId = m003;
shapes = (
{
attr = {
fill = 1;
};
closed = 1;
nodes = (
(215,399,o),
(215,382,o),
(221,363,c),
(227,340,o),
(235,329,o),
(257,340,c),
(282,351,o),
(278,364,o),
(291,399,c),
(307,442,o),
(322,443,o),
(316,486,c),
(307,525,o),
(235,508,o),
(212,496,c),
(179,475,o),
(190,449,o),
(155,417,c),
(122,384,o),
(67,422,o),
(67,351,c),
(68,317,o),
(98,297,o),
(115,288,c),
(128,280,o),
(145,274,o),
(185,266,c),
(212,263,o),
(226,263,o),
(242,260,c),
(250,258,o),
(303,253,o),
(304,203,c),
(306,161,o),
(276,124,o),
(244,115,c),
(215,112,o),
(204,135,o),
(198,153,c),
(192,171,o),
(227,187,o),
(225,220,c),
(223,245,o),
(172,285,o),
(150,297,c),
(144,302,o),
(105,319,o),
(55,296,c),
(26,281,o),
(44,234,o),
(67,210,c),
(102,174,o),
(147,204,o),
(178,158,c),
(209,110,o),
(121,68,o),
(143,22,c),
(167,-22,o),
(210,0,o),
(269,68,c),
(297,106,o),
(338,126,o),
(353,173,c),
(362,204,o),
(373,231,o),
(354,258,c),
(330,279,o),
(261,137,o),
(212,158,c),
(121,194,o),
(145,329,o),
(143,352,c),
(143,376,o),
(150,390,o),
(162,404,c),
(171,414,o),
(185,412,o),
(195,409,c)
);
}
);
width = 424;
}
);
unicode = 115;
},
{
glyphname = t;
lastChange = "2023-04-12 15:06:01 +0000";
layers = (
{
layerId = m01;
shapes = (
{
attr = {
fill = 1;
};
closed = 1;
nodes = (
(217,445,o),
(249,443,o),
(259,435,c),
(269,425,o),
(263,387,o),
(247,299,c),
(243,276,o),
(232,251,o),
(219,190,c),
(211,141,o),
(207,92,o),
(232,55,c),
(273,-2,o),
(315,-1,o),
(365,-5,c),
(390,-5,o),
(441,-1,o),
(485,57,c),
(488,61,o),
(543,133,o),
(510,207,c),
(495,240,o),
(474,256,o),
(443,259,c),
(434,261,o),
(399,264,o),
(382,248,c),
(372,239,o),
(361,226,o),
(362,203,c),
(362,186,o),
(371,172,o),
(373,157,c),
(375,142,o),
(375,138,o),
(374,122,c),
(373,104,o),
(366,89,o),
(357,82,c),
(334,60,o),
(290,64,o),
(269,113,c),
(256,153,o),
(277,236,o),
(294,302,c),
(311,401,o),
(311,432,o),
(327,436,c),
(343,439,o),
(380,430,o),
(394,424,c),
(420,412,o),
(443,388,o),
(487,384,c),
(507,383,o),
(530,384,o),
(549,400,c),
(562,412,o),
(565,430,o),
(557,448,c),
(552,459,o),
(534,467,o),
(520,466,c),
(486,467,o),
(488,448,o),
(430,456,c),
(400,461,o),
(390,464,o),
(349,475,c),
(330,479,o),
(328,481,o),
(322,487,c),
(312,497,o),
(313,535,o),
(314,543,c),
(318,609,o),
(327,637,o),
(327,637,c),
(341,687,o),
(341,731,o),
(334,756,c),
(327,785,o),
(296,802,o),
(281,806,c),
(263,811,o),
(217,811,o),
(198,782,c),
(176,741,o),
(228,716,o),
(262,648,c),
(276,618,o),
(274,593,o),
(274,542,c),
(272,506,o),
(276,482,o),
(255,475,c),
(240,471,o),
(221,472,o),
(197,480,c),
(175,489,o),
(145,502,o),
(124,504,c),
(74,506,o),
(58,496,o),
(52,491,c),
(39,480,o),
(40,470,o),
(41,459,c),
(46,436,o),
(77,424,o),
(91,424,c),
(132,421,o),
(149,436,o),
(201,442,c)
);
}
);
width = 621;
},
{
background = {
shapes = (
{
attr = {
fill = "1";
};
closed = 1;
nodes = (
(213,415,o),
(228,443,o),
(238,435,c),
(248,425,o),
(248,387,o),
(232,299,c),
(221,234,o),
(218,208,o),
(198,163,c),
(154,71,o),
(176,33,o),
(214,6,c),
(261,-31,o),
(267,28,o),
(300,50,c),
(339,77,o),
(381,77,o),
(416,124,c),
(443,155,o),
(475,225,o),
(442,299,c),
(427,332,o),
(412,342,o),
(375,351,c),
(366,353,o),
(331,356,o),
(314,340,c),
(304,331,o),
(293,318,o),
(294,295,c),
(294,278,o),
(303,264,o),
(305,249,c),
(307,234,o),
(307,230,o),
(306,214,c),
(305,196,o),
(303,163,o),
(292,137,c),
(274,95,o),
(253,59,o),
(235,95,c),
(218,135,o),
(244,213,o),
(253,287,c),
(263,345,o),
(264,373,o),
(282,412,c),
(300,441,o),
(346,447,o),
(364,447,c),
(395,447,o),
(425,443,o),
(465,463,c),
(482,474,o),
(501,486,o),
(509,510,c),
(513,527,o),
(505,544,o),
(490,555,c),
(480,562,o),
(460,558,o),
(448,549,c),
(419,530,o),
(427,526,o),
(378,494,c),
(353,477,o),
(345,477,o),
(328,469,c),
(301,462,o),
(293,471,o),
(287,483,c),
(278,505,o),
(281,504,o),
(273,537,c),
(264,566,o),
(259,592,o),
(259,592,c),
(251,634,o),
(244,661,o),
(232,677,c),
(218,696,o),
(189,700,o),
(176,699,c),
(161,699,o),
(125,687,o),
(117,662,c),
(111,628,o),
(154,619,o),
(204,588,c),
(219,577,o),
(234,574,o),
(245,539,c),
(256,494,o),
(230,456,o),
(199,437,c),
(182,427,o),
(165,413,o),
(148,398,c),
(119,365,o),
(106,327,o),
(104,312,c),
(96,277,o),
(100,259,o),
(107,238,c),
(120,208,o),
(164,215,o),
(175,228,c),
(216,272,o),
(221,297,o),
(216,373,cs)
);
}
);
};
layerId = m002;
shapes = (
{
attr = {
fill = "1";
};
closed = 1;
nodes = (
(182,463,o),
(202,492,o),
(213,482,c),
(225,470,o),
(225,423,o),
(206,314,c),
(202,286,o),
(199,255,o),
(178,181,c),
(157,124,o),
(130,57,o),
(200,2,c),
(263,-43,o),
(252,31,o),
(310,63,c),
(339,81,o),
(365,68,o),
(411,119,c),
(442,161,o),
(489,220,o),
(451,311,c),
(434,352,o),
(406,375,o),
(371,379,c),
(361,381,o),
(324,386,o),
(304,367,c),
(293,356,o),
(277,339,o),
(278,310,c),
(278,289,o),
(288,272,o),
(290,254,c),
(293,235,o),
(293,229,o),
(292,210,c),
(290,188,o),
(296,170,o),
(282,142,c),
(273,120,o),
(247,63,o),
(226,110,c),
(209,169,o),
(222,235,o),
(232,318,c),
(247,447,o),
(273,431,o),
(295,439,c),
(335,452,o),
(365,454,o),
(395,454,c),
(445,455,o),
(475,465,o),
(513,505,c),
(532,528,o),
(528,559,o),
(515,577,c),
(506,588,o),
(482,596,o),
(463,584,c),
(448,575,o),
(440,566,o),
(424,551,c),
(399,528,o),
(394,524,o),
(372,509,c),
(351,496,o),
(335,486,o),
(312,480,c),
(290,476,o),
(285,478,o),
(279,486,c),
(265,497,o),
(258,590,o),
(253,607,c),
(242,648,o),
(231,706,o),
(231,706,c),
(227,734,o),
(215,773,o),
(197,790,c),
(179,808,o),
(139,812,o),
(115,801,c),
(94,791,o),
(77,779,o),
(74,756,c),
(69,719,o),
(130,700,o),
(178,668,c),
(193,658,o),
(216,644,o),
(224,595,c),
(227,554,o),
(216,542,o),
(209,526,c),
(182,487,o),
(165,486,o),
(130,455,c),
(110,436,o),
(95,417,o),
(83,397,c),
(56,346,o),
(55,310,o),
(55,295,c),
(56,260,o),
(57,251,o),
(65,234,c),
(84,201,o),
(130,210,o),
(147,233,c),
(167,261,o),
(190,295,o),
(189,374,c)
);
}
);
width = 586;
},
{
layerId = m003;
shapes = (
{
attr = {
fill = "1";
};
closed = 1;
nodes = (
(108,530,o),
(224,663,o),
(301,616,c),
(352,587,o),
(152,452,o),
(211,314,c),
(229,266,o),
(384,230,o),
(363,156,c),
(342,99,o),
(177,96,o),
(205,2,c),
(221,-37,o),
(257,31,o),
(315,63,c),
(344,81,o),
(370,68,o),
(416,119,c),
(447,161,o),
(428,258,o),
(407,311,c),
(395,342,o),
(375,360,o),
(349,363,c),
(342,365,o),
(316,368,o),
(301,354,c),
(293,345,o),
(283,319,o),
(293,301,c),
(312,269,o),
(358,285,o),
(375,254,c),
(386,235,o),
(397,214,o),
(400,195,c),
(403,169,o),
(402,155,o),
(388,127,c),
(375,105,o),
(252,63,o),
(231,110,c),
(214,169,o),
(227,235,o),
(237,318,c),
(252,447,o),
(278,431,o),
(300,439,c),
(340,452,o),
(370,454,o),
(400,454,c),
(450,455,o),
(480,465,o),
(518,505,c),
(537,528,o),
(533,559,o),
(520,577,c),
(511,588,o),
(496,587,o),
(484,572,c),
(469,554,o),
(485,546,o),
(471,520,c),
(448,491,o),
(437,489,o),
(415,474,c),
(394,461,o),
(322,452,o),
(299,446,c),
(277,442,o),
(272,444,o),
(266,452,c),
(252,463,o),
(273,579,o),
(258,607,c),
(224,671,o),
(217,700,o),
(217,700,c),
(205,750,o),
(220,773,o),
(202,790,c),
(184,808,o),
(136,823,o),
(120,801,c),
(105,773,o),
(149,779,o),
(162,747,c),
(181,705,o),
(167,690,o),
(183,668,c),
(198,645,o),
(221,644,o),
(229,595,c),
(232,554,o),
(221,542,o),
(214,526,c),
(187,487,o),
(170,486,o),
(135,455,c),
(115,436,o),
(100,417,o),
(88,397,c),
(61,346,o),
(60,310,o),
(60,295,c),
(61,260,o),
(62,251,o),
(70,234,c),
(89,201,o),
(135,210,o),
(152,233,c),
(172,261,o),
(79,357,o),
(90,439,c)
);
}
);
width = 581;
}
);
unicode = 116;
},
{
glyphname = u;
lastChange = "2023-04-12 15:06:18 +0000";
layers = (
{
layerId = m01;
shapes = (
{
attr = {
fill = "1";
};
closed = 1;
nodes = (
(140,25,o),
(153,16,o),
(166,9,c),
(213,-15,o),
(300,1,o),
(307,5,c),
(356,23,o),
(386,66,o),
(406,118,c),
(437,205,o),
(404,248,o),
(445,315,c),
(466,345,o),
(490,384,o),
(486,418,c),
(484,432,o),
(482,471,o),
(447,491,c),
(396,519,o),
(353,503,o),
(348,501,c),
(333,495,o),
(324,486,o),
(315,470,c),
(304,447,o),
(300,442,o),
(300,404,c),
(300,370,o),
(316,346,o),
(330,315,c),
(343,286,o),
(359,257,o),
(364,229,c),
(378,172,o),
(367,114,o),
(360,88,c),
(348,59,o),
(327,39,o),
(293,25,c),
(260,13,o),
(227,19,o),
(201,32,c),
(166,49,o),
(140,81,o),
(152,205,c),
(157,276,o),
(194,325,o),
(212,388,c),
(224,431,o),
(243,462,o),
(217,486,c),
(186,511,o),
(155,506,o),
(146,504,c),
(134,503,o),
(107,499,o),
(84,477,c),
(57,453,o),
(50,410,o),
(50,384,c),
(50,353,o),
(54,334,o),
(61,294,c),
(71,223,o),
(80,222,o),
(87,166,c),
(93,130,o),
(89,114,o),
(99,84,c),
(107,59,o),
(129,36,o),
(136,30,c)
);
}
);
width = 546;
},
{
layerId = m002;
shapes = (
{
attr = {
fill = "1";
};
closed = 1;
nodes = (
(153,23,o),
(164,17,o),
(176,9,c),
(226,-16,o),
(294,-5,o),
(315,4,c),
(364,25,o),
(407,37,o),
(393,86,c),
(365,165,o),
(391,176,o),
(438,246,c),
(462,278,o),
(490,319,o),
(485,354,c),
(483,369,o),
(480,410,o),
(440,431,c),
(381,460,o),
(332,443,o),
(326,441,c),
(309,434,o),
(297,426,o),
(287,409,c),
(274,384,o),
(271,379,o),
(271,340,c),
(271,304,o),
(289,278,o),
(305,246,c),
(320,215,o),
(339,186,o),
(345,156,c),
(350,128,o),
(353,122,o),
(353,94,c),
(349,65,o),
(340,44,o),
(305,28,c),
(272,14,o),
(232,28,o),
(226,58,c),
(219,100,o),
(267,156,o),
(270,198,c),
(275,272,o),
(218,317,o),
(239,384,c),
(252,428,o),
(270,459,o),
(244,486,c),
(209,512,o),
(175,507,o),
(163,507,c),
(146,506,o),
(118,500,o),
(91,476,c),
(60,452,o),
(44,426,o),
(52,379,c),
(68,311,o),
(181,322,o),
(206,284,c),
(264,210,o),
(232,159,o),
(194,146,c),
(143,132,o),
(108,128,o),
(108,97,c),
(110,63,o),
(134,37,o),
(144,30,c)
);
}
);
width = 538;
},
{
layerId = m003;
shapes = (
{
attr = {
fill = "1";
};
closed = 1;
nodes = (
(136,4,o),
(151,-3,o),
(168,-5,c),
(197,-12,o),
(253,-5,o),
(274,4,c),
(323,25,o),
(372,79,o),
(352,161,c),
(324,240,o),
(271,279,o),
(318,349,c),
(342,381,o),
(367,319,o),
(415,354,c),
(442,381,o),
(439,410,o),
(399,431,c),
(340,460,o),
(291,443,o),
(285,441,c),
(268,434,o),
(256,426,o),
(246,409,c),
(233,384,o),
(230,379,o),
(230,340,c),
(230,304,o),
(248,278,o),
(264,246,c),
(279,215,o),
(298,186,o),
(304,156,c),
(309,128,o),
(312,122,o),
(312,94,c),
(308,65,o),
(299,44,o),
(264,28,c),
(231,14,o),
(191,28,o),
(185,58,c),
(178,100,o),
(226,156,o),
(229,198,c),
(234,272,o),
(177,317,o),
(198,384,c),
(211,428,o),
(229,459,o),
(203,486,c),
(168,512,o),
(134,507,o),
(122,507,c),
(105,506,o),
(48,502,o),
(50,476,c),
(59,416,o),
(141,478,o),
(149,431,c),
(165,363,o),
(201,322,o),
(226,284,c),
(284,210,o),
(252,159,o),
(214,146,c),
(163,132,o),
(120,119,o),
(112,88,c),
(105,61,o),
(120,38,o),
(127,23,c)
);
}
);
width = 503;
}
);
unicode = 117;
},
{
glyphname = v;
lastChange = "2023-04-12 15:06:26 +0000";
layers = (
{
layerId = m01;
shapes = (
{
attr = {
fill = 1;
};
closed = 1;
nodes = (
(129,516,o),
(140,516,o),
(152,514,c),
(190,508,o),
(210,472,o),
(220,451,c),
(244,395,o),
(239,363,o),
(233,272,c),
(225,169,o),
(267,101,o),
(283,90,c),
(296,86,o),
(300,107,o),
(307,127,c),
(359,243,o),
(374,310,o),
(374,310,c),
(397,394,o),
(379,454,o),
(431,500,c),
(443,510,o),
(486,523,o),
(519,498,c),
(565,465,o),
(552,402,o),
(547,383,c),
(536,342,o),
(525,318,o),
(494,284,c),
(465,252,o),
(443,253,o),
(392,199,c),
(369,171,o),
(359,149,o),
(344,117,c),
(323,66,o),
(325,21,o),
(307,4,c),
(296,-7,o),
(284,-12,o),
(270,-3,c),
(256,5,o),
(242,16,o),
(239,62,c),
(231,124,o),
(209,164,o),
(184,196,c),
(154,243,o),
(120,263,o),
(92,309,c),
(53,374,o),
(54,426,o),
(72,466,c),
(82,486,o),
(91,497,o),
(113,508,c)
);
}
);
width = 613;
},
{
layerId = m002;
shapes = (
{
attr = {
fill = 1;
};
closed = 1;
nodes = (
(30,460,o),
(32,482,o),
(51,496,c),
(75,509,o),
(140,500,o),
(157,457,c),
(187,387,o),
(187,348,o),
(179,281,c),
(169,155,o),
(140,124,o),
(153,91,c),
(167,57,o),
(188,46,o),
(205,132,c),
(221,247,o),
(280,317,o),
(280,317,c),
(335,398,o),
(285,455,o),
(332,499,c),
(345,510,o),
(382,519,o),
(413,496,c),
(455,465,o),
(465,417,o),
(460,382,c),
(455,344,o),
(431,310,o),
(403,292,c),
(353,260,o),
(321,272,o),
(274,220,c),
(244,183,o),
(249,183,o),
(226,124,c),
(201,57,o),
(193,17,o),
(167,2,c),
(146,-10,o),
(99,-14,o),
(89,6,c),
(71,44,o),
(107,55,o),
(109,94,c),
(109,142,o),
(94,160,o),
(94,198,c),
(91,259,o),
(86,268,o),
(78,290,c),
(72,308,o),
(61,322,o),
(51,359,c),
(46,380,o),
(41,393,o),
(36,417,c)
);
}
);
width = 488;
},
{
layerId = m003;
shapes = (
{
attr = {
fill = 1;
};
closed = 1;
nodes = (
(74,469,o),
(80,486,o),
(111,500,c),
(135,513,o),
(279,521,o),
(177,457,c),
(90,387,o),
(69,326,o),
(61,259,c),
(51,133,o),
(160,124,o),
(173,91,c),
(194,57,o),
(208,46,o),
(225,132,c),
(241,247,o),
(362,314,o),
(362,314,c),
(401,345,o),
(320,374,o),
(347,399,c),
(355,406,o),
(377,411,o),
(395,397,c),
(419,379,o),
(453,339,o),
(450,319,c),
(447,297,o),
(433,277,o),
(417,267,c),
(388,248,o),
(369,243,o),
(322,208,c),
(294,182,o),
(269,160,o),
(246,124,c),
(221,57,o),
(213,17,o),
(187,2,c),
(166,-10,o),
(119,-14,o),
(109,6,c),
(91,44,o),
(127,55,o),
(129,94,c),
(129,142,o),
(136,152,o),
(159,194,c),
(170,218,o),
(183,249,o),
(149,271,c),
(123,300,o),
(72,292,o),
(76,359,c),
(76,391,o),
(85,402,o),
(80,426,c)
);
}
);
width = 510;
}
);
unicode = 118;
},
{
glyphname = w;
lastChange = "2023-04-12 15:06:31 +0000";
layers = (
{
layerId = m01;
shapes = (
{
attr = {
fill = 1;
};
closed = 1;
nodes = (
(141,508,o),
(170,517,o),
(206,508,c),
(274,485,o),
(265,393,o),
(262,379,c),
(256,350,o),
(249,319,o),
(244,302,c),
(215,200,o),
(203,172,o),
(205,143,c),
(207,119,o),
(213,102,o),
(225,89,c),
(232,81,o),
(249,78,o),
(258,82,c),
(291,89,o),
(304,107,o),
(316,144,c),
(337,224,o),
(318,258,o),
(356,304,c),
(365,311,o),
(378,319,o),
(396,319,c),
(450,322,o),
(476,268,o),
(482,234,c),
(487,210,o),
(488,181,o),
(494,160,c),
(496,149,o),
(507,144,o),
(512,147,c),
(524,154,o),
(559,194,o),
(545,266,c),
(527,353,o),
(527,366,o),
(524,414,c),
(524,437,o),
(524,454,o),
(537,476,c),
(558,512,o),
(661,531,o),
(700,495,c),
(714,479,o),
(721,463,o),
(721,442,c),
(721,411,o),
(701,385,o),
(694,366,c),
(652,272,o),
(691,195,o),
(617,63,c),
(593,20,o),
(569,-18,o),
(540,-15,c),
(493,-13,o),
(461,103,o),
(454,138,c),
(443,183,o),
(456,221,o),
(440,226,c),
(425,230,o),
(410,223,o),
(389,187,c),
(375,162,o),
(365,127,o),
(346,87,c),
(322,31,o),
(317,18,o),
(307,8,c),
(291,-9,o),
(270,-17,o),
(253,-16,c),
(202,-15,o),
(157,31,o),
(147,115,c),
(143,195,o),
(180,223,o),
(137,305,c),
(117,339,o),
(73,353,o),
(61,416,c),
(56,447,o),
(82,483,o),
(82,483,c),
(95,494,o),
(108,499,o),
(122,503,cs)
);
}
);
width = 781;
},
{
layerId = m002;
shapes = (
{
attr = {
fill = 1;
};
closed = 1;
nodes = (
(143,476,o),
(147,450,o),
(185,442,c),
(258,418,o),
(273,381,o),
(269,353,c),
(266,329,o),
(253,332,o),
(239,282,c),
(209,179,o),
(207,169,o),
(209,152,c),
(214,122,o),
(232,113,o),
(245,107,cs),
(253,105,o),
(275,100,o),
(283,102,cs),
(306,106,o),
(316,119,o),
(328,153,c),
(350,234,o),
(329,269,o),
(370,314,c),
(379,322,o),
(393,329,o),
(412,329,c),
(470,333,o),
(481,312,o),
(481,261,c),
(481,216,o),
(501,195,o),
(514,169,c),
(521,152,o),
(531,153,o),
(536,156,c),
(549,164,o),
(586,203,o),
(571,276,c),
(551,365,o),
(551,371,o),
(549,397,c),
(549,409,o),
(549,418,o),
(552,430,c),
(558,450,o),
(585,460,o),
(597,442,c),
(601,432,o),
(602,423,o),
(602,412,c),
(602,395,o),
(597,388,o),
(595,371,c),
(586,314,o),
(703,205,o),
(673,71,c),
(659,12,o),
(597,-20,o),
(566,-8,c),
(507,12,o),
(526,123,o),
(475,201,c),
(443,245,o),
(467,286,o),
(456,293,c),
(442,302,o),
(424,293,o),
(406,252,c),
(392,210,o),
(394,145,o),
(370,60,c),
(354,21,o),
(343,16,o),
(334,8,c),
(320,-3,o),
(301,-8,o),
(284,-8,c),
(238,-6,o),
(174,60,o),
(174,124,c),
(174,271,o),
(241,250,o),
(195,333,c),
(174,368,o),
(68,365,o),
(55,428,c),
(50,460,o),
(78,495,o),
(78,495,c),
(87,508,o),
(113,512,o),
(124,498,cs)
);
}
);
width = 745;
},
{
layerId = m003;
shapes = (
{
attr = {
fill = 1;
};
closed = 1;
nodes = (
(133,476,o),
(105,420,o),
(143,412,c),
(275,385,o),
(307,416,o),
(321,368,c),
(329,343,o),
(318,329,o),
(304,279,c),
(274,176,o),
(108,195,o),
(119,100,c),
(124,70,o),
(168,46,o),
(181,43,cs),
(236,32,o),
(270,60,o),
(290,78,cs),
(330,114,o),
(307,164,o),
(326,205,c),
(361,303,o),
(309,291,o),
(315,349,c),
(329,358,o),
(351,367,o),
(381,367,c),
(473,371,o),
(392,267,o),
(392,205,c),
(392,151,o),
(507,195,o),
(520,169,c),
(527,152,o),
(537,153,o),
(542,156,c),
(555,164,o),
(518,198,o),
(503,271,c),
(483,360,o),
(513,381,o),
(528,396,c),
(542,412,o),
(550,418,o),
(558,430,c),
(575,453,o),
(591,460,o),
(603,442,c),
(607,432,o),
(608,423,o),
(608,412,c),
(608,395,o),
(603,388,o),
(601,371,c),
(592,314,o),
(609,207,o),
(609,174,c),
(611,115,o),
(685,-8,o),
(572,-8,c),
(513,12,o),
(537,145,o),
(481,212,c),
(430,265,o),
(473,327,o),
(456,335,c),
(434,346,o),
(400,323,o),
(372,274,c),
(350,223,o),
(384,100,o),
(376,60,c),
(360,21,o),
(349,16,o),
(340,8,c),
(326,-3,o),
(307,-8,o),
(290,-8,c),
(244,-6,o),
(215,83,o),
(233,124,c),
(292,268,o),
(313,297,o),
(274,354,c),
(253,389,o),
(74,365,o),
(61,428,c),
(56,460,o),
(84,495,o),
(84,495,c),
(93,508,o),
(103,512,o),
(114,498,cs)
);
}
);
width = 705;
}
);
unicode = 119;
},
{
glyphname = x;
lastChange = "2023-04-12 15:06:47 +0000";
layers = (
{
layerId = m01;
shapes = (
{
attr = {
fill = 1;
};
closed = 1;
nodes = (
(195,343,o),
(165,336,o),
(145,343,c),
(120,350,o),
(92,375,o),
(88,388,c),
(84,403,o),
(74,430,o),
(89,460,c),
(106,494,o),
(142,512,o),
(177,512,c),
(181,512,o),
(219,510,o),
(246,481,c),
(262,461,o),
(267,443,o),
(274,410,c),
(283,359,o),
(281,342,o),
(275,311,c),
(270,292,o),
(266,275,o),
(266,266,c),
(266,259,o),
(264,248,o),
(272,245,c),
(284,239,o),
(314,265,o),
(327,280,c),
(346,301,o),
(372,342,o),
(376,378,c),
(381,412,o),
(366,474,o),
(401,501,c),
(405,505,o),
(426,519,o),
(458,516,c),
(481,512,o),
(497,496,o),
(506,481,c),
(528,441,o),
(498,391,o),
(487,371,c),
(453,311,o),
(387,245,o),
(349,229,c),
(336,222,o),
(320,216,o),
(316,206,c),
(314,200,o),
(315,196,o),
(319,186,c),
(327,168,o),
(338,145,o),
(372,131,c),
(408,113,o),
(422,113,o),
(468,106,c),
(496,98,o),
(517,79,o),
(514,48,c),
(511,18,o),
(493,0,o),
(471,-4,c),
(435,-10,o),
(387,-8,o),
(359,13,c),
(336,28,o),
(318,52,o),
(308,91,c),
(302,113,o),
(295,130,o),
(286,163,c),
(284,170,o),
(277,190,o),
(264,191,c),
(251,191,o),
(240,171,o),
(233,155,c),
(187,56,o),
(189,31,o),
(155,5,c),
(152,3,o),
(118,-23,o),
(88,-12,c),
(57,0,o),
(43,49,o),
(53,84,c),
(64,119,o),
(98,142,o),
(119,154,c),
(153,177,o),
(190,194,o),
(208,212,c),
(217,221,o),
(220,228,o),
(227,241,c),
(232,254,o),
(242,288,o),
(216,319,c)
);
}
);
width = 574;
},
{
layerId = m002;
shapes = (
{
attr = {
fill = 1;
};
closed = 1;
nodes = (
(160,336,o),
(153,342,o),
(130,356,c),
(98,374,o),
(77,371,o),
(59,387,c),
(41,400,o),
(31,433,o),
(45,458,c),
(66,492,o),
(95,508,o),
(126,508,c),
(130,508,o),
(171,505,o),
(202,475,c),
(219,455,o),
(224,437,o),
(232,403,c),
(242,349,o),
(240,333,o),
(234,300,c),
(227,281,o),
(230,260,o),
(236,248,c),
(256,222,o),
(269,224,o),
(279,220,c),
(306,215,o),
(328,254,o),
(343,272,c),
(367,297,o),
(386,321,o),
(389,342,c),
(393,363,o),
(381,399,o),
(408,414,c),
(410,416,o),
(426,425,o),
(451,424,c),
(468,421,o),
(482,419,o),
(487,403,c),
(496,366,o),
(481,349,o),
(473,338,c),
(447,303,o),
(392,283,o),
(346,238,c),
(330,221,o),
(325,206,o),
(325,194,c),
(324,182,o),
(329,171,o),
(334,159,c),
(343,138,o),
(367,106,o),
(398,93,c),
(435,82,o),
(441,97,o),
(489,91,c),
(518,82,o),
(541,65,o),
(539,33,c),
(535,6,o),
(495,-11,o),
(473,-8,c),
(435,-8,o),
(407,26,o),
(382,14,c),
(341,-18,o),
(315,6,o),
(320,45,c),
(330,95,o),
(326,122,o),
(315,161,c),
(310,182,o),
(299,188,o),
(284,189,c),
(268,189,o),
(242,144,o),
(229,122,c),
(206,80,o),
(187,66,o),
(154,30,c),
(137,15,o),
(119,-1,o),
(91,12,c),
(54,32,o),
(46,93,o),
(55,122,c),
(59,142,o),
(87,170,o),
(107,176,c),
(153,192,o),
(177,170,o),
(210,191,c),
(225,202,o),
(240,206,o),
(231,221,c),
(213,241,o),
(204,274,o),
(180,309,c)
);
}
);
width = 570;
},
{
layerId = m003;
shapes = (
{
attr = {
fill = 1;
};
closed = 1;
nodes = (
(285,347,o),
(278,353,o),
(255,367,c),
(223,385,o),
(212,395,o),
(184,398,c),
(153,403,o),
(83,379,o),
(71,443,c),
(63,477,o),
(89,508,o),
(120,508,c),
(124,508,o),
(165,505,o),
(196,475,c),
(213,455,o),
(218,437,o),
(226,403,c),
(236,349,o),
(234,333,o),
(228,300,c),
(221,281,o),
(224,260,o),
(230,248,c),
(250,222,o),
(263,224,o),
(273,220,c),
(300,215,o),
(322,254,o),
(337,272,c),
(361,297,o),
(380,321,o),
(383,342,c),
(387,363,o),
(375,399,o),
(402,414,c),
(404,416,o),
(420,425,o),
(445,424,c),
(462,421,o),
(476,419,o),
(481,403,c),
(490,366,o),
(475,349,o),
(467,338,c),
(441,303,o),
(386,283,o),
(340,238,c),
(324,221,o),
(319,206,o),
(319,194,c),
(318,182,o),
(323,171,o),
(328,159,c),
(337,138,o),
(361,106,o),
(392,93,c),
(429,82,o),
(435,97,o),
(483,91,c),
(512,82,o),
(535,65,o),
(533,33,c),
(529,6,o),
(489,-11,o),
(467,-8,c),
(429,-8,o),
(401,26,o),
(376,14,c),
(335,-18,o),
(309,6,o),
(314,45,c),
(324,95,o),
(340,176,o),
(390,240,c),
(466,330,o),
(386,283,o),
(359,268,c),
(324,248,o),
(260,173,o),
(217,143,c),
(176,106,o),
(182,85,o),
(156,65,c),
(143,53,o),
(129,41,o),
(108,51,c),
(79,66,o),
(76,98,o),
(82,121,c),
(85,136,o),
(114,163,o),
(129,168,c),
(156,177,o),
(180,165,o),
(204,176,c),
(219,187,o),
(236,205,o),
(263,216,c),
(313,248,o),
(329,285,o),
(305,320,c)
);
}
);
width = 583;
}
);
unicode = 120;
},
{
glyphname = y;
lastChange = "2023-04-12 15:07:36 +0000";
layers = (
{
background = {
shapes = (
{
attr = {
fill = "1";
strokeWidth = 10;
};
closed = 1;
nodes = (
(213,-305,o),
(281,-302,o),
(333,-261,c),
(390,-207,o),
(410,-169,o),
(425,-86,c),
(436,27,o),
(443,104,o),
(443,104,c),
(446,143,o),
(471,331,o),
(403,435,c),
(388,457,o),
(372,484,o),
(316,499,c),
(292,505,o),
(268,505,o),
(258,505,c),
(242,505,o),
(199,500,o),
(160,461,c),
(122,422,o),
(118,402,o),
(107,329,c),
(105,268,o),
(66,215,o),
(117,160,c),
(146,132,o),
(209,101,o),
(263,115,c),
(286,123,o),
(302,130,o),
(320,154,c),
(333,169,o),
(337,180,o),
(348,200,c),
(357,218,o),
(381,280,o),
(390,275,c),
(407,272,o),
(432,242,o),
(419,112,c),
(405,-15,o),
(405,-96,o),
(365,-152,c),
(339,-189,o),
(299,-221,o),
(252,-203,c),
(229,-198,o),
(220,-180,o),
(217,-159,c),
(215,-127,o),
(222,-110,o),
(233,-91,c),
(245,-69,o),
(248,-55,o),
(245,-33,c),
(239,-6,o),
(229,7,o),
(216,19,c),
(182,50,o),
(116,49,o),
(78,-21,c),
(49,-82,o),
(57,-144,o),
(57,-121,c),
(63,-169,o),
(78,-238,o),
(153,-281,c)
);
},
{
attr = {
fill = "1";
strokeWidth = 10;
};
closed = 1;
nodes = (
(180,180,o),
(177,191,o),
(177,202,c),
(180,220,o),
(192,231,o),
(204,251,c),
(217,273,o),
(208,301,o),
(220,334,c),
(226,354,o),
(237,371,o),
(263,377,c),
(285,385,o),
(307,370,o),
(320,355,c),
(347,318,o),
(326,257,o),
(300,221,c),
(268,183,o),
(210,158,o),
(190,173,c)
);
}
);
};
layerId = m01;
shapes = (
{
attr = {
fill = 1;
};
closed = 1;
nodes = (
(283,231,o),
(306,199,o),
(321,223,c),
(331,240,o),
(336,258,o),
(336,258,c),
(342,280,o),
(345,296,o),
(345,352,c),
(342,410,o),
(318,433,o),
(334,473,c),
(338,483,o),
(347,507,o),
(389,514,c),
(426,520,o),
(458,502,o),
(474,475,c),
(492,443,o),
(473,402,o),
(466,329,c),
(466,329,o),
(465,309,o),
(454,159,c),
(443,56,o),
(440,-58,o),
(426,-117,c),
(405,-215,o),
(331,-273,o),
(319,-281,c),
(288,-303,o),
(244,-315,o),
(174,-300,c),
(66,-250,o),
(24,-149,o),
(67,-33,c),
(72,-18,o),
(91,27,o),
(143,47,c),
(192,58,o),
(210,39,o),
(225,26,c),
(238,15,o),
(250,-8,o),
(253,-27,c),
(259,-76,o),
(242,-92,o),
(230,-114,c),
(215,-133,o),
(223,-163,o),
(225,-172,c),
(230,-183,o),
(235,-192,o),
(245,-197,c),
(268,-207,o),
(287,-210,o),
(320,-192,c),
(388,-139,o),
(398,-39,o),
(408,42,c),
(426,174,o),
(419,256,o),
(390,268,c),
(372,246,o),
(363,149,o),
(324,122,c),
(306,110,o),
(279,105,o),
(246,114,c),
(190,140,o),
(184,200,o),
(175,232,c),
(163,283,o),
(147,338,o),
(109,377,c),
(91,396,o),
(71,402,o),
(68,433,c),
(66,462,o),
(85,489,o),
(108,504,c),
(150,532,o),
(184,512,o),
(202,509,c),
(257,487,o),
(265,452,o),
(270,411,c),
(275,366,o),
(257,309,o),
(267,268,c),
(269,261,o),
(271,256,o),
(274,249,c)
);
}
);
width = 532;
},
{
background = {
shapes = (
{
attr = {
fill = "1";
strokeWidth = 10;
};
closed = 1;
nodes = (
(191,-305,o),
(259,-302,o),
(311,-261,c),
(368,-207,o),
(388,-169,o),
(403,-86,c),
(414,27,o),
(421,104,o),
(421,104,c),
(424,143,o),
(449,331,o),
(381,435,c),
(366,457,o),
(350,484,o),
(294,499,c),
(270,505,o),
(246,505,o),
(236,505,c),
(220,505,o),
(177,500,o),
(138,461,c),
(100,422,o),
(96,402,o),
(85,329,c),
(83,268,o),
(44,215,o),
(95,160,c),
(124,132,o),
(187,101,o),
(241,115,c),
(264,123,o),
(280,130,o),
(298,154,c),
(311,169,o),
(315,180,o),
(326,200,c),
(335,218,o),
(359,280,o),
(368,275,c),
(385,272,o),
(410,242,o),
(397,112,c),
(383,-15,o),
(383,-96,o),
(343,-152,c),
(317,-189,o),
(277,-221,o),
(230,-203,c),
(207,-198,o),
(198,-180,o),
(195,-159,c),
(193,-127,o),
(200,-110,o),
(211,-91,c),
(223,-69,o),
(226,-55,o),
(223,-33,c),
(217,-6,o),
(207,7,o),
(194,19,c),
(160,50,o),
(94,49,o),
(56,-21,c),
(27,-82,o),
(35,-144,o),
(35,-121,c),
(41,-169,o),
(56,-238,o),
(131,-281,c)
);
},
{
attr = {
fill = "1";
strokeWidth = 10;
};
closed = 1;
nodes = (
(158,180,o),
(155,191,o),
(155,202,c),
(158,220,o),
(170,231,o),
(182,251,c),
(195,273,o),
(186,301,o),
(198,334,c),
(204,354,o),
(215,371,o),
(241,377,c),
(263,385,o),
(285,370,o),
(298,355,c),
(325,318,o),
(304,257,o),
(278,221,c),
(246,183,o),
(188,158,o),
(168,173,c)
);
}
);
};
layerId = m002;
shapes = (
{
attr = {
fill = 1;
};
closed = 1;
nodes = (
(256,157,o),
(292,121,o),
(311,150,c),
(321,173,o),
(325,198,o),
(325,198,c),
(336,241,o),
(342,242,o),
(355,295,c),
(364,342,o),
(342,365,o),
(350,397,c),
(352,407,o),
(357,427,o),
(376,435,c),
(394,440,o),
(409,421,o),
(417,399,c),
(426,373,o),
(405,338,o),
(414,275,c),
(414,275,o),
(445,172,o),
(438,88,c),
(427,-12,o),
(424,-121,o),
(410,-178,c),
(389,-272,o),
(341,-298,o),
(311,-305,c),
(287,-309,o),
(270,-311,o),
(242,-297,c),
(142,-242,o),
(151,-85,o),
(159,-29,c),
(164,19,o),
(116,59,o),
(171,85,c),
(222,99,o),
(241,74,o),
(257,57,c),
(270,43,o),
(283,15,o),
(286,-11,c),
(292,-72,o),
(274,-92,o),
(262,-120,c),
(249,-149,o),
(249,-177,o),
(253,-195,c),
(256,-210,o),
(267,-221,o),
(275,-227,c),
(291,-238,o),
(302,-240,o),
(318,-238,c),
(355,-228,o),
(395,-103,o),
(405,-26,c),
(423,103,o),
(403,195,o),
(374,211,c),
(345,222,o),
(355,131,o),
(304,99,c),
(267,82,o),
(215,103,o),
(169,95,c),
(120,88,o),
(117,137,o),
(151,195,c),
(211,307,o),
(158,327,o),
(120,352,c),
(94,367,o),
(78,388,o),
(75,421,c),
(73,454,o),
(81,485,o),
(103,502,c),
(142,517,o),
(169,502,o),
(187,500,c),
(242,472,o),
(249,447,o),
(254,393,c),
(259,336,o),
(224,287,o),
(234,234,c),
(238,218,o),
(244,197,o),
(247,187,c)
);
}
);
width = 524;
},
{
layerId = m003;
shapes = (
{
attr = {
fill = 1;
};
closed = 1;
nodes = (
(238,157,o),
(315,15,o),
(353,32,c),
(374,47,o),
(367,80,o),
(367,80,c),
(358,143,o),
(331,244,o),
(337,295,c),
(347,357,o),
(324,365,o),
(332,397,c),
(334,407,o),
(339,427,o),
(358,435,c),
(376,440,o),
(391,421,o),
(399,399,c),
(408,373,o),
(415,338,o),
(396,275,c),
(396,275,o),
(341,94,o),
(334,10,c),
(323,-90,o),
(406,-121,o),
(392,-178,c),
(371,-272,o),
(323,-298,o),
(293,-305,c),
(269,-309,o),
(239,-323,o),
(224,-297,c),
(196,-223,o),
(346,-188,o),
(354,-57,c),
(360,45,o),
(98,59,o),
(153,85,c),
(204,99,o),
(223,74,o),
(239,57,c),
(252,43,o),
(268,7,o),
(282,-26,c),
(298,-87,o),
(285,-96,o),
(273,-124,c),
(260,-153,o),
(257,-145,o),
(249,-190,c),
(246,-217,o),
(249,-221,o),
(257,-227,c),
(273,-238,o),
(284,-240,o),
(300,-238,c),
(337,-228,o),
(426,-110,o),
(436,-33,c),
(454,96,o),
(385,195,o),
(356,211,c),
(327,222,o),
(337,131,o),
(286,99,c),
(249,82,o),
(198,89,o),
(173,112,c),
(155,125,o),
(146,166,o),
(163,195,c),
(223,290,o),
(201,374,o),
(163,399,c),
(137,414,o),
(93,377,o),
(58,410,c),
(41,429,o),
(50,485,o),
(85,502,c),
(134,524,o),
(151,502,o),
(169,500,c),
(224,472,o),
(231,430,o),
(236,376,c),
(241,319,o),
(206,287,o),
(216,234,c),
(220,218,o),
(226,197,o),
(229,187,c)
);
}
);
width = 499;
}
);
unicode = 121;
},
